  0
SECTION
  2
HEADER
  9
$ACADVER
  1
AC1009
  9
$EXTMIN
 10
0.0
 20
0.0
 30
0.0
  9
$EXTMAX
 10
100.0
 20
100.0
 30
0.0
  9
$INSBASE
 10
0.0
 20
0.0
 30
0.0
  0
ENDSEC
  0
SECTION
  2
TABLES
  0
TABLE
  2
LTYPE
 70
19
  0
LTYPE
  2
PHANTOM
 70
0
  3
Phantom ______  __  __  ______  __  __  ______
 72
65
 73
6
 40
2.5
 49
1.25
 49
-0.25
 49
0.25
 49
-0.25
 49
0.25
 49
-0.25
  0
LTYPE
  2
DOT2
 70
0
  3
Dot (.5) . . . . . . . . . . . . . . . . . . . 
 72
65
 73
2
 40
0.1
 49
0.0
 49
-0.1
  0
LTYPE
  2
DIVIDE
 70
0
  3
Divide __ . . __ . . __ . . __ . . __ . . __
 72
65
 73
6
 40
1.6
 49
1.0
 49
-0.2
 49
0.0
 49
-0.2
 49
0.0
 49
-0.2
  0
LTYPE
  2
DIVIDEX2
 70
0
  3
Divide (2x) ____  . .  ____  . .  ____  . .  ____
 72
65
 73
6
 40
2.6
 49
2.0
 49
-0.2
 49
0.0
 49
-0.2
 49
0.0
 49
-0.2
  0
LTYPE
  2
CENTER
 70
0
  3
Center ____ _ ____ _ ____ _ ____ _ ____ _ ____
 72
65
 73
4
 40
2.0
 49
1.25
 49
-0.25
 49
0.25
 49
-0.25
  0
LTYPE
  2
DASHDOT
 70
0
  3
Dash dot __ . __ . __ . __ . __ . __ . __ . __
 72
65
 73
4
 40
1.4
 49
1.0
 49
-0.2
 49
0.0
 49
-0.2
  0
LTYPE
  2
CENTERX2
 70
0
  3
Center (2x) ________  __  ________  __  ________
 72
65
 73
4
 40
3.5
 49
2.5
 49
-0.25
 49
0.5
 49
-0.25
  0
LTYPE
  2
PHANTOMX2
 70
0
  3
Phantom (2x)____________    ____    ____    ____________
 72
65
 73
6
 40
4.25
 49
2.5
 49
-0.25
 49
0.5
 49
-0.25
 49
0.5
 49
-0.25
  0
LTYPE
  2
CONTINUOUS
 70
0
  3
Solid
 72
65
 73
0
 40
0.0
  0
LTYPE
  2
PHANTOM2
 70
0
  3
Phantom (.5x) ___ _ _ ___ _ _ ___ _ _ ___ _ _ ___
 72
65
 73
6
 40
1.25
 49
0.625
 49
-0.125
 49
0.125
 49
-0.125
 49
0.125
 49
-0.125
  0
LTYPE
  2
DASHED
 70
0
  3
Dashed __ __ __ __ __ __ __ __ __ __ __ __ __ _
 72
65
 73
2
 40
0.6
 49
0.5
 49
-0.1
  0
LTYPE
  2
DASHED2
 70
0
  3
Dashed (.5x) _ _ _ _ _ _ _ _ _ _ _ _ _ _
 72
65
 73
2
 40
0.3
 49
0.25
 49
-0.05
  0
LTYPE
  2
DASHDOT2
 70
0
  3
Dash dot (.5x) _ . _ . _ . _ . _ . _ . _ . _
 72
65
 73
4
 40
0.7
 49
0.5
 49
-0.1
 49
0.0
 49
-0.1
  0
LTYPE
  2
DOTX2
 70
0
  3
Dot (2x) .    .    .    .    .    .    .    . 
 72
65
 73
2
 40
0.4
 49
0.0
 49
-0.4
  0
LTYPE
  2
DIVIDE2
 70
0
  3
Divide(.5x) _ . _ . _ . _ . _ . _ . _ . _
 72
65
 73
6
 40
0.8
 49
0.5
 49
-0.1
 49
0.0
 49
-0.1
 49
0.0
 49
-0.1
  0
LTYPE
  2
CENTER2
 70
0
  3
Center (.5x) ____ _ ____ _ ____ _ ____ _ ____
 72
65
 73
4
 40
1.0
 49
0.625
 49
-0.125
 49
0.125
 49
-0.125
  0
LTYPE
  2
DASHDOTX2
 70
0
  3
Dash dot (2x) ____  .  ____  .  ____  .  ____
 72
65
 73
4
 40
2.4
 49
2.0
 49
-0.2
 49
0.0
 49
-0.2
  0
LTYPE
  2
DOT
 70
0
  3
Dot .  .  .  .  .  .  .  .  .  .  .  .  .  .  .  .
 72
65
 73
2
 40
0.2
 49
0.0
 49
-0.2
  0
LTYPE
  2
DASHEDX2
 70
0
  3
Dashed (2x) ____  ____  ____  ____  ____  ____
 72
65
 73
2
 40
1.2
 49
1.0
 49
-0.2
  0
ENDTAB
  0
TABLE
  2
LAYER
 70
5
  0
LAYER
  2
VIEWPORTS
 70
0
 62
7
  6
CONTINUOUS
  0
LAYER
  2
TABLEGRID
 70
0
 62
1
  6
CONTINUOUS
  0
LAYER
  2
TABLECONTENT
 70
0
 62
1
  6
CONTINUOUS
  0
LAYER
  2
DIMENSIONS
 70
0
 62
1
  6
CONTINUOUS
  0
LAYER
  2
TABLEBACKGROUND
 70
0
 62
1
  6
CONTINUOUS
  0
ENDTAB
  0
TABLE
  2
STYLE
 70
12
  0
STYLE
  2
TIMES
 70
0
 40
0.0
 41
1.0
 42
1.0
 50
0.0
 71
0
  3
times.ttf
  4

  0
STYLE
  2
ARIAL
 70
0
 40
0.0
 41
1.0
 42
1.0
 50
0.0
 71
0
  3
arial.ttf
  4

  0
STYLE
  2
TIMES_BOLD
 70
0
 40
0.0
 41
1.0
 42
1.0
 50
0.0
 71
0
  3
timesbd.ttf
  4

  0
STYLE
  2
ARIAL_BLACK
 70
0
 40
0.0
 41
1.0
 42
1.0
 50
0.0
 71
0
  3
ariblk.ttf
  4

  0
STYLE
  2
TIMES_ITALIC
 70
0
 40
0.0
 41
1.0
 42
1.0
 50
0.0
 71
0
  3
timesi.ttf
  4

  0
STYLE
  2
ISOCPEUR
 70
0
 40
0.0
 41
1.0
 42
1.0
 50
0.0
 71
0
  3
isocpeur.ttf
  4

  0
STYLE
  2
ARIAL_BOLD
 70
0
 40
0.0
 41
1.0
 42
1.0
 50
0.0
 71
0
  3
arialbd.ttf
  4

  0
STYLE
  2
ARIAL_ITALIC
 70
0
 40
0.0
 41
1.0
 42
1.0
 50
0.0
 71
0
  3
ariali.ttf
  4

  0
STYLE
  2
ARIAL_BOLD_ITALIC
 70
0
 40
0.0
 41
1.0
 42
1.0
 50
0.0
 71
0
  3
arialbi.ttf
  4

  0
STYLE
  2
TIMES_BOLD_ITALIC
 70
0
 40
0.0
 41
1.0
 42
1.0
 50
0.0
 71
0
  3
timesbi.ttf
  4

  0
STYLE
  2
ISOCPEUR_ITALIC
 70
0
 40
0.0
 41
1.0
 42
1.0
 50
0.0
 71
0
  3
isocpeui.ttf
  4

  0
STYLE
  2
STANDARD
 70
0
 40
0.0
 41
1.0
 42
1.0
 50
0.0
 71
0
  3
arial.ttf
  4

  0
ENDTAB
  0
TABLE
  2
VIEW
 70
0
  0
ENDTAB
  0
TABLE
  2
APPID
 70
1
  0
APPID
  2
DXFWRITE
 70
0
  0
ENDTAB
  0
TABLE
  2
VPORT
 70
0
  0
ENDTAB
  0
TABLE
  2
UCS
 70
0
  0
ENDTAB
  0
ENDSEC
  0
SECTION
  2
BLOCKS
  0
ENDSEC
  0
SECTION
  2
ENTITIES
  0
VIEWPORT
  8
VIEWPORTS
 67
1
 10
0.0
 20
0.0
 30
0.0
 40
1.0
 41
1.0
 68
1
 69
1
1001
ACAD
1000
MVIEW
1002
{
1070
16
1010
0.0
1020
0.0
1030
0.0
1010
0.0
1020
0.0
1030
0.0
1040
0.0
1040
1.0
1040
0.0
1040
0.0
1040
50.0
1040
0.0
1040
0.0
1070
0
1070
100
1070
1
1070
3
1070
0
1070
0
1070
0
1070
0
1040
0.0
1040
0.0
1040
0.0
1040
0.1
1040
0.1
1040
0.1
1040
0.1
1070
0
1002
{
1002
}
1002
}
  0
POLYLINE
  6
CONTINUOUS
  8
0
 66
1
 10
0.0
 20
0.0
 30
0.0
 70
8
  0
VERTEX
  8
0
 10
0.0
 20
300.0
 30
0.0
  0
VERTEX
  8
0
 10
-0.259062912852
 20
299.924481358
 30
0.0
  0
VERTEX
  8
0
 10
-0.280231345234
 20
299.698001471
 30
0.0
  0
VERTEX
  8
0
 10
-0.315444522831
 20
299.320788386
 30
0.0
  0
VERTEX
  8
0
 10
-0.36460163343
 20
298.793221925
 30
0.0
  0
VERTEX
  8
0
 10
-0.427562536101
 20
298.115833301
 30
0.0
  0
VERTEX
  8
0
 10
-0.504148737696
 20
297.289304589
 30
0.0
  0
VERTEX
  8
0
 10
-0.594144620565
 20
296.314468033
 30
0.0
  0
VERTEX
  8
0
 10
-0.697298901438
 20
295.192305209
 30
0.0
  0
VERTEX
  8
0
 10
-0.813326297589
 20
293.923946042
 30
0.0
  0
VERTEX
  8
0
 10
-0.941909373213
 20
292.510667661
 30
0.0
  0
VERTEX
  8
0
 10
-1.08270053607
 20
290.953893118
 30
0.0
  0
VERTEX
  8
0
 10
-1.23532415223
 20
289.255189952
 30
0.0
  0
VERTEX
  8
0
 10
-1.39937874515
 20
287.416268615
 30
0.0
  0
VERTEX
  8
0
 10
-1.57443924416
 20
285.438980743
 30
0.0
  0
VERTEX
  8
0
 10
-1.760059247
 20
283.325317298
 30
0.0
  0
VERTEX
  8
0
 10
-1.95577326159
 20
281.07740656
 30
0.0
  0
VERTEX
  8
0
 10
-2.16109889261
 20
278.697511985
 30
0.0
  0
VERTEX
  8
0
 10
-2.37553894037
 20
276.188029925
 30
0.0
  0
VERTEX
  8
0
 10
-2.59858338154
 20
273.551487215
 30
0.0
  0
VERTEX
  8
0
 10
-2.82971120367
 20
270.79053863
 30
0.0
  0
VERTEX
  8
0
 10
-3.0683920692
 20
267.907964211
 30
0.0
  0
VERTEX
  8
0
 10
-3.31408778793
 20
264.906666468
 30
0.0
  0
VERTEX
  8
0
 10
-3.56625358101
 20
261.789667451
 30
0.0
  0
VERTEX
  8
0
 10
-3.82433912451
 20
258.560105716
 30
0.0
  0
VERTEX
  8
0
 10
-4.0877893647
 20
255.221233156
 30
0.0
  0
VERTEX
  8
0
 10
-4.35604510215
 20
251.776411734
 30
0.0
  0
VERTEX
  8
0
 10
-4.6285433472
 20
248.229110092
 30
0.0
  0
VERTEX
  8
0
 10
-4.90471745397
 20
244.582900063
 30
0.0
  0
VERTEX
  8
0
 10
-5.18399704461
 20
240.841453071
 30
0.0
  0
VERTEX
  8
0
 10
-5.46580774128
 20
237.008536436
 30
0.0
  0
VERTEX
  8
0
 10
-5.74957072638
 20
233.08800958
 30
0.0
  0
VERTEX
  8
0
 10
-6.03470215677
 20
229.083820142
 30
0.0
  0
VERTEX
  8
0
 10
-6.32061246102
 20
225.0
 30
0.0
  0
VERTEX
  8
0
 10
-6.60670555167
 20
220.840661216
 30
0.0
  0
VERTEX
  8
0
 10
-6.89237798715
 20
216.609991891
 30
0.0
  0
VERTEX
  8
0
 10
-7.17701812062
 20
212.31225195
 30
0.0
  0
VERTEX
  8
0
 10
-7.46000527329
 20
207.951768854
 30
0.0
  0
VERTEX
  8
0
 10
-7.74070897122
 20
203.532933239
 30
0.0
  0
VERTEX
  8
0
 10
-8.01848828433
 20
199.060194498
 30
0.0
  0
VERTEX
  8
0
 10
-8.29269130515
 20
194.538056299
 30
0.0
  0
VERTEX
  8
0
 10
-8.56265480403
 20
189.971072053
 30
0.0
  0
VERTEX
  8
0
 10
-8.82770409471
 20
185.363840326
 30
0.0
  0
VERTEX
  8
0
 10
-9.0871531413
 20
180.72100021
 30
0.0
  0
VERTEX
  8
0
 10
-9.34030493469
 20
176.04722665
 30
0.0
  0
VERTEX
  8
0
 10
-9.58645216128
 20
171.347225741
 30
0.0
  0
VERTEX
  8
0
 10
-9.8248781835
 20
166.625729985
 30
0.0
  0
VERTEX
  8
0
 10
-10.0548583451
 20
161.887493528
 30
0.0
  0
VERTEX
  8
0
 10
-10.2756616096
 20
157.137287374
 30
0.0
  0
VERTEX
  8
0
 10
-10.4865525347
 20
152.379894575
 30
0.0
  0
VERTEX
  8
0
 10
-10.6867935773
 20
147.620105425
 30
0.0
  0
VERTEX
  8
0
 10
-10.8756477211
 20
142.862712626
 30
0.0
  0
VERTEX
  8
0
 10
-11.0523814099
 20
138.112506472
 30
0.0
  0
VERTEX
  8
0
 10
-11.2162677635
 20
133.374270015
 30
0.0
  0
VERTEX
  8
0
 10
-11.3665900508
 20
128.652774259
 30
0.0
  0
VERTEX
  8
0
 10
-11.5026453826
 20
123.95277335
 30
0.0
  0
VERTEX
  8
0
 10
-11.6237485903
 20
119.27899979
 30
0.0
  0
VERTEX
  8
0
 10
-11.7292362423
 20
114.636159673
 30
0.0
  0
VERTEX
  8
0
 10
-11.8184707537
 20
110.028927947
 30
0.0
  0
VERTEX
  8
0
 10
-11.8908445372
 20
105.461943701
 30
0.0
  0
VERTEX
  8
0
 10
-11.9457841415
 20
100.939805502
 30
0.0
  0
VERTEX
  8
0
 10
-11.9827543212
 20
96.4670667612
 30
0.0
  0
VERTEX
  8
0
 10
-12.0012619818
 20
92.0482311459
 30
0.0
  0
VERTEX
  8
0
 10
-12.000859942
 20
87.6877480497
 30
0.0
  0
VERTEX
  8
0
 10
-11.9811504567
 20
83.3900081091
 30
0.0
  0
VERTEX
  8
0
 10
-11.9417884457
 20
79.1593387842
 30
0.0
  0
VERTEX
  8
0
 10
-11.882484375
 20
75.0
 30
0.0
  0
VERTEX
  8
0
 10
-11.8030067402
 20
70.9161798585
 30
0.0
  0
VERTEX
  8
0
 10
-11.7031841069
 20
66.9119904201
 30
0.0
  0
VERTEX
  8
0
 10
-11.582906667
 20
62.9914635642
 30
0.0
  0
VERTEX
  8
0
 10
-11.4421272742
 20
59.1585469293
 30
0.0
  0
VERTEX
  8
0
 10
-11.2808619301
 20
55.4170999374
 30
0.0
  0
VERTEX
  8
0
 10
-11.0991896982
 20
51.7708899081
 30
0.0
  0
VERTEX
  8
0
 10
-10.8972520277
 20
48.2235882663
 30
0.0
  0
VERTEX
  8
0
 10
-10.6752514825
 20
44.7787668441
 30
0.0
  0
VERTEX
  8
0
 10
-10.4334498715
 20
41.4398942841
 30
0.0
  0
VERTEX
  8
0
 10
-10.1721657889
 20
38.2103325486
 30
0.0
  0
VERTEX
  8
0
 10
-9.89177157993
 20
35.0933335323
 30
0.0
  0
VERTEX
  8
0
 10
-9.59268975543
 20
32.0920357887
 30
0.0
  0
VERTEX
  8
0
 10
-9.27538888473
 20
29.2094613703
 30
0.0
  0
VERTEX
  8
0
 10
-8.94037900668
 20
26.4485127855
 30
0.0
  0
VERTEX
  8
0
 10
-8.58820660329
 20
23.8119700753
 30
0.0
  0
VERTEX
  8
0
 10
-8.21944918758
 20
21.3024880148
 30
0.0
  0
VERTEX
  8
0
 10
-7.83470956326
 20
18.9225934395
 30
0.0
  0
VERTEX
  8
0
 10
-7.43460981888
 20
16.6746827018
 30
0.0
  0
VERTEX
  8
0
 10
-7.01978512335
 20
14.561019257
 30
0.0
  0
VERTEX
  8
0
 10
-6.59087739264
 20
12.5837313852
 30
0.0
  0
VERTEX
  8
0
 10
-6.14852890158
 20
10.7448100476
 30
0.0
  0
VERTEX
  8
0
 10
-5.69337591411
 20
9.0461068821
 30
0.0
  0
VERTEX
  8
0
 10
-5.22604240782
 20
7.48933233885
 30
0.0
  0
VERTEX
  8
0
 10
-4.74713396697
 20
6.07605395784
 30
0.0
  0
VERTEX
  8
0
 10
-4.25723191737
 20
4.80769479054
 30
0.0
  0
VERTEX
  8
0
 10
-3.75688777371
 20
3.68553196719
 30
0.0
  0
VERTEX
  8
0
 10
-3.24661806699
 20
2.7106954106
 30
0.0
  0
VERTEX
  8
0
 10
-2.72689961475
 20
1.88416669854
 30
0.0
  0
VERTEX
  8
0
 10
-2.19816529228
 20
1.20677807538
 30
0.0
  0
VERTEX
  8
0
 10
-1.66080035646
 20
0.679211614038
 30
0.0
  0
VERTEX
  8
0
 10
-1.11513936757
 20
0.301998529218
 30
0.0
  0
VERTEX
  8
0
 10
-0.56146374687
 20
0.0755186425221
 30
0.0
  0
VERTEX
  8
0
 10
-0.421820324208
 20
0.0424807960305
 30
0.0
  0
VERTEX
  8
0
 10
0.0
 20
0.0
 30
0.0
  0
VERTEX
  8
0
 10
0.421820324208
 20
0.0424807960305
 30
0.0
  0
VERTEX
  8
0
 10
0.56146374687
 20
0.0755186425221
 30
0.0
  0
VERTEX
  8
0
 10
1.11513936757
 20
0.301998529218
 30
0.0
  0
VERTEX
  8
0
 10
1.66080035646
 20
0.679211614038
 30
0.0
  0
VERTEX
  8
0
 10
2.19816529228
 20
1.20677807538
 30
0.0
  0
VERTEX
  8
0
 10
2.72689961475
 20
1.88416669854
 30
0.0
  0
VERTEX
  8
0
 10
3.24661806699
 20
2.7106954106
 30
0.0
  0
VERTEX
  8
0
 10
3.75688777371
 20
3.68553196719
 30
0.0
  0
VERTEX
  8
0
 10
4.25723191737
 20
4.80769479054
 30
0.0
  0
VERTEX
  8
0
 10
4.74713396697
 20
6.07605395784
 30
0.0
  0
VERTEX
  8
0
 10
5.22604240782
 20
7.48933233885
 30
0.0
  0
VERTEX
  8
0
 10
5.69337591411
 20
9.0461068821
 30
0.0
  0
VERTEX
  8
0
 10
6.14852890158
 20
10.7448100476
 30
0.0
  0
VERTEX
  8
0
 10
6.59087739264
 20
12.5837313852
 30
0.0
  0
VERTEX
  8
0
 10
7.01978512335
 20
14.561019257
 30
0.0
  0
VERTEX
  8
0
 10
7.43460981888
 20
16.6746827018
 30
0.0
  0
VERTEX
  8
0
 10
7.83470956326
 20
18.9225934395
 30
0.0
  0
VERTEX
  8
0
 10
8.21944918758
 20
21.3024880148
 30
0.0
  0
VERTEX
  8
0
 10
8.58820660329
 20
23.8119700753
 30
0.0
  0
VERTEX
  8
0
 10
8.94037900668
 20
26.4485127855
 30
0.0
  0
VERTEX
  8
0
 10
9.27538888473
 20
29.2094613703
 30
0.0
  0
VERTEX
  8
0
 10
9.59268975543
 20
32.0920357887
 30
0.0
  0
VERTEX
  8
0
 10
9.89177157993
 20
35.0933335323
 30
0.0
  0
VERTEX
  8
0
 10
10.1721657889
 20
38.2103325486
 30
0.0
  0
VERTEX
  8
0
 10
10.4334498715
 20
41.4398942841
 30
0.0
  0
VERTEX
  8
0
 10
10.6752514825
 20
44.7787668441
 30
0.0
  0
VERTEX
  8
0
 10
10.8972520277
 20
48.2235882663
 30
0.0
  0
VERTEX
  8
0
 10
11.0991896982
 20
51.7708899081
 30
0.0
  0
VERTEX
  8
0
 10
11.2808619301
 20
55.4170999374
 30
0.0
  0
VERTEX
  8
0
 10
11.4421272742
 20
59.1585469293
 30
0.0
  0
VERTEX
  8
0
 10
11.582906667
 20
62.9914635642
 30
0.0
  0
VERTEX
  8
0
 10
11.7031841069
 20
66.9119904201
 30
0.0
  0
VERTEX
  8
0
 10
11.8030067402
 20
70.9161798585
 30
0.0
  0
VERTEX
  8
0
 10
11.882484375
 20
75.0
 30
0.0
  0
VERTEX
  8
0
 10
11.9417884457
 20
79.1593387842
 30
0.0
  0
VERTEX
  8
0
 10
11.9811504567
 20
83.3900081091
 30
0.0
  0
VERTEX
  8
0
 10
12.000859942
 20
87.6877480497
 30
0.0
  0
VERTEX
  8
0
 10
12.0012619818
 20
92.0482311459
 30
0.0
  0
VERTEX
  8
0
 10
11.9827543212
 20
96.4670667612
 30
0.0
  0
VERTEX
  8
0
 10
11.9457841415
 20
100.939805502
 30
0.0
  0
VERTEX
  8
0
 10
11.8908445372
 20
105.461943701
 30
0.0
  0
VERTEX
  8
0
 10
11.8184707537
 20
110.028927947
 30
0.0
  0
VERTEX
  8
0
 10
11.7292362423
 20
114.636159673
 30
0.0
  0
VERTEX
  8
0
 10
11.6237485903
 20
119.27899979
 30
0.0
  0
VERTEX
  8
0
 10
11.5026453826
 20
123.95277335
 30
0.0
  0
VERTEX
  8
0
 10
11.3665900508
 20
128.652774259
 30
0.0
  0
VERTEX
  8
0
 10
11.2162677635
 20
133.374270015
 30
0.0
  0
VERTEX
  8
0
 10
11.0523814099
 20
138.112506472
 30
0.0
  0
VERTEX
  8
0
 10
10.8756477211
 20
142.862712626
 30
0.0
  0
VERTEX
  8
0
 10
10.6867935773
 20
147.620105425
 30
0.0
  0
VERTEX
  8
0
 10
10.4865525347
 20
152.379894575
 30
0.0
  0
VERTEX
  8
0
 10
10.2756616096
 20
157.137287374
 30
0.0
  0
VERTEX
  8
0
 10
10.0548583451
 20
161.887493528
 30
0.0
  0
VERTEX
  8
0
 10
9.8248781835
 20
166.625729985
 30
0.0
  0
VERTEX
  8
0
 10
9.58645216128
 20
171.347225741
 30
0.0
  0
VERTEX
  8
0
 10
9.34030493469
 20
176.04722665
 30
0.0
  0
VERTEX
  8
0
 10
9.0871531413
 20
180.72100021
 30
0.0
  0
VERTEX
  8
0
 10
8.82770409471
 20
185.363840326
 30
0.0
  0
VERTEX
  8
0
 10
8.56265480403
 20
189.971072053
 30
0.0
  0
VERTEX
  8
0
 10
8.29269130515
 20
194.538056299
 30
0.0
  0
VERTEX
  8
0
 10
8.01848828433
 20
199.060194498
 30
0.0
  0
VERTEX
  8
0
 10
7.74070897122
 20
203.532933239
 30
0.0
  0
VERTEX
  8
0
 10
7.46000527329
 20
207.951768854
 30
0.0
  0
VERTEX
  8
0
 10
7.17701812062
 20
212.31225195
 30
0.0
  0
VERTEX
  8
0
 10
6.89237798715
 20
216.609991891
 30
0.0
  0
VERTEX
  8
0
 10
6.60670555167
 20
220.840661216
 30
0.0
  0
VERTEX
  8
0
 10
6.32061246102
 20
225.0
 30
0.0
  0
VERTEX
  8
0
 10
6.03470215677
 20
229.083820142
 30
0.0
  0
VERTEX
  8
0
 10
5.74957072638
 20
233.08800958
 30
0.0
  0
VERTEX
  8
0
 10
5.46580774128
 20
237.008536436
 30
0.0
  0
VERTEX
  8
0
 10
5.18399704461
 20
240.841453071
 30
0.0
  0
VERTEX
  8
0
 10
4.90471745397
 20
244.582900063
 30
0.0
  0
VERTEX
  8
0
 10
4.6285433472
 20
248.229110092
 30
0.0
  0
VERTEX
  8
0
 10
4.35604510215
 20
251.776411734
 30
0.0
  0
VERTEX
  8
0
 10
4.0877893647
 20
255.221233156
 30
0.0
  0
VERTEX
  8
0
 10
3.82433912451
 20
258.560105716
 30
0.0
  0
VERTEX
  8
0
 10
3.56625358101
 20
261.789667451
 30
0.0
  0
VERTEX
  8
0
 10
3.31408778793
 20
264.906666468
 30
0.0
  0
VERTEX
  8
0
 10
3.0683920692
 20
267.907964211
 30
0.0
  0
VERTEX
  8
0
 10
2.82971120367
 20
270.79053863
 30
0.0
  0
VERTEX
  8
0
 10
2.59858338154
 20
273.551487215
 30
0.0
  0
VERTEX
  8
0
 10
2.37553894037
 20
276.188029925
 30
0.0
  0
VERTEX
  8
0
 10
2.16109889261
 20
278.697511985
 30
0.0
  0
VERTEX
  8
0
 10
1.95577326159
 20
281.07740656
 30
0.0
  0
VERTEX
  8
0
 10
1.760059247
 20
283.325317298
 30
0.0
  0
VERTEX
  8
0
 10
1.57443924416
 20
285.438980743
 30
0.0
  0
VERTEX
  8
0
 10
1.39937874515
 20
287.416268615
 30
0.0
  0
VERTEX
  8
0
 10
1.23532415223
 20
289.255189952
 30
0.0
  0
VERTEX
  8
0
 10
1.08270053607
 20
290.953893118
 30
0.0
  0
VERTEX
  8
0
 10
0.941909373213
 20
292.510667661
 30
0.0
  0
VERTEX
  8
0
 10
0.813326297589
 20
293.923946042
 30
0.0
  0
VERTEX
  8
0
 10
0.697298901438
 20
295.192305209
 30
0.0
  0
VERTEX
  8
0
 10
0.594144620565
 20
296.314468033
 30
0.0
  0
VERTEX
  8
0
 10
0.504148737696
 20
297.289304589
 30
0.0
  0
VERTEX
  8
0
 10
0.427562536101
 20
298.115833301
 30
0.0
  0
VERTEX
  8
0
 10
0.36460163343
 20
298.793221925
 30
0.0
  0
VERTEX
  8
0
 10
0.315444522831
 20
299.320788386
 30
0.0
  0
VERTEX
  8
0
 10
0.280231345234
 20
299.698001471
 30
0.0
  0
VERTEX
  8
0
 10
0.259062912852
 20
299.924481358
 30
0.0
  0
VERTEX
  8
0
 10
0.252
 20
300.0
 30
0.0
  0
SEQEND
  0
POLYLINE
  6
CONTINUOUS
  8
0
 66
1
 10
0.0
 20
0.0
 30
0.0
 70
8
  0
VERTEX
  8
0
 10
45.0
 20
290.0
 30
0.0
  0
VERTEX
  8
0
 10
44.7495725176
 20
289.926998646
 30
0.0
  0
VERTEX
  8
0
 10
44.7291096996
 20
289.708068088
 30
0.0
  0
VERTEX
  8
0
 10
44.6950702946
 20
289.343428773
 30
0.0
  0
VERTEX
  8
0
 10
44.6475517544
 20
288.83344786
 30
0.0
  0
VERTEX
  8
0
 10
44.5866895484
 20
288.178638858
 30
0.0
  0
VERTEX
  8
0
 10
44.5126562202
 20
287.379661103
 30
0.0
  0
VERTEX
  8
0
 10
44.4256602001
 20
286.437319098
 30
0.0
  0
VERTEX
  8
0
 10
44.3259443953
 20
285.352561702
 30
0.0
  0
VERTEX
  8
0
 10
44.213784579
 20
284.126481174
 30
0.0
  0
VERTEX
  8
0
 10
44.0894876059
 20
282.760312072
 30
0.0
  0
VERTEX
  8
0
 10
43.9533894818
 20
281.255430014
 30
0.0
  0
VERTEX
  8
0
 10
43.8058533195
 20
279.613350287
 30
0.0
  0
VERTEX
  8
0
 10
43.647267213
 20
277.835726328
 30
0.0
  0
VERTEX
  8
0
 10
43.478042064
 20
275.924348051
 30
0.0
  0
VERTEX
  8
0
 10
43.2986093946
 20
273.881140055
 30
0.0
  0
VERTEX
  8
0
 10
43.1094191805
 20
271.708159675
 30
0.0
  0
VERTEX
  8
0
 10
42.9109377371
 20
269.407594919
 30
0.0
  0
VERTEX
  8
0
 10
42.703645691
 20
266.981762261
 30
0.0
  0
VERTEX
  8
0
 10
42.4880360645
 20
264.433104307
 30
0.0
  0
VERTEX
  8
0
 10
42.2646125031
 20
261.764187342
 30
0.0
  0
VERTEX
  8
0
 10
42.0338876664
 20
258.977698738
 30
0.0
  0
VERTEX
  8
0
 10
41.796381805
 20
256.076444252
 30
0.0
  0
VERTEX
  8
0
 10
41.5526215384
 20
253.063345203
 30
0.0
  0
VERTEX
  8
0
 10
41.3031388463
 20
249.941435525
 30
0.0
  0
VERTEX
  8
0
 10
41.0484702808
 20
246.713858717
 30
0.0
  0
VERTEX
  8
0
 10
40.7891564013
 20
243.383864676
 30
0.0
  0
VERTEX
  8
0
 10
40.525741431
 20
239.954806422
 30
0.0
  0
VERTEX
  8
0
 10
40.2587731278
 20
236.430136727
 30
0.0
  0
VERTEX
  8
0
 10
39.9888028569
 20
232.813404635
 30
0.0
  0
VERTEX
  8
0
 10
39.7163858501
 20
229.108251888
 30
0.0
  0
VERTEX
  8
0
 10
39.4420816312
 20
225.318409261
 30
0.0
  0
VERTEX
  8
0
 10
39.1664545818
 20
221.447692803
 30
0.0
  0
VERTEX
  8
0
 10
38.890074621
 20
217.5
 30
0.0
  0
VERTEX
  8
0
 10
38.6135179667
 20
213.479305842
 30
0.0
  0
VERTEX
  8
0
 10
38.3373679458
 20
209.389658828
 30
0.0
  0
VERTEX
  8
0
 10
38.0622158167
 20
205.235176885
 30
0.0
  0
VERTEX
  8
0
 10
37.7886615692
 20
201.020043226
 30
0.0
  0
VERTEX
  8
0
 10
37.5173146612
 20
196.748502131
 30
0.0
  0
VERTEX
  8
0
 10
37.2487946585
 20
192.424854681
 30
0.0
  0
VERTEX
  8
0
 10
36.9837317384
 20
188.053454423
 30
0.0
  0
VERTEX
  8
0
 10
36.7227670228
 20
183.638702985
 30
0.0
  0
VERTEX
  8
0
 10
36.4665527084
 20
179.185045649
 30
0.0
  0
VERTEX
  8
0
 10
36.2157519634
 20
174.69696687
 30
0.0
  0
VERTEX
  8
0
 10
35.9710385631
 20
170.178985762
 30
0.0
  0
VERTEX
  8
0
 10
35.7330962441
 20
165.63565155
 30
0.0
  0
VERTEX
  8
0
 10
35.5026177559
 20
161.071538986
 30
0.0
  0
VERTEX
  8
0
 10
35.2803035998
 20
156.491243744
 30
0.0
  0
VERTEX
  8
0
 10
35.066860444
 20
151.899377794
 30
0.0
  0
VERTEX
  8
0
 10
34.8629992164
 20
147.300564756
 30
0.0
  0
VERTEX
  8
0
 10
34.6694328753
 20
142.699435244
 30
0.0
  0
VERTEX
  8
0
 10
34.4868738696
 20
138.100622206
 30
0.0
  0
VERTEX
  8
0
 10
34.3160313038
 20
133.508756256
 30
0.0
  0
VERTEX
  8
0
 10
34.1576078286
 20
128.928461014
 30
0.0
  0
VERTEX
  8
0
 10
34.0122962843
 20
124.36434845
 30
0.0
  0
VERTEX
  8
0
 10
33.8807761301
 20
119.821014238
 30
0.0
  0
VERTEX
  8
0
 10
33.763709696
 20
115.30303313
 30
0.0
  0
VERTEX
  8
0
 10
33.6617382991
 20
110.814954351
 30
0.0
  0
VERTEX
  8
0
 10
33.5754782714
 20
106.361297015
 30
0.0
  0
VERTEX
  8
0
 10
33.5055169474
 20
101.946545577
 30
0.0
  0
VERTEX
  8
0
 10
33.4524086632
 20
97.5751453189
 30
0.0
  0
VERTEX
  8
0
 10
33.4166708228
 20
93.2514978692
 30
0.0
  0
VERTEX
  8
0
 10
33.3987800842
 20
88.9799567744
 30
0.0
  0
VERTEX
  8
0
 10
33.3991687227
 20
84.7648231147
 30
0.0
  0
VERTEX
  8
0
 10
33.4182212252
 20
80.6103411721
 30
0.0
  0
VERTEX
  8
0
 10
33.4562711691
 20
76.5206941581
 30
0.0
  0
VERTEX
  8
0
 10
33.5135984375
 20
72.5
 30
0.0
  0
VERTEX
  8
0
 10
33.5904268179
 20
68.5523071966
 30
0.0
  0
VERTEX
  8
0
 10
33.68692203
 20
64.6815907394
 30
0.0
  0
VERTEX
  8
0
 10
33.8031902219
 20
60.8917481121
 30
0.0
  0
VERTEX
  8
0
 10
33.9392769683
 20
57.186595365
 30
0.0
  0
VERTEX
  8
0
 10
34.0951668009
 20
53.5698632728
 30
0.0
  0
VERTEX
  8
0
 10
34.2707832918
 20
50.0451935778
 30
0.0
  0
VERTEX
  8
0
 10
34.4659897066
 20
46.6161353241
 30
0.0
  0
VERTEX
  8
0
 10
34.6805902335
 20
43.2861412826
 30
0.0
  0
VERTEX
  8
0
 10
34.9143317908
 20
40.0585644746
 30
0.0
  0
VERTEX
  8
0
 10
35.1669064041
 20
36.936654797
 30
0.0
  0
VERTEX
  8
0
 10
35.4379541394
 20
33.9235557479
 30
0.0
  0
VERTEX
  8
0
 10
35.7270665698
 20
31.0223012624
 30
0.0
  0
VERTEX
  8
0
 10
36.0337907448
 20
28.235812658
 30
0.0
  0
VERTEX
  8
0
 10
36.3576336269
 20
25.5668956927
 30
0.0
  0
VERTEX
  8
0
 10
36.6980669502
 20
23.0182377395
 30
0.0
  0
VERTEX
  8
0
 10
37.054532452
 20
20.5924050809
 30
0.0
  0
VERTEX
  8
0
 10
37.4264474222
 20
18.2918403249
 30
0.0
  0
VERTEX
  8
0
 10
37.8132105084
 20
16.118859945
 30
0.0
  0
VERTEX
  8
0
 10
38.2142077141
 20
14.0756519484
 30
0.0
  0
VERTEX
  8
0
 10
38.6288185204
 20
12.1642736724
 30
0.0
  0
VERTEX
  8
0
 10
39.0564220618
 20
10.3866497127
 30
0.0
  0
VERTEX
  8
0
 10
39.496403283
 20
8.74456998603
 30
0.0
  0
VERTEX
  8
0
 10
39.9481590058
 20
7.23968792756
 30
0.0
  0
VERTEX
  8
0
 10
40.4111038319
 20
5.87351882591
 30
0.0
  0
VERTEX
  8
0
 10
40.8846758132
 20
4.64743829752
 30
0.0
  0
VERTEX
  8
0
 10
41.3683418187
 20
3.56268090162
 30
0.0
  0
VERTEX
  8
0
 10
41.8616025352
 20
2.62033889691
 30
0.0
  0
VERTEX
  8
0
 10
42.3639970391
 20
1.82136114192
 30
0.0
  0
VERTEX
  8
0
 10
42.8751068841
 20
1.16655213953
 30
0.0
  0
VERTEX
  8
0
 10
43.3945596554
 20
0.656571226903
 30
0.0
  0
VERTEX
  8
0
 10
43.9220319447
 20
0.291931911577
 30
0.0
  0
VERTEX
  8
0
 10
44.4572517114
 20
0.073001354438
 30
0.0
  0
VERTEX
  8
0
 10
44.5922403533
 20
0.0410647694961
 30
0.0
  0
VERTEX
  8
0
 10
45.0
 20
0.0
 30
0.0
  0
VERTEX
  8
0
 10
45.4077596467
 20
0.0410647694961
 30
0.0
  0
VERTEX
  8
0
 10
45.5427482886
 20
0.073001354438
 30
0.0
  0
VERTEX
  8
0
 10
46.0779680553
 20
0.291931911577
 30
0.0
  0
VERTEX
  8
0
 10
46.6054403446
 20
0.656571226903
 30
0.0
  0
VERTEX
  8
0
 10
47.1248931159
 20
1.16655213953
 30
0.0
  0
VERTEX
  8
0
 10
47.6360029609
 20
1.82136114192
 30
0.0
  0
VERTEX
  8
0
 10
48.1383974648
 20
2.62033889691
 30
0.0
  0
VERTEX
  8
0
 10
48.6316581813
 20
3.56268090162
 30
0.0
  0
VERTEX
  8
0
 10
49.1153241868
 20
4.64743829752
 30
0.0
  0
VERTEX
  8
0
 10
49.5888961681
 20
5.87351882591
 30
0.0
  0
VERTEX
  8
0
 10
50.0518409942
 20
7.23968792756
 30
0.0
  0
VERTEX
  8
0
 10
50.503596717
 20
8.74456998603
 30
0.0
  0
VERTEX
  8
0
 10
50.9435779382
 20
10.3866497127
 30
0.0
  0
VERTEX
  8
0
 10
51.3711814796
 20
12.1642736724
 30
0.0
  0
VERTEX
  8
0
 10
51.7857922859
 20
14.0756519484
 30
0.0
  0
VERTEX
  8
0
 10
52.1867894916
 20
16.118859945
 30
0.0
  0
VERTEX
  8
0
 10
52.5735525778
 20
18.2918403249
 30
0.0
  0
VERTEX
  8
0
 10
52.945467548
 20
20.5924050809
 30
0.0
  0
VERTEX
  8
0
 10
53.3019330498
 20
23.0182377395
 30
0.0
  0
VERTEX
  8
0
 10
53.6423663731
 20
25.5668956927
 30
0.0
  0
VERTEX
  8
0
 10
53.9662092552
 20
28.235812658
 30
0.0
  0
VERTEX
  8
0
 10
54.2729334302
 20
31.0223012624
 30
0.0
  0
VERTEX
  8
0
 10
54.5620458606
 20
33.9235557479
 30
0.0
  0
VERTEX
  8
0
 10
54.8330935959
 20
36.936654797
 30
0.0
  0
VERTEX
  8
0
 10
55.0856682092
 20
40.0585644746
 30
0.0
  0
VERTEX
  8
0
 10
55.3194097665
 20
43.2861412826
 30
0.0
  0
VERTEX
  8
0
 10
55.5340102934
 20
46.6161353241
 30
0.0
  0
VERTEX
  8
0
 10
55.7292167082
 20
50.0451935778
 30
0.0
  0
VERTEX
  8
0
 10
55.9048331991
 20
53.5698632728
 30
0.0
  0
VERTEX
  8
0
 10
56.0607230317
 20
57.186595365
 30
0.0
  0
VERTEX
  8
0
 10
56.1968097781
 20
60.8917481121
 30
0.0
  0
VERTEX
  8
0
 10
56.31307797
 20
64.6815907394
 30
0.0
  0
VERTEX
  8
0
 10
56.4095731821
 20
68.5523071966
 30
0.0
  0
VERTEX
  8
0
 10
56.4864015625
 20
72.5
 30
0.0
  0
VERTEX
  8
0
 10
56.5437288309
 20
76.5206941581
 30
0.0
  0
VERTEX
  8
0
 10
56.5817787748
 20
80.6103411721
 30
0.0
  0
VERTEX
  8
0
 10
56.6008312773
 20
84.7648231147
 30
0.0
  0
VERTEX
  8
0
 10
56.6012199158
 20
88.9799567744
 30
0.0
  0
VERTEX
  8
0
 10
56.5833291772
 20
93.2514978692
 30
0.0
  0
VERTEX
  8
0
 10
56.5475913368
 20
97.5751453189
 30
0.0
  0
VERTEX
  8
0
 10
56.4944830526
 20
101.946545577
 30
0.0
  0
VERTEX
  8
0
 10
56.4245217286
 20
106.361297015
 30
0.0
  0
VERTEX
  8
0
 10
56.3382617009
 20
110.814954351
 30
0.0
  0
VERTEX
  8
0
 10
56.236290304
 20
115.30303313
 30
0.0
  0
VERTEX
  8
0
 10
56.1192238699
 20
119.821014238
 30
0.0
  0
VERTEX
  8
0
 10
55.9877037157
 20
124.36434845
 30
0.0
  0
VERTEX
  8
0
 10
55.8423921714
 20
128.928461014
 30
0.0
  0
VERTEX
  8
0
 10
55.6839686962
 20
133.508756256
 30
0.0
  0
VERTEX
  8
0
 10
55.5131261304
 20
138.100622206
 30
0.0
  0
VERTEX
  8
0
 10
55.3305671247
 20
142.699435244
 30
0.0
  0
VERTEX
  8
0
 10
55.1370007836
 20
147.300564756
 30
0.0
  0
VERTEX
  8
0
 10
54.933139556
 20
151.899377794
 30
0.0
  0
VERTEX
  8
0
 10
54.7196964002
 20
156.491243744
 30
0.0
  0
VERTEX
  8
0
 10
54.4973822441
 20
161.071538986
 30
0.0
  0
VERTEX
  8
0
 10
54.2669037559
 20
165.63565155
 30
0.0
  0
VERTEX
  8
0
 10
54.0289614369
 20
170.178985762
 30
0.0
  0
VERTEX
  8
0
 10
53.7842480366
 20
174.69696687
 30
0.0
  0
VERTEX
  8
0
 10
53.5334472916
 20
179.185045649
 30
0.0
  0
VERTEX
  8
0
 10
53.2772329772
 20
183.638702985
 30
0.0
  0
VERTEX
  8
0
 10
53.0162682616
 20
188.053454423
 30
0.0
  0
VERTEX
  8
0
 10
52.7512053415
 20
192.424854681
 30
0.0
  0
VERTEX
  8
0
 10
52.4826853388
 20
196.748502131
 30
0.0
  0
VERTEX
  8
0
 10
52.2113384308
 20
201.020043226
 30
0.0
  0
VERTEX
  8
0
 10
51.9377841833
 20
205.235176885
 30
0.0
  0
VERTEX
  8
0
 10
51.6626320542
 20
209.389658828
 30
0.0
  0
VERTEX
  8
0
 10
51.3864820333
 20
213.479305842
 30
0.0
  0
VERTEX
  8
0
 10
51.109925379
 20
217.5
 30
0.0
  0
VERTEX
  8
0
 10
50.8335454182
 20
221.447692803
 30
0.0
  0
VERTEX
  8
0
 10
50.5579183688
 20
225.318409261
 30
0.0
  0
VERTEX
  8
0
 10
50.2836141499
 20
229.108251888
 30
0.0
  0
VERTEX
  8
0
 10
50.0111971431
 20
232.813404635
 30
0.0
  0
VERTEX
  8
0
 10
49.7412268722
 20
236.430136727
 30
0.0
  0
VERTEX
  8
0
 10
49.474258569
 20
239.954806422
 30
0.0
  0
VERTEX
  8
0
 10
49.2108435987
 20
243.383864676
 30
0.0
  0
VERTEX
  8
0
 10
48.9515297192
 20
246.713858717
 30
0.0
  0
VERTEX
  8
0
 10
48.6968611537
 20
249.941435525
 30
0.0
  0
VERTEX
  8
0
 10
48.4473784616
 20
253.063345203
 30
0.0
  0
VERTEX
  8
0
 10
48.203618195
 20
256.076444252
 30
0.0
  0
VERTEX
  8
0
 10
47.9661123336
 20
258.977698738
 30
0.0
  0
VERTEX
  8
0
 10
47.7353874969
 20
261.764187342
 30
0.0
  0
VERTEX
  8
0
 10
47.5119639355
 20
264.433104307
 30
0.0
  0
VERTEX
  8
0
 10
47.296354309
 20
266.981762261
 30
0.0
  0
VERTEX
  8
0
 10
47.0890622629
 20
269.407594919
 30
0.0
  0
VERTEX
  8
0
 10
46.8905808195
 20
271.708159675
 30
0.0
  0
VERTEX
  8
0
 10
46.7013906054
 20
273.881140055
 30
0.0
  0
VERTEX
  8
0
 10
46.521957936
 20
275.924348051
 30
0.0
  0
VERTEX
  8
0
 10
46.352732787
 20
277.835726328
 30
0.0
  0
VERTEX
  8
0
 10
46.1941466805
 20
279.613350287
 30
0.0
  0
VERTEX
  8
0
 10
46.0466105182
 20
281.255430014
 30
0.0
  0
VERTEX
  8
0
 10
45.9105123941
 20
282.760312072
 30
0.0
  0
VERTEX
  8
0
 10
45.786215421
 20
284.126481174
 30
0.0
  0
VERTEX
  8
0
 10
45.6740556047
 20
285.352561702
 30
0.0
  0
VERTEX
  8
0
 10
45.5743397999
 20
286.437319098
 30
0.0
  0
VERTEX
  8
0
 10
45.4873437798
 20
287.379661103
 30
0.0
  0
VERTEX
  8
0
 10
45.4133104516
 20
288.178638858
 30
0.0
  0
VERTEX
  8
0
 10
45.3524482456
 20
288.83344786
 30
0.0
  0
VERTEX
  8
0
 10
45.3049297054
 20
289.343428773
 30
0.0
  0
VERTEX
  8
0
 10
45.2708903004
 20
289.708068088
 30
0.0
  0
VERTEX
  8
0
 10
45.2504274824
 20
289.926998646
 30
0.0
  0
VERTEX
  8
0
 10
45.2436
 20
290.0
 30
0.0
  0
SEQEND
  0
POLYLINE
  6
CONTINUOUS
  8
0
 66
1
 10
0.0
 20
0.0
 30
0.0
 70
8
  0
VERTEX
  8
0
 10
90.0
 20
280.0
 30
0.0
  0
VERTEX
  8
0
 10
89.758207948
 20
279.929515934
 30
0.0
  0
VERTEX
  8
0
 10
89.7384507444
 20
279.718134706
 30
0.0
  0
VERTEX
  8
0
 10
89.705585112
 20
279.36606916
 30
0.0
  0
VERTEX
  8
0
 10
89.6597051421
 20
278.873673796
 30
0.0
  0
VERTEX
  8
0
 10
89.600941633
 20
278.241444415
 30
0.0
  0
VERTEX
  8
0
 10
89.5294611782
 20
277.470017617
 30
0.0
  0
VERTEX
  8
0
 10
89.4454650208
 20
276.560170164
 30
0.0
  0
VERTEX
  8
0
 10
89.349187692
 20
275.512818195
 30
0.0
  0
VERTEX
  8
0
 10
89.2408954556
 20
274.329016306
 30
0.0
  0
VERTEX
  8
0
 10
89.120884585
 20
273.009956484
 30
0.0
  0
VERTEX
  8
0
 10
88.9894794997
 20
271.55696691
 30
0.0
  0
VERTEX
  8
0
 10
88.8470307913
 20
269.971510622
 30
0.0
  0
VERTEX
  8
0
 10
88.6939131712
 20
268.25518404
 30
0.0
  0
VERTEX
  8
0
 10
88.5305233721
 20
266.40971536
 30
0.0
  0
VERTEX
  8
0
 10
88.3572780361
 20
264.436962812
 30
0.0
  0
VERTEX
  8
0
 10
88.1746116225
 20
262.33891279
 30
0.0
  0
VERTEX
  8
0
 10
87.9829743669
 20
260.117677853
 30
0.0
  0
VERTEX
  8
0
 10
87.7828303223
 20
257.775494596
 30
0.0
  0
VERTEX
  8
0
 10
87.5746555106
 20
255.3147214
 30
0.0
  0
VERTEX
  8
0
 10
87.3589362099
 20
252.737836054
 30
0.0
  0
VERTEX
  8
0
 10
87.1361674021
 20
250.047433264
 30
0.0
  0
VERTEX
  8
0
 10
86.9068513979
 20
247.246222037
 30
0.0
  0
VERTEX
  8
0
 10
86.6714966577
 20
244.337022955
 30
0.0
  0
VERTEX
  8
0
 10
86.4306168171
 20
241.322765335
 30
0.0
  0
VERTEX
  8
0
 10
86.1847299263
 20
238.206484279
 30
0.0
  0
VERTEX
  8
0
 10
85.9343579047
 20
234.991317618
 30
0.0
  0
VERTEX
  8
0
 10
85.6800262093
 20
231.680502752
 30
0.0
  0
VERTEX
  8
0
 10
85.4222637096
 20
228.277373392
 30
0.0
  0
VERTEX
  8
0
 10
85.1616027584
 20
224.785356199
 30
0.0
  0
VERTEX
  8
0
 10
84.8985794415
 20
221.20796734
 30
0.0
  0
VERTEX
  8
0
 10
84.6337339887
 20
217.548808941
 30
0.0
  0
VERTEX
  8
0
 10
84.3676113203
 20
213.811565465
 30
0.0
  0
VERTEX
  8
0
 10
84.100761703
 20
210.0
 30
0.0
  0
VERTEX
  8
0
 10
83.8337414851
 20
206.117950468
 30
0.0
  0
VERTEX
  8
0
 10
83.5671138787
 20
202.169325765
 30
0.0
  0
VERTEX
  8
0
 10
83.3014497541
 20
198.15810182
 30
0.0
  0
VERTEX
  8
0
 10
83.0373284116
 20
194.088317597
 30
0.0
  0
VERTEX
  8
0
 10
82.7753382935
 20
189.964071023
 30
0.0
  0
VERTEX
  8
0
 10
82.5160776013
 20
185.789514865
 30
0.0
  0
VERTEX
  8
0
 10
82.2601547819
 20
181.568852546
 30
0.0
  0
VERTEX
  8
0
 10
82.0081888496
 20
177.306333917
 30
0.0
  0
VERTEX
  8
0
 10
81.7608095116
 20
173.006250971
 30
0.0
  0
VERTEX
  8
0
 10
81.5186570681
 20
168.672933529
 30
0.0
  0
VERTEX
  8
0
 10
81.282382061
 20
164.310744873
 30
0.0
  0
VERTEX
  8
0
 10
81.0526446495
 20
159.924077358
 30
0.0
  0
VERTEX
  8
0
 10
80.8301136954
 20
155.517347986
 30
0.0
  0
VERTEX
  8
0
 10
80.6154655446
 20
151.09499396
 30
0.0
  0
VERTEX
  8
0
 10
80.4093824977
 20
146.661468215
 30
0.0
  0
VERTEX
  8
0
 10
80.2125509676
 20
142.221234937
 30
0.0
  0
VERTEX
  8
0
 10
80.0256593279
 20
137.778765063
 30
0.0
  0
VERTEX
  8
0
 10
79.8493954603
 20
133.338531785
 30
0.0
  0
VERTEX
  8
0
 10
79.6844440175
 20
128.90500604
 30
0.0
  0
VERTEX
  8
0
 10
79.5314834207
 20
124.482652014
 30
0.0
  0
VERTEX
  8
0
 10
79.3911826193
 20
120.075922642
 30
0.0
  0
VERTEX
  8
0
 10
79.2641976429
 20
115.689255127
 30
0.0
  0
VERTEX
  8
0
 10
79.1511679823
 20
111.327066471
 30
0.0
  0
VERTEX
  8
0
 10
79.0527128405
 20
106.993749029
 30
0.0
  0
VERTEX
  8
0
 10
78.9694272966
 20
102.693666083
 30
0.0
  0
VERTEX
  8
0
 10
78.901878432
 20
98.4311474541
 30
0.0
  0
VERTEX
  8
0
 10
78.850601468
 20
94.2104851355
 30
0.0
  0
VERTEX
  8
0
 10
78.8160959669
 20
90.0359289771
 30
0.0
  0
VERTEX
  8
0
 10
78.7988221503
 20
85.9116824028
 30
0.0
  0
VERTEX
  8
0
 10
78.7991973875
 20
81.8418981797
 30
0.0
  0
VERTEX
  8
0
 10
78.8175929071
 20
77.8306742352
 30
0.0
  0
VERTEX
  8
0
 10
78.854330784
 20
73.8820495319
 30
0.0
  0
VERTEX
  8
0
 10
78.90968125
 20
70.0
 30
0.0
  0
VERTEX
  8
0
 10
78.9838603759
 20
66.1884345346
 30
0.0
  0
VERTEX
  8
0
 10
79.0770281669
 20
62.4511910588
 30
0.0
  0
VERTEX
  8
0
 10
79.1892871108
 20
58.7920326599
 30
0.0
  0
VERTEX
  8
0
 10
79.3206812108
 20
55.2146438007
 30
0.0
  0
VERTEX
  8
0
 10
79.4711955319
 20
51.7226266082
 30
0.0
  0
VERTEX
  8
0
 10
79.6407562817
 20
48.3194972476
 30
0.0
  0
VERTEX
  8
0
 10
79.8292314408
 20
45.0086823819
 30
0.0
  0
VERTEX
  8
0
 10
80.0364319496
 20
41.7935157212
 30
0.0
  0
VERTEX
  8
0
 10
80.2621134532
 20
38.6772346652
 30
0.0
  0
VERTEX
  8
0
 10
80.505978597
 20
35.6629770454
 30
0.0
  0
VERTEX
  8
0
 10
80.7676798587
 20
32.7537779635
 30
0.0
  0
VERTEX
  8
0
 10
81.0468228949
 20
29.9525667361
 30
0.0
  0
VERTEX
  8
0
 10
81.3429703743
 20
27.2621639457
 30
0.0
  0
VERTEX
  8
0
 10
81.6556462604
 20
24.6852785998
 30
0.0
  0
VERTEX
  8
0
 10
81.9843405036
 20
22.2245054036
 30
0.0
  0
VERTEX
  8
0
 10
82.3285140916
 20
19.8823221471
 30
0.0
  0
VERTEX
  8
0
 10
82.6876044076
 20
17.6610872102
 30
0.0
  0
VERTEX
  8
0
 10
83.0610308357
 20
15.5630371883
 30
0.0
  0
VERTEX
  8
0
 10
83.4482005515
 20
13.5902846399
 30
0.0
  0
VERTEX
  8
0
 10
83.8485144335
 20
11.7448159595
 30
0.0
  0
VERTEX
  8
0
 10
84.2613730252
 20
10.0284893778
 30
0.0
  0
VERTEX
  8
0
 10
84.6861824802
 20
8.44303308996
 30
0.0
  0
VERTEX
  8
0
 10
85.1223604194
 20
6.99004351626
 30
0.0
  0
VERTEX
  8
0
 10
85.5693416308
 20
5.67098369398
 30
0.0
  0
VERTEX
  8
0
 10
86.0265835438
 20
4.4871818045
 30
0.0
  0
VERTEX
  8
0
 10
86.4935714112
 20
3.43982983604
 30
0.0
  0
VERTEX
  8
0
 10
86.9698231375
 20
2.52998238322
 30
0.0
  0
VERTEX
  8
0
 10
87.4548936929
 20
1.7585555853
 30
0.0
  0
VERTEX
  8
0
 10
87.9483790605
 20
1.12632620369
 30
0.0
  0
VERTEX
  8
0
 10
88.4499196673
 20
0.633930839769
 30
0.0
  0
VERTEX
  8
0
 10
88.9592032569
 20
0.281865293937
 30
0.0
  0
VERTEX
  8
0
 10
89.4759671696
 20
0.070484066354
 30
0.0
  0
VERTEX
  8
0
 10
89.6063010307
 20
0.0396487429618
 30
0.0
  0
VERTEX
  8
0
 10
90.0
 20
0.0
 30
0.0
  0
VERTEX
  8
0
 10
90.3936989693
 20
0.0396487429618
 30
0.0
  0
VERTEX
  8
0
 10
90.5240328304
 20
0.070484066354
 30
0.0
  0
VERTEX
  8
0
 10
91.0407967431
 20
0.281865293937
 30
0.0
  0
VERTEX
  8
0
 10
91.5500803327
 20
0.633930839769
 30
0.0
  0
VERTEX
  8
0
 10
92.0516209395
 20
1.12632620369
 30
0.0
  0
VERTEX
  8
0
 10
92.5451063071
 20
1.7585555853
 30
0.0
  0
VERTEX
  8
0
 10
93.0301768625
 20
2.52998238322
 30
0.0
  0
VERTEX
  8
0
 10
93.5064285888
 20
3.43982983604
 30
0.0
  0
VERTEX
  8
0
 10
93.9734164562
 20
4.4871818045
 30
0.0
  0
VERTEX
  8
0
 10
94.4306583692
 20
5.67098369398
 30
0.0
  0
VERTEX
  8
0
 10
94.8776395806
 20
6.99004351626
 30
0.0
  0
VERTEX
  8
0
 10
95.3138175198
 20
8.44303308996
 30
0.0
  0
VERTEX
  8
0
 10
95.7386269748
 20
10.0284893778
 30
0.0
  0
VERTEX
  8
0
 10
96.1514855665
 20
11.7448159595
 30
0.0
  0
VERTEX
  8
0
 10
96.5517994485
 20
13.5902846399
 30
0.0
  0
VERTEX
  8
0
 10
96.9389691643
 20
15.5630371883
 30
0.0
  0
VERTEX
  8
0
 10
97.3123955924
 20
17.6610872102
 30
0.0
  0
VERTEX
  8
0
 10
97.6714859084
 20
19.8823221471
 30
0.0
  0
VERTEX
  8
0
 10
98.0156594964
 20
22.2245054036
 30
0.0
  0
VERTEX
  8
0
 10
98.3443537396
 20
24.6852785998
 30
0.0
  0
VERTEX
  8
0
 10
98.6570296257
 20
27.2621639457
 30
0.0
  0
VERTEX
  8
0
 10
98.9531771051
 20
29.9525667361
 30
0.0
  0
VERTEX
  8
0
 10
99.2323201413
 20
32.7537779635
 30
0.0
  0
VERTEX
  8
0
 10
99.494021403
 20
35.6629770454
 30
0.0
  0
VERTEX
  8
0
 10
99.7378865468
 20
38.6772346652
 30
0.0
  0
VERTEX
  8
0
 10
99.9635680504
 20
41.7935157212
 30
0.0
  0
VERTEX
  8
0
 10
100.170768559
 20
45.0086823819
 30
0.0
  0
VERTEX
  8
0
 10
100.359243718
 20
48.3194972476
 30
0.0
  0
VERTEX
  8
0
 10
100.528804468
 20
51.7226266082
 30
0.0
  0
VERTEX
  8
0
 10
100.679318789
 20
55.2146438007
 30
0.0
  0
VERTEX
  8
0
 10
100.810712889
 20
58.7920326599
 30
0.0
  0
VERTEX
  8
0
 10
100.922971833
 20
62.4511910588
 30
0.0
  0
VERTEX
  8
0
 10
101.016139624
 20
66.1884345346
 30
0.0
  0
VERTEX
  8
0
 10
101.09031875
 20
70.0
 30
0.0
  0
VERTEX
  8
0
 10
101.145669216
 20
73.8820495319
 30
0.0
  0
VERTEX
  8
0
 10
101.182407093
 20
77.8306742352
 30
0.0
  0
VERTEX
  8
0
 10
101.200802613
 20
81.8418981797
 30
0.0
  0
VERTEX
  8
0
 10
101.20117785
 20
85.9116824028
 30
0.0
  0
VERTEX
  8
0
 10
101.183904033
 20
90.0359289771
 30
0.0
  0
VERTEX
  8
0
 10
101.149398532
 20
94.2104851355
 30
0.0
  0
VERTEX
  8
0
 10
101.098121568
 20
98.4311474541
 30
0.0
  0
VERTEX
  8
0
 10
101.030572703
 20
102.693666083
 30
0.0
  0
VERTEX
  8
0
 10
100.947287159
 20
106.993749029
 30
0.0
  0
VERTEX
  8
0
 10
100.848832018
 20
111.327066471
 30
0.0
  0
VERTEX
  8
0
 10
100.735802357
 20
115.689255127
 30
0.0
  0
VERTEX
  8
0
 10
100.608817381
 20
120.075922642
 30
0.0
  0
VERTEX
  8
0
 10
100.468516579
 20
124.482652014
 30
0.0
  0
VERTEX
  8
0
 10
100.315555983
 20
128.90500604
 30
0.0
  0
VERTEX
  8
0
 10
100.15060454
 20
133.338531785
 30
0.0
  0
VERTEX
  8
0
 10
99.9743406721
 20
137.778765063
 30
0.0
  0
VERTEX
  8
0
 10
99.7874490324
 20
142.221234937
 30
0.0
  0
VERTEX
  8
0
 10
99.5906175023
 20
146.661468215
 30
0.0
  0
VERTEX
  8
0
 10
99.3845344554
 20
151.09499396
 30
0.0
  0
VERTEX
  8
0
 10
99.1698863046
 20
155.517347986
 30
0.0
  0
VERTEX
  8
0
 10
98.9473553505
 20
159.924077358
 30
0.0
  0
VERTEX
  8
0
 10
98.717617939
 20
164.310744873
 30
0.0
  0
VERTEX
  8
0
 10
98.4813429319
 20
168.672933529
 30
0.0
  0
VERTEX
  8
0
 10
98.2391904884
 20
173.006250971
 30
0.0
  0
VERTEX
  8
0
 10
97.9918111504
 20
177.306333917
 30
0.0
  0
VERTEX
  8
0
 10
97.7398452181
 20
181.568852546
 30
0.0
  0
VERTEX
  8
0
 10
97.4839223987
 20
185.789514865
 30
0.0
  0
VERTEX
  8
0
 10
97.2246617065
 20
189.964071023
 30
0.0
  0
VERTEX
  8
0
 10
96.9626715884
 20
194.088317597
 30
0.0
  0
VERTEX
  8
0
 10
96.6985502459
 20
198.15810182
 30
0.0
  0
VERTEX
  8
0
 10
96.4328861213
 20
202.169325765
 30
0.0
  0
VERTEX
  8
0
 10
96.1662585149
 20
206.117950468
 30
0.0
  0
VERTEX
  8
0
 10
95.899238297
 20
210.0
 30
0.0
  0
VERTEX
  8
0
 10
95.6323886797
 20
213.811565465
 30
0.0
  0
VERTEX
  8
0
 10
95.3662660113
 20
217.548808941
 30
0.0
  0
VERTEX
  8
0
 10
95.1014205585
 20
221.20796734
 30
0.0
  0
VERTEX
  8
0
 10
94.8383972416
 20
224.785356199
 30
0.0
  0
VERTEX
  8
0
 10
94.5777362904
 20
228.277373392
 30
0.0
  0
VERTEX
  8
0
 10
94.3199737907
 20
231.680502752
 30
0.0
  0
VERTEX
  8
0
 10
94.0656420953
 20
234.991317618
 30
0.0
  0
VERTEX
  8
0
 10
93.8152700737
 20
238.206484279
 30
0.0
  0
VERTEX
  8
0
 10
93.5693831829
 20
241.322765335
 30
0.0
  0
VERTEX
  8
0
 10
93.3285033423
 20
244.337022955
 30
0.0
  0
VERTEX
  8
0
 10
93.0931486021
 20
247.246222037
 30
0.0
  0
VERTEX
  8
0
 10
92.8638325979
 20
250.047433264
 30
0.0
  0
VERTEX
  8
0
 10
92.6410637901
 20
252.737836054
 30
0.0
  0
VERTEX
  8
0
 10
92.4253444894
 20
255.3147214
 30
0.0
  0
VERTEX
  8
0
 10
92.2171696777
 20
257.775494596
 30
0.0
  0
VERTEX
  8
0
 10
92.0170256331
 20
260.117677853
 30
0.0
  0
VERTEX
  8
0
 10
91.8253883775
 20
262.33891279
 30
0.0
  0
VERTEX
  8
0
 10
91.6427219639
 20
264.436962812
 30
0.0
  0
VERTEX
  8
0
 10
91.4694766279
 20
266.40971536
 30
0.0
  0
VERTEX
  8
0
 10
91.3060868288
 20
268.25518404
 30
0.0
  0
VERTEX
  8
0
 10
91.1529692087
 20
269.971510622
 30
0.0
  0
VERTEX
  8
0
 10
91.0105205003
 20
271.55696691
 30
0.0
  0
VERTEX
  8
0
 10
90.879115415
 20
273.009956484
 30
0.0
  0
VERTEX
  8
0
 10
90.7591045444
 20
274.329016306
 30
0.0
  0
VERTEX
  8
0
 10
90.650812308
 20
275.512818195
 30
0.0
  0
VERTEX
  8
0
 10
90.5545349792
 20
276.560170164
 30
0.0
  0
VERTEX
  8
0
 10
90.4705388218
 20
277.470017617
 30
0.0
  0
VERTEX
  8
0
 10
90.399058367
 20
278.241444415
 30
0.0
  0
VERTEX
  8
0
 10
90.3402948579
 20
278.873673796
 30
0.0
  0
VERTEX
  8
0
 10
90.294414888
 20
279.36606916
 30
0.0
  0
VERTEX
  8
0
 10
90.2615492556
 20
279.718134706
 30
0.0
  0
VERTEX
  8
0
 10
90.241792052
 20
279.929515934
 30
0.0
  0
VERTEX
  8
0
 10
90.2352
 20
280.0
 30
0.0
  0
SEQEND
  0
POLYLINE
  6
CONTINUOUS
  8
0
 66
1
 10
0.0
 20
0.0
 30
0.0
 70
8
  0
VERTEX
  8
0
 10
135.0
 20
270.0
 30
0.0
  0
VERTEX
  8
0
 10
134.766843378
 20
269.932033222
 30
0.0
  0
VERTEX
  8
0
 10
134.747791789
 20
269.728201324
 30
0.0
  0
VERTEX
  8
0
 10
134.716099929
 20
269.388709547
 30
0.0
  0
VERTEX
  8
0
 10
134.67185853
 20
268.913899732
 30
0.0
  0
VERTEX
  8
0
 10
134.615193718
 20
268.304249971
 30
0.0
  0
VERTEX
  8
0
 10
134.546266136
 20
267.56037413
 30
0.0
  0
VERTEX
  8
0
 10
134.465269841
 20
266.68302123
 30
0.0
  0
VERTEX
  8
0
 10
134.372430989
 20
265.673074688
 30
0.0
  0
VERTEX
  8
0
 10
134.268006332
 20
264.531551438
 30
0.0
  0
VERTEX
  8
0
 10
134.152281564
 20
263.259600895
 30
0.0
  0
VERTEX
  8
0
 10
134.025569518
 20
261.858503806
 30
0.0
  0
VERTEX
  8
0
 10
133.888208263
 20
260.329670957
 30
0.0
  0
VERTEX
  8
0
 10
133.740559129
 20
258.674641753
 30
0.0
  0
VERTEX
  8
0
 10
133.58300468
 20
256.895082669
 30
0.0
  0
VERTEX
  8
0
 10
133.415946678
 20
254.992785568
 30
0.0
  0
VERTEX
  8
0
 10
133.239804065
 20
252.969665904
 30
0.0
  0
VERTEX
  8
0
 10
133.055010997
 20
250.827760787
 30
0.0
  0
VERTEX
  8
0
 10
132.862014954
 20
248.569226932
 30
0.0
  0
VERTEX
  8
0
 10
132.661274957
 20
246.196338493
 30
0.0
  0
VERTEX
  8
0
 10
132.453259917
 20
243.711484767
 30
0.0
  0
VERTEX
  8
0
 10
132.238447138
 20
241.11716779
 30
0.0
  0
VERTEX
  8
0
 10
132.017320991
 20
238.415999821
 30
0.0
  0
VERTEX
  8
0
 10
131.790371777
 20
235.610700706
 30
0.0
  0
VERTEX
  8
0
 10
131.558094788
 20
232.704095144
 30
0.0
  0
VERTEX
  8
0
 10
131.320989572
 20
229.69910984
 30
0.0
  0
VERTEX
  8
0
 10
131.079559408
 20
226.59877056
 30
0.0
  0
VERTEX
  8
0
 10
130.834310988
 20
223.406199083
 30
0.0
  0
VERTEX
  8
0
 10
130.585754291
 20
220.124610056
 30
0.0
  0
VERTEX
  8
0
 10
130.33440266
 20
216.757307764
 30
0.0
  0
VERTEX
  8
0
 10
130.080773033
 20
213.307682792
 30
0.0
  0
VERTEX
  8
0
 10
129.825386346
 20
209.779208622
 30
0.0
  0
VERTEX
  8
0
 10
129.568768059
 20
206.175438127
 30
0.0
  0
VERTEX
  8
0
 10
129.311448785
 20
202.5
 30
0.0
  0
VERTEX
  8
0
 10
129.053965003
 20
198.756595094
 30
0.0
  0
VERTEX
  8
0
 10
128.796859812
 20
194.948992702
 30
0.0
  0
VERTEX
  8
0
 10
128.540683691
 20
191.081026755
 30
0.0
  0
VERTEX
  8
0
 10
128.285995254
 20
187.156591969
 30
0.0
  0
VERTEX
  8
0
 10
128.033361926
 20
183.179639915
 30
0.0
  0
VERTEX
  8
0
 10
127.783360544
 20
179.154175048
 30
0.0
  0
VERTEX
  8
0
 10
127.536577825
 20
175.084250669
 30
0.0
  0
VERTEX
  8
0
 10
127.293610676
 20
170.973964848
 30
0.0
  0
VERTEX
  8
0
 10
127.055066315
 20
166.827456294
 30
0.0
  0
VERTEX
  8
0
 10
126.821562173
 20
162.648900189
 30
0.0
  0
VERTEX
  8
0
 10
126.593725559
 20
158.442503985
 30
0.0
  0
VERTEX
  8
0
 10
126.372193055
 20
154.212503167
 30
0.0
  0
VERTEX
  8
0
 10
126.157609635
 20
149.963156987
 30
0.0
  0
VERTEX
  8
0
 10
125.950627489
 20
145.698744176
 30
0.0
  0
VERTEX
  8
0
 10
125.751904551
 20
141.423558636
 30
0.0
  0
VERTEX
  8
0
 10
125.562102719
 20
137.141905118
 30
0.0
  0
VERTEX
  8
0
 10
125.38188578
 20
132.858094882
 30
0.0
  0
VERTEX
  8
0
 10
125.211917051
 20
128.576441364
 30
0.0
  0
VERTEX
  8
0
 10
125.052856731
 20
124.301255824
 30
0.0
  0
VERTEX
  8
0
 10
124.905359013
 20
120.036843013
 30
0.0
  0
VERTEX
  8
0
 10
124.770068954
 20
115.787496833
 30
0.0
  0
VERTEX
  8
0
 10
124.647619156
 20
111.557496015
 30
0.0
  0
VERTEX
  8
0
 10
124.538626269
 20
107.351099811
 30
0.0
  0
VERTEX
  8
0
 10
124.443687382
 20
103.172543706
 30
0.0
  0
VERTEX
  8
0
 10
124.363376322
 20
99.0260351518
 30
0.0
  0
VERTEX
  8
0
 10
124.298239917
 20
94.9157493307
 30
0.0
  0
VERTEX
  8
0
 10
124.248794273
 20
90.8458249521
 30
0.0
  0
VERTEX
  8
0
 10
124.215521111
 20
86.8203600851
 30
0.0
  0
VERTEX
  8
0
 10
124.198864216
 20
82.8434080313
 30
0.0
  0
VERTEX
  8
0
 10
124.199226052
 20
78.9189732447
 30
0.0
  0
VERTEX
  8
0
 10
124.216964589
 20
75.0510072982
 30
0.0
  0
VERTEX
  8
0
 10
124.252390399
 20
71.2434049058
 30
0.0
  0
VERTEX
  8
0
 10
124.305764063
 20
67.5
 30
0.0
  0
VERTEX
  8
0
 10
124.377293934
 20
63.8245618727
 30
0.0
  0
VERTEX
  8
0
 10
124.467134304
 20
60.2207913781
 30
0.0
  0
VERTEX
  8
0
 10
124.575384
 20
56.6923172078
 30
0.0
  0
VERTEX
  8
0
 10
124.702085453
 20
53.2426922364
 30
0.0
  0
VERTEX
  8
0
 10
124.847224263
 20
49.8753899437
 30
0.0
  0
VERTEX
  8
0
 10
125.010729272
 20
46.5938009173
 30
0.0
  0
VERTEX
  8
0
 10
125.192473175
 20
43.4012294397
 30
0.0
  0
VERTEX
  8
0
 10
125.392273666
 20
40.3008901597
 30
0.0
  0
VERTEX
  8
0
 10
125.609895116
 20
37.2959048557
 30
0.0
  0
VERTEX
  8
0
 10
125.84505079
 20
34.3892992937
 30
0.0
  0
VERTEX
  8
0
 10
126.097405578
 20
31.5840001791
 30
0.0
  0
VERTEX
  8
0
 10
126.36657922
 20
28.8828322098
 30
0.0
  0
VERTEX
  8
0
 10
126.652150004
 20
26.2885152333
 30
0.0
  0
VERTEX
  8
0
 10
126.953658894
 20
23.803661507
 30
0.0
  0
VERTEX
  8
0
 10
127.270614057
 20
21.4307730678
 30
0.0
  0
VERTEX
  8
0
 10
127.602495731
 20
19.1722392133
 30
0.0
  0
VERTEX
  8
0
 10
127.948761393
 20
17.0303340956
 30
0.0
  0
VERTEX
  8
0
 10
128.308851163
 20
15.0072144316
 30
0.0
  0
VERTEX
  8
0
 10
128.682193389
 20
13.1049173313
 30
0.0
  0
VERTEX
  8
0
 10
129.068210347
 20
11.3253582467
 30
0.0
  0
VERTEX
  8
0
 10
129.466323989
 20
9.67032904284
 30
0.0
  0
VERTEX
  8
0
 10
129.875961677
 20
8.14149619389
 30
0.0
  0
VERTEX
  8
0
 10
130.296561833
 20
6.74039910497
 30
0.0
  0
VERTEX
  8
0
 10
130.72757943
 20
5.46844856206
 30
0.0
  0
VERTEX
  8
0
 10
131.168491274
 20
4.32692531149
 30
0.0
  0
VERTEX
  8
0
 10
131.618801004
 20
3.31697877047
 30
0.0
  0
VERTEX
  8
0
 10
132.07804374
 20
2.43962586954
 30
0.0
  0
VERTEX
  8
0
 10
132.545790347
 20
1.69575002869
 30
0.0
  0
VERTEX
  8
0
 10
133.021651237
 20
1.08610026784
 30
0.0
  0
VERTEX
  8
0
 10
133.505279679
 20
0.611290452634
 30
0.0
  0
VERTEX
  8
0
 10
133.996374569
 20
0.271798676296
 30
0.0
  0
VERTEX
  8
0
 10
134.494682628
 20
0.0679667782699
 30
0.0
  0
VERTEX
  8
0
 10
134.620361708
 20
0.0382327164274
 30
0.0
  0
VERTEX
  8
0
 10
135.0
 20
0.0
 30
0.0
  0
VERTEX
  8
0
 10
135.379638292
 20
0.0382327164274
 30
0.0
  0
VERTEX
  8
0
 10
135.505317372
 20
0.0679667782699
 30
0.0
  0
VERTEX
  8
0
 10
136.003625431
 20
0.271798676296
 30
0.0
  0
VERTEX
  8
0
 10
136.494720321
 20
0.611290452634
 30
0.0
  0
VERTEX
  8
0
 10
136.978348763
 20
1.08610026784
 30
0.0
  0
VERTEX
  8
0
 10
137.454209653
 20
1.69575002869
 30
0.0
  0
VERTEX
  8
0
 10
137.92195626
 20
2.43962586954
 30
0.0
  0
VERTEX
  8
0
 10
138.381198996
 20
3.31697877047
 30
0.0
  0
VERTEX
  8
0
 10
138.831508726
 20
4.32692531149
 30
0.0
  0
VERTEX
  8
0
 10
139.27242057
 20
5.46844856206
 30
0.0
  0
VERTEX
  8
0
 10
139.703438167
 20
6.74039910497
 30
0.0
  0
VERTEX
  8
0
 10
140.124038323
 20
8.14149619389
 30
0.0
  0
VERTEX
  8
0
 10
140.533676011
 20
9.67032904284
 30
0.0
  0
VERTEX
  8
0
 10
140.931789653
 20
11.3253582467
 30
0.0
  0
VERTEX
  8
0
 10
141.317806611
 20
13.1049173313
 30
0.0
  0
VERTEX
  8
0
 10
141.691148837
 20
15.0072144316
 30
0.0
  0
VERTEX
  8
0
 10
142.051238607
 20
17.0303340956
 30
0.0
  0
VERTEX
  8
0
 10
142.397504269
 20
19.1722392133
 30
0.0
  0
VERTEX
  8
0
 10
142.729385943
 20
21.4307730678
 30
0.0
  0
VERTEX
  8
0
 10
143.046341106
 20
23.803661507
 30
0.0
  0
VERTEX
  8
0
 10
143.347849996
 20
26.2885152333
 30
0.0
  0
VERTEX
  8
0
 10
143.63342078
 20
28.8828322098
 30
0.0
  0
VERTEX
  8
0
 10
143.902594422
 20
31.5840001791
 30
0.0
  0
VERTEX
  8
0
 10
144.15494921
 20
34.3892992937
 30
0.0
  0
VERTEX
  8
0
 10
144.390104884
 20
37.2959048557
 30
0.0
  0
VERTEX
  8
0
 10
144.607726334
 20
40.3008901597
 30
0.0
  0
VERTEX
  8
0
 10
144.807526825
 20
43.4012294397
 30
0.0
  0
VERTEX
  8
0
 10
144.989270728
 20
46.5938009173
 30
0.0
  0
VERTEX
  8
0
 10
145.152775737
 20
49.8753899437
 30
0.0
  0
VERTEX
  8
0
 10
145.297914547
 20
53.2426922364
 30
0.0
  0
VERTEX
  8
0
 10
145.424616
 20
56.6923172078
 30
0.0
  0
VERTEX
  8
0
 10
145.532865696
 20
60.2207913781
 30
0.0
  0
VERTEX
  8
0
 10
145.622706066
 20
63.8245618727
 30
0.0
  0
VERTEX
  8
0
 10
145.694235937
 20
67.5
 30
0.0
  0
VERTEX
  8
0
 10
145.747609601
 20
71.2434049058
 30
0.0
  0
VERTEX
  8
0
 10
145.783035411
 20
75.0510072982
 30
0.0
  0
VERTEX
  8
0
 10
145.800773948
 20
78.9189732447
 30
0.0
  0
VERTEX
  8
0
 10
145.801135784
 20
82.8434080313
 30
0.0
  0
VERTEX
  8
0
 10
145.784478889
 20
86.8203600851
 30
0.0
  0
VERTEX
  8
0
 10
145.751205727
 20
90.8458249521
 30
0.0
  0
VERTEX
  8
0
 10
145.701760083
 20
94.9157493307
 30
0.0
  0
VERTEX
  8
0
 10
145.636623678
 20
99.0260351518
 30
0.0
  0
VERTEX
  8
0
 10
145.556312618
 20
103.172543706
 30
0.0
  0
VERTEX
  8
0
 10
145.461373731
 20
107.351099811
 30
0.0
  0
VERTEX
  8
0
 10
145.352380844
 20
111.557496015
 30
0.0
  0
VERTEX
  8
0
 10
145.229931046
 20
115.787496833
 30
0.0
  0
VERTEX
  8
0
 10
145.094640987
 20
120.036843013
 30
0.0
  0
VERTEX
  8
0
 10
144.947143269
 20
124.301255824
 30
0.0
  0
VERTEX
  8
0
 10
144.788082949
 20
128.576441364
 30
0.0
  0
VERTEX
  8
0
 10
144.61811422
 20
132.858094882
 30
0.0
  0
VERTEX
  8
0
 10
144.437897281
 20
137.141905118
 30
0.0
  0
VERTEX
  8
0
 10
144.248095449
 20
141.423558636
 30
0.0
  0
VERTEX
  8
0
 10
144.049372511
 20
145.698744176
 30
0.0
  0
VERTEX
  8
0
 10
143.842390365
 20
149.963156987
 30
0.0
  0
VERTEX
  8
0
 10
143.627806945
 20
154.212503167
 30
0.0
  0
VERTEX
  8
0
 10
143.406274441
 20
158.442503985
 30
0.0
  0
VERTEX
  8
0
 10
143.178437827
 20
162.648900189
 30
0.0
  0
VERTEX
  8
0
 10
142.944933685
 20
166.827456294
 30
0.0
  0
VERTEX
  8
0
 10
142.706389324
 20
170.973964848
 30
0.0
  0
VERTEX
  8
0
 10
142.463422175
 20
175.084250669
 30
0.0
  0
VERTEX
  8
0
 10
142.216639456
 20
179.154175048
 30
0.0
  0
VERTEX
  8
0
 10
141.966638074
 20
183.179639915
 30
0.0
  0
VERTEX
  8
0
 10
141.714004746
 20
187.156591969
 30
0.0
  0
VERTEX
  8
0
 10
141.459316309
 20
191.081026755
 30
0.0
  0
VERTEX
  8
0
 10
141.203140188
 20
194.948992702
 30
0.0
  0
VERTEX
  8
0
 10
140.946034997
 20
198.756595094
 30
0.0
  0
VERTEX
  8
0
 10
140.688551215
 20
202.5
 30
0.0
  0
VERTEX
  8
0
 10
140.431231941
 20
206.175438127
 30
0.0
  0
VERTEX
  8
0
 10
140.174613654
 20
209.779208622
 30
0.0
  0
VERTEX
  8
0
 10
139.919226967
 20
213.307682792
 30
0.0
  0
VERTEX
  8
0
 10
139.66559734
 20
216.757307764
 30
0.0
  0
VERTEX
  8
0
 10
139.414245709
 20
220.124610056
 30
0.0
  0
VERTEX
  8
0
 10
139.165689012
 20
223.406199083
 30
0.0
  0
VERTEX
  8
0
 10
138.920440592
 20
226.59877056
 30
0.0
  0
VERTEX
  8
0
 10
138.679010428
 20
229.69910984
 30
0.0
  0
VERTEX
  8
0
 10
138.441905212
 20
232.704095144
 30
0.0
  0
VERTEX
  8
0
 10
138.209628223
 20
235.610700706
 30
0.0
  0
VERTEX
  8
0
 10
137.982679009
 20
238.415999821
 30
0.0
  0
VERTEX
  8
0
 10
137.761552862
 20
241.11716779
 30
0.0
  0
VERTEX
  8
0
 10
137.546740083
 20
243.711484767
 30
0.0
  0
VERTEX
  8
0
 10
137.338725043
 20
246.196338493
 30
0.0
  0
VERTEX
  8
0
 10
137.137985046
 20
248.569226932
 30
0.0
  0
VERTEX
  8
0
 10
136.944989003
 20
250.827760787
 30
0.0
  0
VERTEX
  8
0
 10
136.760195935
 20
252.969665904
 30
0.0
  0
VERTEX
  8
0
 10
136.584053322
 20
254.992785568
 30
0.0
  0
VERTEX
  8
0
 10
136.41699532
 20
256.895082669
 30
0.0
  0
VERTEX
  8
0
 10
136.259440871
 20
258.674641753
 30
0.0
  0
VERTEX
  8
0
 10
136.111791737
 20
260.329670957
 30
0.0
  0
VERTEX
  8
0
 10
135.974430482
 20
261.858503806
 30
0.0
  0
VERTEX
  8
0
 10
135.847718436
 20
263.259600895
 30
0.0
  0
VERTEX
  8
0
 10
135.731993668
 20
264.531551438
 30
0.0
  0
VERTEX
  8
0
 10
135.627569011
 20
265.673074688
 30
0.0
  0
VERTEX
  8
0
 10
135.534730159
 20
266.68302123
 30
0.0
  0
VERTEX
  8
0
 10
135.453733864
 20
267.56037413
 30
0.0
  0
VERTEX
  8
0
 10
135.384806282
 20
268.304249971
 30
0.0
  0
VERTEX
  8
0
 10
135.32814147
 20
268.913899732
 30
0.0
  0
VERTEX
  8
0
 10
135.283900071
 20
269.388709547
 30
0.0
  0
VERTEX
  8
0
 10
135.252208211
 20
269.728201324
 30
0.0
  0
VERTEX
  8
0
 10
135.233156622
 20
269.932033222
 30
0.0
  0
VERTEX
  8
0
 10
135.2268
 20
270.0
 30
0.0
  0
SEQEND
  0
POLYLINE
  6
CONTINUOUS
  8
0
 66
1
 10
0.0
 20
0.0
 30
0.0
 70
8
  0
VERTEX
  8
0
 10
180.0
 20
260.0
 30
0.0
  0
VERTEX
  8
0
 10
179.775478809
 20
259.93455051
 30
0.0
  0
VERTEX
  8
0
 10
179.757132834
 20
259.738267941
 30
0.0
  0
VERTEX
  8
0
 10
179.726614747
 20
259.411349935
 30
0.0
  0
VERTEX
  8
0
 10
179.684011918
 20
258.954125668
 30
0.0
  0
VERTEX
  8
0
 10
179.629445802
 20
258.367055528
 30
0.0
  0
VERTEX
  8
0
 10
179.563071094
 20
257.650730644
 30
0.0
  0
VERTEX
  8
0
 10
179.485074662
 20
256.805872295
 30
0.0
  0
VERTEX
  8
0
 10
179.395674285
 20
255.833331181
 30
0.0
  0
VERTEX
  8
0
 10
179.295117209
 20
254.73408657
 30
0.0
  0
VERTEX
  8
0
 10
179.183678543
 20
253.509245306
 30
0.0
  0
VERTEX
  8
0
 10
179.061659535
 20
252.160040702
 30
0.0
  0
VERTEX
  8
0
 10
178.929385735
 20
250.687831292
 30
0.0
  0
VERTEX
  8
0
 10
178.787205088
 20
249.094099466
 30
0.0
  0
VERTEX
  8
0
 10
178.635485988
 20
247.380449977
 30
0.0
  0
VERTEX
  8
0
 10
178.474615319
 20
245.548608325
 30
0.0
  0
VERTEX
  8
0
 10
178.304996507
 20
243.600419019
 30
0.0
  0
VERTEX
  8
0
 10
178.127047626
 20
241.53784372
 30
0.0
  0
VERTEX
  8
0
 10
177.941199585
 20
239.362959268
 30
0.0
  0
VERTEX
  8
0
 10
177.747894403
 20
237.077955586
 30
0.0
  0
VERTEX
  8
0
 10
177.547583623
 20
234.685133479
 30
0.0
  0
VERTEX
  8
0
 10
177.340726873
 20
232.186902316
 30
0.0
  0
VERTEX
  8
0
 10
177.127790584
 20
229.585777605
 30
0.0
  0
VERTEX
  8
0
 10
176.909246896
 20
226.884378458
 30
0.0
  0
VERTEX
  8
0
 10
176.685572759
 20
224.085424954
 30
0.0
  0
VERTEX
  8
0
 10
176.457249217
 20
221.191735402
 30
0.0
  0
VERTEX
  8
0
 10
176.224760911
 20
218.206223503
 30
0.0
  0
VERTEX
  8
0
 10
175.988595766
 20
215.131895413
 30
0.0
  0
VERTEX
  8
0
 10
175.749244873
 20
211.971846721
 30
0.0
  0
VERTEX
  8
0
 10
175.507202561
 20
208.729259328
 30
0.0
  0
VERTEX
  8
0
 10
175.262966624
 20
205.407398244
 30
0.0
  0
VERTEX
  8
0
 10
175.017038704
 20
202.009608303
 30
0.0
  0
VERTEX
  8
0
 10
174.769924797
 20
198.539310789
 30
0.0
  0
VERTEX
  8
0
 10
174.522135867
 20
195.0
 30
0.0
  0
VERTEX
  8
0
 10
174.274188522
 20
191.39523972
 30
0.0
  0
VERTEX
  8
0
 10
174.026605744
 20
187.728659639
 30
0.0
  0
VERTEX
  8
0
 10
173.779917629
 20
184.00395169
 30
0.0
  0
VERTEX
  8
0
 10
173.534662096
 20
180.22486634
 30
0.0
  0
VERTEX
  8
0
 10
173.291385558
 20
176.395208807
 30
0.0
  0
VERTEX
  8
0
 10
173.050643487
 20
172.518835231
 30
0.0
  0
VERTEX
  8
0
 10
172.813000869
 20
168.599648793
 30
0.0
  0
VERTEX
  8
0
 10
172.579032503
 20
164.64159578
 30
0.0
  0
VERTEX
  8
0
 10
172.349323118
 20
160.648661616
 30
0.0
  0
VERTEX
  8
0
 10
172.124467278
 20
156.624866849
 30
0.0
  0
VERTEX
  8
0
 10
171.905069057
 20
152.574263097
 30
0.0
  0
VERTEX
  8
0
 10
171.69174146
 20
148.500928976
 30
0.0
  0
VERTEX
  8
0
 10
171.485105574
 20
144.408965987
 30
0.0
  0
VERTEX
  8
0
 10
171.285789434
 20
140.302494391
 30
0.0
  0
VERTEX
  8
0
 10
171.094426605
 20
136.185649057
 30
0.0
  0
VERTEX
  8
0
 10
170.91165447
 20
132.062575298
 30
0.0
  0
VERTEX
  8
0
 10
170.738112233
 20
127.937424702
 30
0.0
  0
VERTEX
  8
0
 10
170.574438642
 20
123.814350943
 30
0.0
  0
VERTEX
  8
0
 10
170.421269445
 20
119.697505609
 30
0.0
  0
VERTEX
  8
0
 10
170.279234605
 20
115.591034013
 30
0.0
  0
VERTEX
  8
0
 10
170.148955289
 20
111.499071024
 30
0.0
  0
VERTEX
  8
0
 10
170.031040668
 20
107.425736903
 30
0.0
  0
VERTEX
  8
0
 10
169.926084555
 20
103.375133151
 30
0.0
  0
VERTEX
  8
0
 10
169.834661923
 20
99.3513383837
 30
0.0
  0
VERTEX
  8
0
 10
169.757325347
 20
95.3584042203
 30
0.0
  0
VERTEX
  8
0
 10
169.694601401
 20
91.4003512074
 30
0.0
  0
VERTEX
  8
0
 10
169.646987077
 20
87.4811647687
 30
0.0
  0
VERTEX
  8
0
 10
169.614946255
 20
83.604791193
 30
0.0
  0
VERTEX
  8
0
 10
169.598906282
 20
79.7751336598
 30
0.0
  0
VERTEX
  8
0
 10
169.599254717
 20
75.9960483097
 30
0.0
  0
VERTEX
  8
0
 10
169.616336271
 20
72.2713403612
 30
0.0
  0
VERTEX
  8
0
 10
169.650450014
 20
68.6047602796
 30
0.0
  0
VERTEX
  8
0
 10
169.701846875
 20
65.0
 30
0.0
  0
VERTEX
  8
0
 10
169.770727492
 20
61.4606892107
 30
0.0
  0
VERTEX
  8
0
 10
169.857240441
 20
57.9903916974
 30
0.0
  0
VERTEX
  8
0
 10
169.961480889
 20
54.5926017556
 30
0.0
  0
VERTEX
  8
0
 10
170.083489696
 20
51.2707406721
 30
0.0
  0
VERTEX
  8
0
 10
170.223252994
 20
48.0281532791
 30
0.0
  0
VERTEX
  8
0
 10
170.380702262
 20
44.868104587
 30
0.0
  0
VERTEX
  8
0
 10
170.555714909
 20
41.7937764975
 30
0.0
  0
VERTEX
  8
0
 10
170.748115382
 20
38.8082645982
 30
0.0
  0
VERTEX
  8
0
 10
170.957676778
 20
35.9145750462
 30
0.0
  0
VERTEX
  8
0
 10
171.184122983
 20
33.1156215421
 30
0.0
  0
VERTEX
  8
0
 10
171.427131297
 20
30.4142223947
 30
0.0
  0
VERTEX
  8
0
 10
171.686335545
 20
27.8130976835
 30
0.0
  0
VERTEX
  8
0
 10
171.961329633
 20
25.314866521
 30
0.0
  0
VERTEX
  8
0
 10
172.251671528
 20
22.9220444141
 30
0.0
  0
VERTEX
  8
0
 10
172.55688761
 20
20.6370407319
 30
0.0
  0
VERTEX
  8
0
 10
172.876477371
 20
18.4621562794
 30
0.0
  0
VERTEX
  8
0
 10
173.209918379
 20
16.3995809809
 30
0.0
  0
VERTEX
  8
0
 10
173.55667149
 20
14.4513916749
 30
0.0
  0
VERTEX
  8
0
 10
173.916186226
 20
12.6195500227
 30
0.0
  0
VERTEX
  8
0
 10
174.28790626
 20
10.9059005338
 30
0.0
  0
VERTEX
  8
0
 10
174.671274952
 20
9.31216870792
 30
0.0
  0
VERTEX
  8
0
 10
175.065740874
 20
7.83995929782
 30
0.0
  0
VERTEX
  8
0
 10
175.470763247
 20
6.49075469367
 30
0.0
  0
VERTEX
  8
0
 10
175.885817229
 20
5.26591343013
 30
0.0
  0
VERTEX
  8
0
 10
176.310399005
 20
4.16666881847
 30
0.0
  0
VERTEX
  8
0
 10
176.744030596
 20
3.1941277049
 30
0.0
  0
VERTEX
  8
0
 10
177.186264342
 20
2.34926935585
 30
0.0
  0
VERTEX
  8
0
 10
177.636687001
 20
1.63294447207
 30
0.0
  0
VERTEX
  8
0
 10
178.094923413
 20
1.045874332
 30
0.0
  0
VERTEX
  8
0
 10
178.560639691
 20
0.5886500655
 30
0.0
  0
VERTEX
  8
0
 10
179.033545881
 20
0.261732058656
 30
0.0
  0
VERTEX
  8
0
 10
179.513398086
 20
0.0654494901858
 30
0.0
  0
VERTEX
  8
0
 10
179.634422386
 20
0.0368166898931
 30
0.0
  0
VERTEX
  8
0
 10
180.0
 20
0.0
 30
0.0
  0
VERTEX
  8
0
 10
180.365577614
 20
0.0368166898931
 30
0.0
  0
VERTEX
  8
0
 10
180.486601914
 20
0.0654494901858
 30
0.0
  0
VERTEX
  8
0
 10
180.966454119
 20
0.261732058656
 30
0.0
  0
VERTEX
  8
0
 10
181.439360309
 20
0.5886500655
 30
0.0
  0
VERTEX
  8
0
 10
181.905076587
 20
1.045874332
 30
0.0
  0
VERTEX
  8
0
 10
182.363312999
 20
1.63294447207
 30
0.0
  0
VERTEX
  8
0
 10
182.813735658
 20
2.34926935585
 30
0.0
  0
VERTEX
  8
0
 10
183.255969404
 20
3.1941277049
 30
0.0
  0
VERTEX
  8
0
 10
183.689600995
 20
4.16666881847
 30
0.0
  0
VERTEX
  8
0
 10
184.114182771
 20
5.26591343013
 30
0.0
  0
VERTEX
  8
0
 10
184.529236753
 20
6.49075469367
 30
0.0
  0
VERTEX
  8
0
 10
184.934259126
 20
7.83995929782
 30
0.0
  0
VERTEX
  8
0
 10
185.328725048
 20
9.31216870792
 30
0.0
  0
VERTEX
  8
0
 10
185.71209374
 20
10.9059005338
 30
0.0
  0
VERTEX
  8
0
 10
186.083813774
 20
12.6195500227
 30
0.0
  0
VERTEX
  8
0
 10
186.44332851
 20
14.4513916749
 30
0.0
  0
VERTEX
  8
0
 10
186.790081621
 20
16.3995809809
 30
0.0
  0
VERTEX
  8
0
 10
187.123522629
 20
18.4621562794
 30
0.0
  0
VERTEX
  8
0
 10
187.44311239
 20
20.6370407319
 30
0.0
  0
VERTEX
  8
0
 10
187.748328472
 20
22.9220444141
 30
0.0
  0
VERTEX
  8
0
 10
188.038670367
 20
25.314866521
 30
0.0
  0
VERTEX
  8
0
 10
188.313664455
 20
27.8130976835
 30
0.0
  0
VERTEX
  8
0
 10
188.572868703
 20
30.4142223947
 30
0.0
  0
VERTEX
  8
0
 10
188.815877017
 20
33.1156215421
 30
0.0
  0
VERTEX
  8
0
 10
189.042323222
 20
35.9145750462
 30
0.0
  0
VERTEX
  8
0
 10
189.251884618
 20
38.8082645982
 30
0.0
  0
VERTEX
  8
0
 10
189.444285091
 20
41.7937764975
 30
0.0
  0
VERTEX
  8
0
 10
189.619297738
 20
44.868104587
 30
0.0
  0
VERTEX
  8
0
 10
189.776747006
 20
48.0281532791
 30
0.0
  0
VERTEX
  8
0
 10
189.916510304
 20
51.2707406721
 30
0.0
  0
VERTEX
  8
0
 10
190.038519111
 20
54.5926017556
 30
0.0
  0
VERTEX
  8
0
 10
190.142759559
 20
57.9903916974
 30
0.0
  0
VERTEX
  8
0
 10
190.229272508
 20
61.4606892107
 30
0.0
  0
VERTEX
  8
0
 10
190.298153125
 20
65.0
 30
0.0
  0
VERTEX
  8
0
 10
190.349549986
 20
68.6047602796
 30
0.0
  0
VERTEX
  8
0
 10
190.383663729
 20
72.2713403612
 30
0.0
  0
VERTEX
  8
0
 10
190.400745283
 20
75.9960483097
 30
0.0
  0
VERTEX
  8
0
 10
190.401093718
 20
79.7751336598
 30
0.0
  0
VERTEX
  8
0
 10
190.385053745
 20
83.604791193
 30
0.0
  0
VERTEX
  8
0
 10
190.353012923
 20
87.4811647687
 30
0.0
  0
VERTEX
  8
0
 10
190.305398599
 20
91.4003512074
 30
0.0
  0
VERTEX
  8
0
 10
190.242674653
 20
95.3584042203
 30
0.0
  0
VERTEX
  8
0
 10
190.165338077
 20
99.3513383837
 30
0.0
  0
VERTEX
  8
0
 10
190.073915445
 20
103.375133151
 30
0.0
  0
VERTEX
  8
0
 10
189.968959332
 20
107.425736903
 30
0.0
  0
VERTEX
  8
0
 10
189.851044711
 20
111.499071024
 30
0.0
  0
VERTEX
  8
0
 10
189.720765395
 20
115.591034013
 30
0.0
  0
VERTEX
  8
0
 10
189.578730555
 20
119.697505609
 30
0.0
  0
VERTEX
  8
0
 10
189.425561358
 20
123.814350943
 30
0.0
  0
VERTEX
  8
0
 10
189.261887767
 20
127.937424702
 30
0.0
  0
VERTEX
  8
0
 10
189.08834553
 20
132.062575298
 30
0.0
  0
VERTEX
  8
0
 10
188.905573395
 20
136.185649057
 30
0.0
  0
VERTEX
  8
0
 10
188.714210566
 20
140.302494391
 30
0.0
  0
VERTEX
  8
0
 10
188.514894426
 20
144.408965987
 30
0.0
  0
VERTEX
  8
0
 10
188.30825854
 20
148.500928976
 30
0.0
  0
VERTEX
  8
0
 10
188.094930943
 20
152.574263097
 30
0.0
  0
VERTEX
  8
0
 10
187.875532722
 20
156.624866849
 30
0.0
  0
VERTEX
  8
0
 10
187.650676882
 20
160.648661616
 30
0.0
  0
VERTEX
  8
0
 10
187.420967497
 20
164.64159578
 30
0.0
  0
VERTEX
  8
0
 10
187.186999131
 20
168.599648793
 30
0.0
  0
VERTEX
  8
0
 10
186.949356513
 20
172.518835231
 30
0.0
  0
VERTEX
  8
0
 10
186.708614442
 20
176.395208807
 30
0.0
  0
VERTEX
  8
0
 10
186.465337904
 20
180.22486634
 30
0.0
  0
VERTEX
  8
0
 10
186.220082371
 20
184.00395169
 30
0.0
  0
VERTEX
  8
0
 10
185.973394256
 20
187.728659639
 30
0.0
  0
VERTEX
  8
0
 10
185.725811478
 20
191.39523972
 30
0.0
  0
VERTEX
  8
0
 10
185.477864133
 20
195.0
 30
0.0
  0
VERTEX
  8
0
 10
185.230075203
 20
198.539310789
 30
0.0
  0
VERTEX
  8
0
 10
184.982961296
 20
202.009608303
 30
0.0
  0
VERTEX
  8
0
 10
184.737033376
 20
205.407398244
 30
0.0
  0
VERTEX
  8
0
 10
184.492797439
 20
208.729259328
 30
0.0
  0
VERTEX
  8
0
 10
184.250755127
 20
211.971846721
 30
0.0
  0
VERTEX
  8
0
 10
184.011404234
 20
215.131895413
 30
0.0
  0
VERTEX
  8
0
 10
183.775239089
 20
218.206223503
 30
0.0
  0
VERTEX
  8
0
 10
183.542750783
 20
221.191735402
 30
0.0
  0
VERTEX
  8
0
 10
183.314427241
 20
224.085424954
 30
0.0
  0
VERTEX
  8
0
 10
183.090753104
 20
226.884378458
 30
0.0
  0
VERTEX
  8
0
 10
182.872209416
 20
229.585777605
 30
0.0
  0
VERTEX
  8
0
 10
182.659273127
 20
232.186902316
 30
0.0
  0
VERTEX
  8
0
 10
182.452416377
 20
234.685133479
 30
0.0
  0
VERTEX
  8
0
 10
182.252105597
 20
237.077955586
 30
0.0
  0
VERTEX
  8
0
 10
182.058800415
 20
239.362959268
 30
0.0
  0
VERTEX
  8
0
 10
181.872952374
 20
241.53784372
 30
0.0
  0
VERTEX
  8
0
 10
181.695003493
 20
243.600419019
 30
0.0
  0
VERTEX
  8
0
 10
181.525384681
 20
245.548608325
 30
0.0
  0
VERTEX
  8
0
 10
181.364514012
 20
247.380449977
 30
0.0
  0
VERTEX
  8
0
 10
181.212794912
 20
249.094099466
 30
0.0
  0
VERTEX
  8
0
 10
181.070614265
 20
250.687831292
 30
0.0
  0
VERTEX
  8
0
 10
180.938340465
 20
252.160040702
 30
0.0
  0
VERTEX
  8
0
 10
180.816321457
 20
253.509245306
 30
0.0
  0
VERTEX
  8
0
 10
180.704882791
 20
254.73408657
 30
0.0
  0
VERTEX
  8
0
 10
180.604325715
 20
255.833331181
 30
0.0
  0
VERTEX
  8
0
 10
180.514925338
 20
256.805872295
 30
0.0
  0
VERTEX
  8
0
 10
180.436928906
 20
257.650730644
 30
0.0
  0
VERTEX
  8
0
 10
180.370554198
 20
258.367055528
 30
0.0
  0
VERTEX
  8
0
 10
180.315988082
 20
258.954125668
 30
0.0
  0
VERTEX
  8
0
 10
180.273385253
 20
259.411349935
 30
0.0
  0
VERTEX
  8
0
 10
180.242867166
 20
259.738267941
 30
0.0
  0
VERTEX
  8
0
 10
180.224521191
 20
259.93455051
 30
0.0
  0
VERTEX
  8
0
 10
180.2184
 20
260.0
 30
0.0
  0
SEQEND
  0
POLYLINE
  6
CONTINUOUS
  8
0
 66
1
 10
0.0
 20
0.0
 30
0.0
 70
8
  0
VERTEX
  8
0
 10
225.0
 20
250.0
 30
0.0
  0
VERTEX
  8
0
 10
224.784114239
 20
249.937067798
 30
0.0
  0
VERTEX
  8
0
 10
224.766473879
 20
249.748334559
 30
0.0
  0
VERTEX
  8
0
 10
224.737129564
 20
249.433990322
 30
0.0
  0
VERTEX
  8
0
 10
224.696165305
 20
248.994351604
 30
0.0
  0
VERTEX
  8
0
 10
224.643697887
 20
248.429861085
 30
0.0
  0
VERTEX
  8
0
 10
224.579876052
 20
247.741087158
 30
0.0
  0
VERTEX
  8
0
 10
224.504879483
 20
246.928723361
 30
0.0
  0
VERTEX
  8
0
 10
224.418917582
 20
245.993587674
 30
0.0
  0
VERTEX
  8
0
 10
224.322228085
 20
244.936621702
 30
0.0
  0
VERTEX
  8
0
 10
224.215075522
 20
243.758889718
 30
0.0
  0
VERTEX
  8
0
 10
224.097749553
 20
242.461577598
 30
0.0
  0
VERTEX
  8
0
 10
223.970563206
 20
241.045991627
 30
0.0
  0
VERTEX
  8
0
 10
223.833851046
 20
239.513557179
 30
0.0
  0
VERTEX
  8
0
 10
223.687967297
 20
237.865817286
 30
0.0
  0
VERTEX
  8
0
 10
223.533283961
 20
236.104431082
 30
0.0
  0
VERTEX
  8
0
 10
223.370188949
 20
234.231172134
 30
0.0
  0
VERTEX
  8
0
 10
223.199084256
 20
232.247926654
 30
0.0
  0
VERTEX
  8
0
 10
223.020384216
 20
230.156691604
 30
0.0
  0
VERTEX
  8
0
 10
222.834513849
 20
227.959572679
 30
0.0
  0
VERTEX
  8
0
 10
222.64190733
 20
225.658782192
 30
0.0
  0
VERTEX
  8
0
 10
222.443006609
 20
223.256636843
 30
0.0
  0
VERTEX
  8
0
 10
222.238260177
 20
220.75555539
 30
0.0
  0
VERTEX
  8
0
 10
222.028122016
 20
218.158056209
 30
0.0
  0
VERTEX
  8
0
 10
221.81305073
 20
215.466754763
 30
0.0
  0
VERTEX
  8
0
 10
221.593508863
 20
212.684360963
 30
0.0
  0
VERTEX
  8
0
 10
221.369962415
 20
209.813676445
 30
0.0
  0
VERTEX
  8
0
 10
221.142880544
 20
206.857591743
 30
0.0
  0
VERTEX
  8
0
 10
220.912735455
 20
203.819083385
 30
0.0
  0
VERTEX
  8
0
 10
220.680002463
 20
200.701210892
 30
0.0
  0
VERTEX
  8
0
 10
220.445160216
 20
197.507113696
 30
0.0
  0
VERTEX
  8
0
 10
220.208691061
 20
194.240007983
 30
0.0
  0
VERTEX
  8
0
 10
219.971081536
 20
190.903183451
 30
0.0
  0
VERTEX
  8
0
 10
219.732822949
 20
187.5
 30
0.0
  0
VERTEX
  8
0
 10
219.49441204
 20
184.033884347
 30
0.0
  0
VERTEX
  8
0
 10
219.256351677
 20
180.508326576
 30
0.0
  0
VERTEX
  8
0
 10
219.019151566
 20
176.926876625
 30
0.0
  0
VERTEX
  8
0
 10
218.783328939
 20
173.293140712
 30
0.0
  0
VERTEX
  8
0
 10
218.549409191
 20
169.610777699
 30
0.0
  0
VERTEX
  8
0
 10
218.31792643
 20
165.883495415
 30
0.0
  0
VERTEX
  8
0
 10
218.089423912
 20
162.115046916
 30
0.0
  0
VERTEX
  8
0
 10
217.86445433
 20
158.309226711
 30
0.0
  0
VERTEX
  8
0
 10
217.643579921
 20
154.469866939
 30
0.0
  0
VERTEX
  8
0
 10
217.427372382
 20
150.600833508
 30
0.0
  0
VERTEX
  8
0
 10
217.216412554
 20
146.706022208
 30
0.0
  0
VERTEX
  8
0
 10
217.011289866
 20
142.789354784
 30
0.0
  0
VERTEX
  8
0
 10
216.812601514
 20
138.854774988
 30
0.0
  0
VERTEX
  8
0
 10
216.620951379
 20
134.906244607
 30
0.0
  0
VERTEX
  8
0
 10
216.436948659
 20
130.947739478
 30
0.0
  0
VERTEX
  8
0
 10
216.261206221
 20
126.983245479
 30
0.0
  0
VERTEX
  8
0
 10
216.094338686
 20
123.016754521
 30
0.0
  0
VERTEX
  8
0
 10
215.936960232
 20
119.052260522
 30
0.0
  0
VERTEX
  8
0
 10
215.789682158
 20
115.093755393
 30
0.0
  0
VERTEX
  8
0
 10
215.653110197
 20
111.145225012
 30
0.0
  0
VERTEX
  8
0
 10
215.527841624
 20
107.210645216
 30
0.0
  0
VERTEX
  8
0
 10
215.414462181
 20
103.293977792
 30
0.0
  0
VERTEX
  8
0
 10
215.313542841
 20
99.3991664917
 30
0.0
  0
VERTEX
  8
0
 10
215.225636465
 20
95.5301330612
 30
0.0
  0
VERTEX
  8
0
 10
215.151274372
 20
91.6907732887
 30
0.0
  0
VERTEX
  8
0
 10
215.090962886
 20
87.884953084
 30
0.0
  0
VERTEX
  8
0
 10
215.045179882
 20
84.1165045852
 30
0.0
  0
VERTEX
  8
0
 10
215.014371399
 20
80.389222301
 30
0.0
  0
VERTEX
  8
0
 10
214.998948348
 20
76.7068592883
 30
0.0
  0
VERTEX
  8
0
 10
214.999283382
 20
73.0731233747
 30
0.0
  0
VERTEX
  8
0
 10
215.015707953
 20
69.4916734242
 30
0.0
  0
VERTEX
  8
0
 10
215.048509629
 20
65.9661156535
 30
0.0
  0
VERTEX
  8
0
 10
215.097929687
 20
62.5
 30
0.0
  0
VERTEX
  8
0
 10
215.16416105
 20
59.0968165487
 30
0.0
  0
VERTEX
  8
0
 10
215.247346578
 20
55.7599920167
 30
0.0
  0
VERTEX
  8
0
 10
215.347577778
 20
52.4928863035
 30
0.0
  0
VERTEX
  8
0
 10
215.464893938
 20
49.2987891077
 30
0.0
  0
VERTEX
  8
0
 10
215.599281725
 20
46.1809166145
 30
0.0
  0
VERTEX
  8
0
 10
215.750675252
 20
43.1424082568
 30
0.0
  0
VERTEX
  8
0
 10
215.918956644
 20
40.1863235552
 30
0.0
  0
VERTEX
  8
0
 10
216.103957098
 20
37.3156390367
 30
0.0
  0
VERTEX
  8
0
 10
216.30545844
 20
34.5332452367
 30
0.0
  0
VERTEX
  8
0
 10
216.523195176
 20
31.8419437905
 30
0.0
  0
VERTEX
  8
0
 10
216.756857017
 20
29.2444446102
 30
0.0
  0
VERTEX
  8
0
 10
217.00609187
 20
26.7433631573
 30
0.0
  0
VERTEX
  8
0
 10
217.270509263
 20
24.3412178086
 30
0.0
  0
VERTEX
  8
0
 10
217.549684161
 20
22.0404273213
 30
0.0
  0
VERTEX
  8
0
 10
217.843161164
 20
19.8433083961
 30
0.0
  0
VERTEX
  8
0
 10
218.15045901
 20
17.7520733456
 30
0.0
  0
VERTEX
  8
0
 10
218.471075364
 20
15.7688278663
 30
0.0
  0
VERTEX
  8
0
 10
218.804491818
 20
13.8955689181
 30
0.0
  0
VERTEX
  8
0
 10
219.150179064
 20
12.1341827142
 30
0.0
  0
VERTEX
  8
0
 10
219.507602173
 20
10.486442821
 30
0.0
  0
VERTEX
  8
0
 10
219.876225915
 20
8.954008373
 30
0.0
  0
VERTEX
  8
0
 10
220.255520072
 20
7.53842240175
 30
0.0
  0
VERTEX
  8
0
 10
220.64496466
 20
6.24111028238
 30
0.0
  0
VERTEX
  8
0
 10
221.044055028
 20
5.0633782982
 30
0.0
  0
VERTEX
  8
0
 10
221.452306736
 20
4.00641232545
 30
0.0
  0
VERTEX
  8
0
 10
221.869260189
 20
3.07127663933
 30
0.0
  0
VERTEX
  8
0
 10
222.294484944
 20
2.25891284216
 30
0.0
  0
VERTEX
  8
0
 10
222.727583654
 20
1.57013891545
 30
0.0
  0
VERTEX
  8
0
 10
223.16819559
 20
1.00564839615
 30
0.0
  0
VERTEX
  8
0
 10
223.615999703
 20
0.566009678365
 30
0.0
  0
VERTEX
  8
0
 10
224.070717194
 20
0.251665441015
 30
0.0
  0
VERTEX
  8
0
 10
224.532113544
 20
0.0629322021017
 30
0.0
  0
VERTEX
  8
0
 10
224.648483063
 20
0.0354006633587
 30
0.0
  0
VERTEX
  8
0
 10
225.0
 20
0.0
 30
0.0
  0
VERTEX
  8
0
 10
225.351516937
 20
0.0354006633587
 30
0.0
  0
VERTEX
  8
0
 10
225.467886456
 20
0.0629322021017
 30
0.0
  0
VERTEX
  8
0
 10
225.929282806
 20
0.251665441015
 30
0.0
  0
VERTEX
  8
0
 10
226.384000297
 20
0.566009678365
 30
0.0
  0
VERTEX
  8
0
 10
226.83180441
 20
1.00564839615
 30
0.0
  0
VERTEX
  8
0
 10
227.272416346
 20
1.57013891545
 30
0.0
  0
VERTEX
  8
0
 10
227.705515056
 20
2.25891284216
 30
0.0
  0
VERTEX
  8
0
 10
228.130739811
 20
3.07127663933
 30
0.0
  0
VERTEX
  8
0
 10
228.547693264
 20
4.00641232545
 30
0.0
  0
VERTEX
  8
0
 10
228.955944972
 20
5.0633782982
 30
0.0
  0
VERTEX
  8
0
 10
229.35503534
 20
6.24111028238
 30
0.0
  0
VERTEX
  8
0
 10
229.744479928
 20
7.53842240175
 30
0.0
  0
VERTEX
  8
0
 10
230.123774085
 20
8.954008373
 30
0.0
  0
VERTEX
  8
0
 10
230.492397827
 20
10.486442821
 30
0.0
  0
VERTEX
  8
0
 10
230.849820936
 20
12.1341827142
 30
0.0
  0
VERTEX
  8
0
 10
231.195508182
 20
13.8955689181
 30
0.0
  0
VERTEX
  8
0
 10
231.528924636
 20
15.7688278663
 30
0.0
  0
VERTEX
  8
0
 10
231.84954099
 20
17.7520733456
 30
0.0
  0
VERTEX
  8
0
 10
232.156838836
 20
19.8433083961
 30
0.0
  0
VERTEX
  8
0
 10
232.450315839
 20
22.0404273213
 30
0.0
  0
VERTEX
  8
0
 10
232.729490737
 20
24.3412178086
 30
0.0
  0
VERTEX
  8
0
 10
232.99390813
 20
26.7433631573
 30
0.0
  0
VERTEX
  8
0
 10
233.243142983
 20
29.2444446102
 30
0.0
  0
VERTEX
  8
0
 10
233.476804824
 20
31.8419437905
 30
0.0
  0
VERTEX
  8
0
 10
233.69454156
 20
34.5332452367
 30
0.0
  0
VERTEX
  8
0
 10
233.896042902
 20
37.3156390367
 30
0.0
  0
VERTEX
  8
0
 10
234.081043356
 20
40.1863235552
 30
0.0
  0
VERTEX
  8
0
 10
234.249324748
 20
43.1424082568
 30
0.0
  0
VERTEX
  8
0
 10
234.400718275
 20
46.1809166145
 30
0.0
  0
VERTEX
  8
0
 10
234.535106062
 20
49.2987891077
 30
0.0
  0
VERTEX
  8
0
 10
234.652422222
 20
52.4928863035
 30
0.0
  0
VERTEX
  8
0
 10
234.752653422
 20
55.7599920167
 30
0.0
  0
VERTEX
  8
0
 10
234.83583895
 20
59.0968165487
 30
0.0
  0
VERTEX
  8
0
 10
234.902070313
 20
62.5
 30
0.0
  0
VERTEX
  8
0
 10
234.951490371
 20
65.9661156535
 30
0.0
  0
VERTEX
  8
0
 10
234.984292047
 20
69.4916734242
 30
0.0
  0
VERTEX
  8
0
 10
235.000716618
 20
73.0731233747
 30
0.0
  0
VERTEX
  8
0
 10
235.001051652
 20
76.7068592883
 30
0.0
  0
VERTEX
  8
0
 10
234.985628601
 20
80.389222301
 30
0.0
  0
VERTEX
  8
0
 10
234.954820118
 20
84.1165045852
 30
0.0
  0
VERTEX
  8
0
 10
234.909037114
 20
87.884953084
 30
0.0
  0
VERTEX
  8
0
 10
234.848725628
 20
91.6907732887
 30
0.0
  0
VERTEX
  8
0
 10
234.774363535
 20
95.5301330612
 30
0.0
  0
VERTEX
  8
0
 10
234.686457159
 20
99.3991664917
 30
0.0
  0
VERTEX
  8
0
 10
234.585537819
 20
103.293977792
 30
0.0
  0
VERTEX
  8
0
 10
234.472158376
 20
107.210645216
 30
0.0
  0
VERTEX
  8
0
 10
234.346889803
 20
111.145225012
 30
0.0
  0
VERTEX
  8
0
 10
234.210317842
 20
115.093755393
 30
0.0
  0
VERTEX
  8
0
 10
234.063039768
 20
119.052260522
 30
0.0
  0
VERTEX
  8
0
 10
233.905661314
 20
123.016754521
 30
0.0
  0
VERTEX
  8
0
 10
233.738793779
 20
126.983245479
 30
0.0
  0
VERTEX
  8
0
 10
233.563051341
 20
130.947739478
 30
0.0
  0
VERTEX
  8
0
 10
233.379048621
 20
134.906244607
 30
0.0
  0
VERTEX
  8
0
 10
233.187398486
 20
138.854774988
 30
0.0
  0
VERTEX
  8
0
 10
232.988710134
 20
142.789354784
 30
0.0
  0
VERTEX
  8
0
 10
232.783587446
 20
146.706022208
 30
0.0
  0
VERTEX
  8
0
 10
232.572627618
 20
150.600833508
 30
0.0
  0
VERTEX
  8
0
 10
232.356420079
 20
154.469866939
 30
0.0
  0
VERTEX
  8
0
 10
232.13554567
 20
158.309226711
 30
0.0
  0
VERTEX
  8
0
 10
231.910576088
 20
162.115046916
 30
0.0
  0
VERTEX
  8
0
 10
231.68207357
 20
165.883495415
 30
0.0
  0
VERTEX
  8
0
 10
231.450590809
 20
169.610777699
 30
0.0
  0
VERTEX
  8
0
 10
231.216671061
 20
173.293140712
 30
0.0
  0
VERTEX
  8
0
 10
230.980848434
 20
176.926876625
 30
0.0
  0
VERTEX
  8
0
 10
230.743648323
 20
180.508326576
 30
0.0
  0
VERTEX
  8
0
 10
230.50558796
 20
184.033884347
 30
0.0
  0
VERTEX
  8
0
 10
230.267177051
 20
187.5
 30
0.0
  0
VERTEX
  8
0
 10
230.028918464
 20
190.903183451
 30
0.0
  0
VERTEX
  8
0
 10
229.791308939
 20
194.240007983
 30
0.0
  0
VERTEX
  8
0
 10
229.554839784
 20
197.507113696
 30
0.0
  0
VERTEX
  8
0
 10
229.319997537
 20
200.701210892
 30
0.0
  0
VERTEX
  8
0
 10
229.087264545
 20
203.819083385
 30
0.0
  0
VERTEX
  8
0
 10
228.857119456
 20
206.857591743
 30
0.0
  0
VERTEX
  8
0
 10
228.630037585
 20
209.813676445
 30
0.0
  0
VERTEX
  8
0
 10
228.406491137
 20
212.684360963
 30
0.0
  0
VERTEX
  8
0
 10
228.18694927
 20
215.466754763
 30
0.0
  0
VERTEX
  8
0
 10
227.971877984
 20
218.158056209
 30
0.0
  0
VERTEX
  8
0
 10
227.761739823
 20
220.75555539
 30
0.0
  0
VERTEX
  8
0
 10
227.556993391
 20
223.256636843
 30
0.0
  0
VERTEX
  8
0
 10
227.35809267
 20
225.658782192
 30
0.0
  0
VERTEX
  8
0
 10
227.165486151
 20
227.959572679
 30
0.0
  0
VERTEX
  8
0
 10
226.979615784
 20
230.156691604
 30
0.0
  0
VERTEX
  8
0
 10
226.800915744
 20
232.247926654
 30
0.0
  0
VERTEX
  8
0
 10
226.629811051
 20
234.231172134
 30
0.0
  0
VERTEX
  8
0
 10
226.466716039
 20
236.104431082
 30
0.0
  0
VERTEX
  8
0
 10
226.312032703
 20
237.865817286
 30
0.0
  0
VERTEX
  8
0
 10
226.166148954
 20
239.513557179
 30
0.0
  0
VERTEX
  8
0
 10
226.029436794
 20
241.045991627
 30
0.0
  0
VERTEX
  8
0
 10
225.902250447
 20
242.461577598
 30
0.0
  0
VERTEX
  8
0
 10
225.784924478
 20
243.758889718
 30
0.0
  0
VERTEX
  8
0
 10
225.677771915
 20
244.936621702
 30
0.0
  0
VERTEX
  8
0
 10
225.581082418
 20
245.993587674
 30
0.0
  0
VERTEX
  8
0
 10
225.495120517
 20
246.928723361
 30
0.0
  0
VERTEX
  8
0
 10
225.420123948
 20
247.741087158
 30
0.0
  0
VERTEX
  8
0
 10
225.356302113
 20
248.429861085
 30
0.0
  0
VERTEX
  8
0
 10
225.303834695
 20
248.994351604
 30
0.0
  0
VERTEX
  8
0
 10
225.262870436
 20
249.433990322
 30
0.0
  0
VERTEX
  8
0
 10
225.233526121
 20
249.748334559
 30
0.0
  0
VERTEX
  8
0
 10
225.215885761
 20
249.937067798
 30
0.0
  0
VERTEX
  8
0
 10
225.21
 20
250.0
 30
0.0
  0
SEQEND
  0
ENDSEC
  0
EOF
