  0
SECTION
  2
HEADER
  9
$ACADVER
  1
AC1009
  9
$EXTMIN
 10
0.0
 20
0.0
 30
0.0
  9
$EXTMAX
 10
100.0
 20
100.0
 30
0.0
  9
$INSBASE
 10
0.0
 20
0.0
 30
0.0
  0
ENDSEC
  0
SECTION
  2
TABLES
  0
TABLE
  2
LTYPE
 70
19
  0
LTYPE
  2
PHANTOM
 70
0
  3
Phantom ______  __  __  ______  __  __  ______
 72
65
 73
6
 40
2.5
 49
1.25
 49
-0.25
 49
0.25
 49
-0.25
 49
0.25
 49
-0.25
  0
LTYPE
  2
DOT2
 70
0
  3
Dot (.5) . . . . . . . . . . . . . . . . . . . 
 72
65
 73
2
 40
0.1
 49
0.0
 49
-0.1
  0
LTYPE
  2
DIVIDE
 70
0
  3
Divide __ . . __ . . __ . . __ . . __ . . __
 72
65
 73
6
 40
1.6
 49
1.0
 49
-0.2
 49
0.0
 49
-0.2
 49
0.0
 49
-0.2
  0
LTYPE
  2
DIVIDEX2
 70
0
  3
Divide (2x) ____  . .  ____  . .  ____  . .  ____
 72
65
 73
6
 40
2.6
 49
2.0
 49
-0.2
 49
0.0
 49
-0.2
 49
0.0
 49
-0.2
  0
LTYPE
  2
CENTER
 70
0
  3
Center ____ _ ____ _ ____ _ ____ _ ____ _ ____
 72
65
 73
4
 40
2.0
 49
1.25
 49
-0.25
 49
0.25
 49
-0.25
  0
LTYPE
  2
DASHDOT
 70
0
  3
Dash dot __ . __ . __ . __ . __ . __ . __ . __
 72
65
 73
4
 40
1.4
 49
1.0
 49
-0.2
 49
0.0
 49
-0.2
  0
LTYPE
  2
CENTERX2
 70
0
  3
Center (2x) ________  __  ________  __  ________
 72
65
 73
4
 40
3.5
 49
2.5
 49
-0.25
 49
0.5
 49
-0.25
  0
LTYPE
  2
PHANTOMX2
 70
0
  3
Phantom (2x)____________    ____    ____    ____________
 72
65
 73
6
 40
4.25
 49
2.5
 49
-0.25
 49
0.5
 49
-0.25
 49
0.5
 49
-0.25
  0
LTYPE
  2
CONTINUOUS
 70
0
  3
Solid
 72
65
 73
0
 40
0.0
  0
LTYPE
  2
PHANTOM2
 70
0
  3
Phantom (.5x) ___ _ _ ___ _ _ ___ _ _ ___ _ _ ___
 72
65
 73
6
 40
1.25
 49
0.625
 49
-0.125
 49
0.125
 49
-0.125
 49
0.125
 49
-0.125
  0
LTYPE
  2
DASHED
 70
0
  3
Dashed __ __ __ __ __ __ __ __ __ __ __ __ __ _
 72
65
 73
2
 40
0.6
 49
0.5
 49
-0.1
  0
LTYPE
  2
DASHED2
 70
0
  3
Dashed (.5x) _ _ _ _ _ _ _ _ _ _ _ _ _ _
 72
65
 73
2
 40
0.3
 49
0.25
 49
-0.05
  0
LTYPE
  2
DASHDOT2
 70
0
  3
Dash dot (.5x) _ . _ . _ . _ . _ . _ . _ . _
 72
65
 73
4
 40
0.7
 49
0.5
 49
-0.1
 49
0.0
 49
-0.1
  0
LTYPE
  2
DOTX2
 70
0
  3
Dot (2x) .    .    .    .    .    .    .    . 
 72
65
 73
2
 40
0.4
 49
0.0
 49
-0.4
  0
LTYPE
  2
DIVIDE2
 70
0
  3
Divide(.5x) _ . _ . _ . _ . _ . _ . _ . _
 72
65
 73
6
 40
0.8
 49
0.5
 49
-0.1
 49
0.0
 49
-0.1
 49
0.0
 49
-0.1
  0
LTYPE
  2
CENTER2
 70
0
  3
Center (.5x) ____ _ ____ _ ____ _ ____ _ ____
 72
65
 73
4
 40
1.0
 49
0.625
 49
-0.125
 49
0.125
 49
-0.125
  0
LTYPE
  2
DASHDOTX2
 70
0
  3
Dash dot (2x) ____  .  ____  .  ____  .  ____
 72
65
 73
4
 40
2.4
 49
2.0
 49
-0.2
 49
0.0
 49
-0.2
  0
LTYPE
  2
DOT
 70
0
  3
Dot .  .  .  .  .  .  .  .  .  .  .  .  .  .  .  .
 72
65
 73
2
 40
0.2
 49
0.0
 49
-0.2
  0
LTYPE
  2
DASHEDX2
 70
0
  3
Dashed (2x) ____  ____  ____  ____  ____  ____
 72
65
 73
2
 40
1.2
 49
1.0
 49
-0.2
  0
ENDTAB
  0
TABLE
  2
LAYER
 70
5
  0
LAYER
  2
VIEWPORTS
 70
0
 62
7
  6
CONTINUOUS
  0
LAYER
  2
TABLEGRID
 70
0
 62
1
  6
CONTINUOUS
  0
LAYER
  2
TABLECONTENT
 70
0
 62
1
  6
CONTINUOUS
  0
LAYER
  2
DIMENSIONS
 70
0
 62
1
  6
CONTINUOUS
  0
LAYER
  2
TABLEBACKGROUND
 70
0
 62
1
  6
CONTINUOUS
  0
ENDTAB
  0
TABLE
  2
STYLE
 70
12
  0
STYLE
  2
TIMES
 70
0
 40
0.0
 41
1.0
 42
1.0
 50
0.0
 71
0
  3
times.ttf
  4

  0
STYLE
  2
ARIAL
 70
0
 40
0.0
 41
1.0
 42
1.0
 50
0.0
 71
0
  3
arial.ttf
  4

  0
STYLE
  2
TIMES_BOLD
 70
0
 40
0.0
 41
1.0
 42
1.0
 50
0.0
 71
0
  3
timesbd.ttf
  4

  0
STYLE
  2
ARIAL_BLACK
 70
0
 40
0.0
 41
1.0
 42
1.0
 50
0.0
 71
0
  3
ariblk.ttf
  4

  0
STYLE
  2
TIMES_ITALIC
 70
0
 40
0.0
 41
1.0
 42
1.0
 50
0.0
 71
0
  3
timesi.ttf
  4

  0
STYLE
  2
ISOCPEUR
 70
0
 40
0.0
 41
1.0
 42
1.0
 50
0.0
 71
0
  3
isocpeur.ttf
  4

  0
STYLE
  2
ARIAL_BOLD
 70
0
 40
0.0
 41
1.0
 42
1.0
 50
0.0
 71
0
  3
arialbd.ttf
  4

  0
STYLE
  2
ARIAL_ITALIC
 70
0
 40
0.0
 41
1.0
 42
1.0
 50
0.0
 71
0
  3
ariali.ttf
  4

  0
STYLE
  2
ARIAL_BOLD_ITALIC
 70
0
 40
0.0
 41
1.0
 42
1.0
 50
0.0
 71
0
  3
arialbi.ttf
  4

  0
STYLE
  2
TIMES_BOLD_ITALIC
 70
0
 40
0.0
 41
1.0
 42
1.0
 50
0.0
 71
0
  3
timesbi.ttf
  4

  0
STYLE
  2
ISOCPEUR_ITALIC
 70
0
 40
0.0
 41
1.0
 42
1.0
 50
0.0
 71
0
  3
isocpeui.ttf
  4

  0
STYLE
  2
STANDARD
 70
0
 40
0.0
 41
1.0
 42
1.0
 50
0.0
 71
0
  3
arial.ttf
  4

  0
ENDTAB
  0
TABLE
  2
VIEW
 70
0
  0
ENDTAB
  0
TABLE
  2
APPID
 70
1
  0
APPID
  2
DXFWRITE
 70
0
  0
ENDTAB
  0
TABLE
  2
VPORT
 70
0
  0
ENDTAB
  0
TABLE
  2
UCS
 70
0
  0
ENDTAB
  0
ENDSEC
  0
SECTION
  2
BLOCKS
  0
ENDSEC
  0
SECTION
  2
ENTITIES
  0
VIEWPORT
  8
VIEWPORTS
 67
1
 10
0.0
 20
0.0
 30
0.0
 40
1.0
 41
1.0
 68
1
 69
1
1001
ACAD
1000
MVIEW
1002
{
1070
16
1010
0.0
1020
0.0
1030
0.0
1010
0.0
1020
0.0
1030
0.0
1040
0.0
1040
1.0
1040
0.0
1040
0.0
1040
50.0
1040
0.0
1040
0.0
1070
0
1070
100
1070
1
1070
3
1070
0
1070
0
1070
0
1070
0
1040
0.0
1040
0.0
1040
0.0
1040
0.1
1040
0.1
1040
0.1
1040
0.1
1070
0
1002
{
1002
}
1002
}
  0
POLYLINE
  6
CONTINUOUS
  8
0
 66
1
 10
0.0
 20
0.0
 30
0.0
 70
8
  0
VERTEX
  8
0
 10
300.0
 20
0.0
 30
0.0
  0
VERTEX
  8
0
 10
299.924481358
 20
-0.259062912852
 30
0.0
  0
VERTEX
  8
0
 10
299.698001471
 20
-0.280231345234
 30
0.0
  0
VERTEX
  8
0
 10
299.320788386
 20
-0.315444522831
 30
0.0
  0
VERTEX
  8
0
 10
298.793221925
 20
-0.36460163343
 30
0.0
  0
VERTEX
  8
0
 10
298.115833301
 20
-0.427562536101
 30
0.0
  0
VERTEX
  8
0
 10
297.289304589
 20
-0.504148737696
 30
0.0
  0
VERTEX
  8
0
 10
296.314468033
 20
-0.594144620565
 30
0.0
  0
VERTEX
  8
0
 10
295.192305209
 20
-0.697298901438
 30
0.0
  0
VERTEX
  8
0
 10
293.923946042
 20
-0.813326297589
 30
0.0
  0
VERTEX
  8
0
 10
292.510667661
 20
-0.941909373213
 30
0.0
  0
VERTEX
  8
0
 10
290.953893118
 20
-1.08270053607
 30
0.0
  0
VERTEX
  8
0
 10
289.255189952
 20
-1.23532415223
 30
0.0
  0
VERTEX
  8
0
 10
287.416268615
 20
-1.39937874515
 30
0.0
  0
VERTEX
  8
0
 10
285.438980743
 20
-1.57443924416
 30
0.0
  0
VERTEX
  8
0
 10
283.325317298
 20
-1.760059247
 30
0.0
  0
VERTEX
  8
0
 10
281.07740656
 20
-1.95577326159
 30
0.0
  0
VERTEX
  8
0
 10
278.697511985
 20
-2.16109889261
 30
0.0
  0
VERTEX
  8
0
 10
276.188029925
 20
-2.37553894037
 30
0.0
  0
VERTEX
  8
0
 10
273.551487215
 20
-2.59858338154
 30
0.0
  0
VERTEX
  8
0
 10
270.79053863
 20
-2.82971120367
 30
0.0
  0
VERTEX
  8
0
 10
267.907964211
 20
-3.0683920692
 30
0.0
  0
VERTEX
  8
0
 10
264.906666468
 20
-3.31408778793
 30
0.0
  0
VERTEX
  8
0
 10
261.789667451
 20
-3.56625358101
 30
0.0
  0
VERTEX
  8
0
 10
258.560105716
 20
-3.82433912451
 30
0.0
  0
VERTEX
  8
0
 10
255.221233156
 20
-4.0877893647
 30
0.0
  0
VERTEX
  8
0
 10
251.776411734
 20
-4.35604510215
 30
0.0
  0
VERTEX
  8
0
 10
248.229110092
 20
-4.6285433472
 30
0.0
  0
VERTEX
  8
0
 10
244.582900063
 20
-4.90471745397
 30
0.0
  0
VERTEX
  8
0
 10
240.841453071
 20
-5.18399704461
 30
0.0
  0
VERTEX
  8
0
 10
237.008536436
 20
-5.46580774128
 30
0.0
  0
VERTEX
  8
0
 10
233.08800958
 20
-5.74957072638
 30
0.0
  0
VERTEX
  8
0
 10
229.083820142
 20
-6.03470215677
 30
0.0
  0
VERTEX
  8
0
 10
225.0
 20
-6.32061246102
 30
0.0
  0
VERTEX
  8
0
 10
220.840661216
 20
-6.60670555167
 30
0.0
  0
VERTEX
  8
0
 10
216.609991891
 20
-6.89237798715
 30
0.0
  0
VERTEX
  8
0
 10
212.31225195
 20
-7.17701812062
 30
0.0
  0
VERTEX
  8
0
 10
207.951768854
 20
-7.46000527329
 30
0.0
  0
VERTEX
  8
0
 10
203.532933239
 20
-7.74070897122
 30
0.0
  0
VERTEX
  8
0
 10
199.060194498
 20
-8.01848828433
 30
0.0
  0
VERTEX
  8
0
 10
194.538056299
 20
-8.29269130515
 30
0.0
  0
VERTEX
  8
0
 10
189.971072053
 20
-8.56265480403
 30
0.0
  0
VERTEX
  8
0
 10
185.363840326
 20
-8.82770409471
 30
0.0
  0
VERTEX
  8
0
 10
180.72100021
 20
-9.0871531413
 30
0.0
  0
VERTEX
  8
0
 10
176.04722665
 20
-9.34030493469
 30
0.0
  0
VERTEX
  8
0
 10
171.347225741
 20
-9.58645216128
 30
0.0
  0
VERTEX
  8
0
 10
166.625729985
 20
-9.8248781835
 30
0.0
  0
VERTEX
  8
0
 10
161.887493528
 20
-10.0548583451
 30
0.0
  0
VERTEX
  8
0
 10
157.137287374
 20
-10.2756616096
 30
0.0
  0
VERTEX
  8
0
 10
152.379894575
 20
-10.4865525347
 30
0.0
  0
VERTEX
  8
0
 10
147.620105425
 20
-10.6867935773
 30
0.0
  0
VERTEX
  8
0
 10
142.862712626
 20
-10.8756477211
 30
0.0
  0
VERTEX
  8
0
 10
138.112506472
 20
-11.0523814099
 30
0.0
  0
VERTEX
  8
0
 10
133.374270015
 20
-11.2162677635
 30
0.0
  0
VERTEX
  8
0
 10
128.652774259
 20
-11.3665900508
 30
0.0
  0
VERTEX
  8
0
 10
123.95277335
 20
-11.5026453826
 30
0.0
  0
VERTEX
  8
0
 10
119.27899979
 20
-11.6237485903
 30
0.0
  0
VERTEX
  8
0
 10
114.636159673
 20
-11.7292362423
 30
0.0
  0
VERTEX
  8
0
 10
110.028927947
 20
-11.8184707537
 30
0.0
  0
VERTEX
  8
0
 10
105.461943701
 20
-11.8908445372
 30
0.0
  0
VERTEX
  8
0
 10
100.939805502
 20
-11.9457841415
 30
0.0
  0
VERTEX
  8
0
 10
96.4670667612
 20
-11.9827543212
 30
0.0
  0
VERTEX
  8
0
 10
92.0482311459
 20
-12.0012619818
 30
0.0
  0
VERTEX
  8
0
 10
87.6877480497
 20
-12.000859942
 30
0.0
  0
VERTEX
  8
0
 10
83.3900081091
 20
-11.9811504567
 30
0.0
  0
VERTEX
  8
0
 10
79.1593387842
 20
-11.9417884457
 30
0.0
  0
VERTEX
  8
0
 10
75.0
 20
-11.882484375
 30
0.0
  0
VERTEX
  8
0
 10
70.9161798585
 20
-11.8030067402
 30
0.0
  0
VERTEX
  8
0
 10
66.9119904201
 20
-11.7031841069
 30
0.0
  0
VERTEX
  8
0
 10
62.9914635642
 20
-11.582906667
 30
0.0
  0
VERTEX
  8
0
 10
59.1585469293
 20
-11.4421272742
 30
0.0
  0
VERTEX
  8
0
 10
55.4170999374
 20
-11.2808619301
 30
0.0
  0
VERTEX
  8
0
 10
51.7708899081
 20
-11.0991896982
 30
0.0
  0
VERTEX
  8
0
 10
48.2235882663
 20
-10.8972520277
 30
0.0
  0
VERTEX
  8
0
 10
44.7787668441
 20
-10.6752514825
 30
0.0
  0
VERTEX
  8
0
 10
41.4398942841
 20
-10.4334498715
 30
0.0
  0
VERTEX
  8
0
 10
38.2103325486
 20
-10.1721657889
 30
0.0
  0
VERTEX
  8
0
 10
35.0933335323
 20
-9.89177157993
 30
0.0
  0
VERTEX
  8
0
 10
32.0920357887
 20
-9.59268975543
 30
0.0
  0
VERTEX
  8
0
 10
29.2094613703
 20
-9.27538888473
 30
0.0
  0
VERTEX
  8
0
 10
26.4485127855
 20
-8.94037900668
 30
0.0
  0
VERTEX
  8
0
 10
23.8119700753
 20
-8.58820660329
 30
0.0
  0
VERTEX
  8
0
 10
21.3024880148
 20
-8.21944918758
 30
0.0
  0
VERTEX
  8
0
 10
18.9225934395
 20
-7.83470956326
 30
0.0
  0
VERTEX
  8
0
 10
16.6746827018
 20
-7.43460981888
 30
0.0
  0
VERTEX
  8
0
 10
14.561019257
 20
-7.01978512335
 30
0.0
  0
VERTEX
  8
0
 10
12.5837313852
 20
-6.59087739264
 30
0.0
  0
VERTEX
  8
0
 10
10.7448100476
 20
-6.14852890158
 30
0.0
  0
VERTEX
  8
0
 10
9.0461068821
 20
-5.69337591411
 30
0.0
  0
VERTEX
  8
0
 10
7.48933233885
 20
-5.22604240782
 30
0.0
  0
VERTEX
  8
0
 10
6.07605395784
 20
-4.74713396697
 30
0.0
  0
VERTEX
  8
0
 10
4.80769479054
 20
-4.25723191737
 30
0.0
  0
VERTEX
  8
0
 10
3.68553196719
 20
-3.75688777371
 30
0.0
  0
VERTEX
  8
0
 10
2.7106954106
 20
-3.24661806699
 30
0.0
  0
VERTEX
  8
0
 10
1.88416669854
 20
-2.72689961475
 30
0.0
  0
VERTEX
  8
0
 10
1.20677807538
 20
-2.19816529228
 30
0.0
  0
VERTEX
  8
0
 10
0.679211614038
 20
-1.66080035646
 30
0.0
  0
VERTEX
  8
0
 10
0.301998529218
 20
-1.11513936757
 30
0.0
  0
VERTEX
  8
0
 10
0.0755186425221
 20
-0.56146374687
 30
0.0
  0
VERTEX
  8
0
 10
0.0424807960305
 20
-0.421820324208
 30
0.0
  0
VERTEX
  8
0
 10
0.0
 20
0.0
 30
0.0
  0
VERTEX
  8
0
 10
0.0424807960305
 20
0.421820324208
 30
0.0
  0
VERTEX
  8
0
 10
0.0755186425221
 20
0.56146374687
 30
0.0
  0
VERTEX
  8
0
 10
0.301998529218
 20
1.11513936757
 30
0.0
  0
VERTEX
  8
0
 10
0.679211614038
 20
1.66080035646
 30
0.0
  0
VERTEX
  8
0
 10
1.20677807538
 20
2.19816529228
 30
0.0
  0
VERTEX
  8
0
 10
1.88416669854
 20
2.72689961475
 30
0.0
  0
VERTEX
  8
0
 10
2.7106954106
 20
3.24661806699
 30
0.0
  0
VERTEX
  8
0
 10
3.68553196719
 20
3.75688777371
 30
0.0
  0
VERTEX
  8
0
 10
4.80769479054
 20
4.25723191737
 30
0.0
  0
VERTEX
  8
0
 10
6.07605395784
 20
4.74713396697
 30
0.0
  0
VERTEX
  8
0
 10
7.48933233885
 20
5.22604240782
 30
0.0
  0
VERTEX
  8
0
 10
9.0461068821
 20
5.69337591411
 30
0.0
  0
VERTEX
  8
0
 10
10.7448100476
 20
6.14852890158
 30
0.0
  0
VERTEX
  8
0
 10
12.5837313852
 20
6.59087739264
 30
0.0
  0
VERTEX
  8
0
 10
14.561019257
 20
7.01978512335
 30
0.0
  0
VERTEX
  8
0
 10
16.6746827018
 20
7.43460981888
 30
0.0
  0
VERTEX
  8
0
 10
18.9225934395
 20
7.83470956326
 30
0.0
  0
VERTEX
  8
0
 10
21.3024880148
 20
8.21944918758
 30
0.0
  0
VERTEX
  8
0
 10
23.8119700753
 20
8.58820660329
 30
0.0
  0
VERTEX
  8
0
 10
26.4485127855
 20
8.94037900668
 30
0.0
  0
VERTEX
  8
0
 10
29.2094613703
 20
9.27538888473
 30
0.0
  0
VERTEX
  8
0
 10
32.0920357887
 20
9.59268975543
 30
0.0
  0
VERTEX
  8
0
 10
35.0933335323
 20
9.89177157993
 30
0.0
  0
VERTEX
  8
0
 10
38.2103325486
 20
10.1721657889
 30
0.0
  0
VERTEX
  8
0
 10
41.4398942841
 20
10.4334498715
 30
0.0
  0
VERTEX
  8
0
 10
44.7787668441
 20
10.6752514825
 30
0.0
  0
VERTEX
  8
0
 10
48.2235882663
 20
10.8972520277
 30
0.0
  0
VERTEX
  8
0
 10
51.7708899081
 20
11.0991896982
 30
0.0
  0
VERTEX
  8
0
 10
55.4170999374
 20
11.2808619301
 30
0.0
  0
VERTEX
  8
0
 10
59.1585469293
 20
11.4421272742
 30
0.0
  0
VERTEX
  8
0
 10
62.9914635642
 20
11.582906667
 30
0.0
  0
VERTEX
  8
0
 10
66.9119904201
 20
11.7031841069
 30
0.0
  0
VERTEX
  8
0
 10
70.9161798585
 20
11.8030067402
 30
0.0
  0
VERTEX
  8
0
 10
75.0
 20
11.882484375
 30
0.0
  0
VERTEX
  8
0
 10
79.1593387842
 20
11.9417884457
 30
0.0
  0
VERTEX
  8
0
 10
83.3900081091
 20
11.9811504567
 30
0.0
  0
VERTEX
  8
0
 10
87.6877480497
 20
12.000859942
 30
0.0
  0
VERTEX
  8
0
 10
92.0482311459
 20
12.0012619818
 30
0.0
  0
VERTEX
  8
0
 10
96.4670667612
 20
11.9827543212
 30
0.0
  0
VERTEX
  8
0
 10
100.939805502
 20
11.9457841415
 30
0.0
  0
VERTEX
  8
0
 10
105.461943701
 20
11.8908445372
 30
0.0
  0
VERTEX
  8
0
 10
110.028927947
 20
11.8184707537
 30
0.0
  0
VERTEX
  8
0
 10
114.636159673
 20
11.7292362423
 30
0.0
  0
VERTEX
  8
0
 10
119.27899979
 20
11.6237485903
 30
0.0
  0
VERTEX
  8
0
 10
123.95277335
 20
11.5026453826
 30
0.0
  0
VERTEX
  8
0
 10
128.652774259
 20
11.3665900508
 30
0.0
  0
VERTEX
  8
0
 10
133.374270015
 20
11.2162677635
 30
0.0
  0
VERTEX
  8
0
 10
138.112506472
 20
11.0523814099
 30
0.0
  0
VERTEX
  8
0
 10
142.862712626
 20
10.8756477211
 30
0.0
  0
VERTEX
  8
0
 10
147.620105425
 20
10.6867935773
 30
0.0
  0
VERTEX
  8
0
 10
152.379894575
 20
10.4865525347
 30
0.0
  0
VERTEX
  8
0
 10
157.137287374
 20
10.2756616096
 30
0.0
  0
VERTEX
  8
0
 10
161.887493528
 20
10.0548583451
 30
0.0
  0
VERTEX
  8
0
 10
166.625729985
 20
9.8248781835
 30
0.0
  0
VERTEX
  8
0
 10
171.347225741
 20
9.58645216128
 30
0.0
  0
VERTEX
  8
0
 10
176.04722665
 20
9.34030493469
 30
0.0
  0
VERTEX
  8
0
 10
180.72100021
 20
9.0871531413
 30
0.0
  0
VERTEX
  8
0
 10
185.363840326
 20
8.82770409471
 30
0.0
  0
VERTEX
  8
0
 10
189.971072053
 20
8.56265480403
 30
0.0
  0
VERTEX
  8
0
 10
194.538056299
 20
8.29269130515
 30
0.0
  0
VERTEX
  8
0
 10
199.060194498
 20
8.01848828433
 30
0.0
  0
VERTEX
  8
0
 10
203.532933239
 20
7.74070897122
 30
0.0
  0
VERTEX
  8
0
 10
207.951768854
 20
7.46000527329
 30
0.0
  0
VERTEX
  8
0
 10
212.31225195
 20
7.17701812062
 30
0.0
  0
VERTEX
  8
0
 10
216.609991891
 20
6.89237798715
 30
0.0
  0
VERTEX
  8
0
 10
220.840661216
 20
6.60670555167
 30
0.0
  0
VERTEX
  8
0
 10
225.0
 20
6.32061246102
 30
0.0
  0
VERTEX
  8
0
 10
229.083820142
 20
6.03470215677
 30
0.0
  0
VERTEX
  8
0
 10
233.08800958
 20
5.74957072638
 30
0.0
  0
VERTEX
  8
0
 10
237.008536436
 20
5.46580774128
 30
0.0
  0
VERTEX
  8
0
 10
240.841453071
 20
5.18399704461
 30
0.0
  0
VERTEX
  8
0
 10
244.582900063
 20
4.90471745397
 30
0.0
  0
VERTEX
  8
0
 10
248.229110092
 20
4.6285433472
 30
0.0
  0
VERTEX
  8
0
 10
251.776411734
 20
4.35604510215
 30
0.0
  0
VERTEX
  8
0
 10
255.221233156
 20
4.0877893647
 30
0.0
  0
VERTEX
  8
0
 10
258.560105716
 20
3.82433912451
 30
0.0
  0
VERTEX
  8
0
 10
261.789667451
 20
3.56625358101
 30
0.0
  0
VERTEX
  8
0
 10
264.906666468
 20
3.31408778793
 30
0.0
  0
VERTEX
  8
0
 10
267.907964211
 20
3.0683920692
 30
0.0
  0
VERTEX
  8
0
 10
270.79053863
 20
2.82971120367
 30
0.0
  0
VERTEX
  8
0
 10
273.551487215
 20
2.59858338154
 30
0.0
  0
VERTEX
  8
0
 10
276.188029925
 20
2.37553894037
 30
0.0
  0
VERTEX
  8
0
 10
278.697511985
 20
2.16109889261
 30
0.0
  0
VERTEX
  8
0
 10
281.07740656
 20
1.95577326159
 30
0.0
  0
VERTEX
  8
0
 10
283.325317298
 20
1.760059247
 30
0.0
  0
VERTEX
  8
0
 10
285.438980743
 20
1.57443924416
 30
0.0
  0
VERTEX
  8
0
 10
287.416268615
 20
1.39937874515
 30
0.0
  0
VERTEX
  8
0
 10
289.255189952
 20
1.23532415223
 30
0.0
  0
VERTEX
  8
0
 10
290.953893118
 20
1.08270053607
 30
0.0
  0
VERTEX
  8
0
 10
292.510667661
 20
0.941909373213
 30
0.0
  0
VERTEX
  8
0
 10
293.923946042
 20
0.813326297589
 30
0.0
  0
VERTEX
  8
0
 10
295.192305209
 20
0.697298901438
 30
0.0
  0
VERTEX
  8
0
 10
296.314468033
 20
0.594144620565
 30
0.0
  0
VERTEX
  8
0
 10
297.289304589
 20
0.504148737696
 30
0.0
  0
VERTEX
  8
0
 10
298.115833301
 20
0.427562536101
 30
0.0
  0
VERTEX
  8
0
 10
298.793221925
 20
0.36460163343
 30
0.0
  0
VERTEX
  8
0
 10
299.320788386
 20
0.315444522831
 30
0.0
  0
VERTEX
  8
0
 10
299.698001471
 20
0.280231345234
 30
0.0
  0
VERTEX
  8
0
 10
299.924481358
 20
0.259062912852
 30
0.0
  0
VERTEX
  8
0
 10
300.0
 20
0.252
 30
0.0
  0
SEQEND
  0
ENDSEC
  0
EOF
