  0
SECTION
  2
HEADER
  9
$ACADVER
  1
AC1009
  9
$EXTMIN
 10
0.0
 20
0.0
 30
0.0
  9
$EXTMAX
 10
100.0
 20
100.0
 30
0.0
  9
$INSBASE
 10
0.0
 20
0.0
 30
0.0
  0
ENDSEC
  0
SECTION
  2
TABLES
  0
TABLE
  2
LTYPE
 70
19
  0
LTYPE
  2
PHANTOM
 70
0
  3
Phantom ______  __  __  ______  __  __  ______
 72
65
 73
6
 40
2.5
 49
1.25
 49
-0.25
 49
0.25
 49
-0.25
 49
0.25
 49
-0.25
  0
LTYPE
  2
DOT2
 70
0
  3
Dot (.5) . . . . . . . . . . . . . . . . . . . 
 72
65
 73
2
 40
0.1
 49
0.0
 49
-0.1
  0
LTYPE
  2
DIVIDE
 70
0
  3
Divide __ . . __ . . __ . . __ . . __ . . __
 72
65
 73
6
 40
1.6
 49
1.0
 49
-0.2
 49
0.0
 49
-0.2
 49
0.0
 49
-0.2
  0
LTYPE
  2
DIVIDEX2
 70
0
  3
Divide (2x) ____  . .  ____  . .  ____  . .  ____
 72
65
 73
6
 40
2.6
 49
2.0
 49
-0.2
 49
0.0
 49
-0.2
 49
0.0
 49
-0.2
  0
LTYPE
  2
CENTER
 70
0
  3
Center ____ _ ____ _ ____ _ ____ _ ____ _ ____
 72
65
 73
4
 40
2.0
 49
1.25
 49
-0.25
 49
0.25
 49
-0.25
  0
LTYPE
  2
DASHDOT
 70
0
  3
Dash dot __ . __ . __ . __ . __ . __ . __ . __
 72
65
 73
4
 40
1.4
 49
1.0
 49
-0.2
 49
0.0
 49
-0.2
  0
LTYPE
  2
CENTERX2
 70
0
  3
Center (2x) ________  __  ________  __  ________
 72
65
 73
4
 40
3.5
 49
2.5
 49
-0.25
 49
0.5
 49
-0.25
  0
LTYPE
  2
PHANTOMX2
 70
0
  3
Phantom (2x)____________    ____    ____    ____________
 72
65
 73
6
 40
4.25
 49
2.5
 49
-0.25
 49
0.5
 49
-0.25
 49
0.5
 49
-0.25
  0
LTYPE
  2
CONTINUOUS
 70
0
  3
Solid
 72
65
 73
0
 40
0.0
  0
LTYPE
  2
PHANTOM2
 70
0
  3
Phantom (.5x) ___ _ _ ___ _ _ ___ _ _ ___ _ _ ___
 72
65
 73
6
 40
1.25
 49
0.625
 49
-0.125
 49
0.125
 49
-0.125
 49
0.125
 49
-0.125
  0
LTYPE
  2
DASHED
 70
0
  3
Dashed __ __ __ __ __ __ __ __ __ __ __ __ __ _
 72
65
 73
2
 40
0.6
 49
0.5
 49
-0.1
  0
LTYPE
  2
DASHED2
 70
0
  3
Dashed (.5x) _ _ _ _ _ _ _ _ _ _ _ _ _ _
 72
65
 73
2
 40
0.3
 49
0.25
 49
-0.05
  0
LTYPE
  2
DASHDOT2
 70
0
  3
Dash dot (.5x) _ . _ . _ . _ . _ . _ . _ . _
 72
65
 73
4
 40
0.7
 49
0.5
 49
-0.1
 49
0.0
 49
-0.1
  0
LTYPE
  2
DOTX2
 70
0
  3
Dot (2x) .    .    .    .    .    .    .    . 
 72
65
 73
2
 40
0.4
 49
0.0
 49
-0.4
  0
LTYPE
  2
DIVIDE2
 70
0
  3
Divide(.5x) _ . _ . _ . _ . _ . _ . _ . _
 72
65
 73
6
 40
0.8
 49
0.5
 49
-0.1
 49
0.0
 49
-0.1
 49
0.0
 49
-0.1
  0
LTYPE
  2
CENTER2
 70
0
  3
Center (.5x) ____ _ ____ _ ____ _ ____ _ ____
 72
65
 73
4
 40
1.0
 49
0.625
 49
-0.125
 49
0.125
 49
-0.125
  0
LTYPE
  2
DASHDOTX2
 70
0
  3
Dash dot (2x) ____  .  ____  .  ____  .  ____
 72
65
 73
4
 40
2.4
 49
2.0
 49
-0.2
 49
0.0
 49
-0.2
  0
LTYPE
  2
DOT
 70
0
  3
Dot .  .  .  .  .  .  .  .  .  .  .  .  .  .  .  .
 72
65
 73
2
 40
0.2
 49
0.0
 49
-0.2
  0
LTYPE
  2
DASHEDX2
 70
0
  3
Dashed (2x) ____  ____  ____  ____  ____  ____
 72
65
 73
2
 40
1.2
 49
1.0
 49
-0.2
  0
ENDTAB
  0
TABLE
  2
LAYER
 70
5
  0
LAYER
  2
VIEWPORTS
 70
0
 62
7
  6
CONTINUOUS
  0
LAYER
  2
TABLEGRID
 70
0
 62
1
  6
CONTINUOUS
  0
LAYER
  2
TABLECONTENT
 70
0
 62
1
  6
CONTINUOUS
  0
LAYER
  2
DIMENSIONS
 70
0
 62
1
  6
CONTINUOUS
  0
LAYER
  2
TABLEBACKGROUND
 70
0
 62
1
  6
CONTINUOUS
  0
ENDTAB
  0
TABLE
  2
STYLE
 70
12
  0
STYLE
  2
TIMES
 70
0
 40
0.0
 41
1.0
 42
1.0
 50
0.0
 71
0
  3
times.ttf
  4

  0
STYLE
  2
ARIAL
 70
0
 40
0.0
 41
1.0
 42
1.0
 50
0.0
 71
0
  3
arial.ttf
  4

  0
STYLE
  2
TIMES_BOLD
 70
0
 40
0.0
 41
1.0
 42
1.0
 50
0.0
 71
0
  3
timesbd.ttf
  4

  0
STYLE
  2
ARIAL_BLACK
 70
0
 40
0.0
 41
1.0
 42
1.0
 50
0.0
 71
0
  3
ariblk.ttf
  4

  0
STYLE
  2
TIMES_ITALIC
 70
0
 40
0.0
 41
1.0
 42
1.0
 50
0.0
 71
0
  3
timesi.ttf
  4

  0
STYLE
  2
ISOCPEUR
 70
0
 40
0.0
 41
1.0
 42
1.0
 50
0.0
 71
0
  3
isocpeur.ttf
  4

  0
STYLE
  2
ARIAL_BOLD
 70
0
 40
0.0
 41
1.0
 42
1.0
 50
0.0
 71
0
  3
arialbd.ttf
  4

  0
STYLE
  2
ARIAL_ITALIC
 70
0
 40
0.0
 41
1.0
 42
1.0
 50
0.0
 71
0
  3
ariali.ttf
  4

  0
STYLE
  2
ARIAL_BOLD_ITALIC
 70
0
 40
0.0
 41
1.0
 42
1.0
 50
0.0
 71
0
  3
arialbi.ttf
  4

  0
STYLE
  2
TIMES_BOLD_ITALIC
 70
0
 40
0.0
 41
1.0
 42
1.0
 50
0.0
 71
0
  3
timesbi.ttf
  4

  0
STYLE
  2
ISOCPEUR_ITALIC
 70
0
 40
0.0
 41
1.0
 42
1.0
 50
0.0
 71
0
  3
isocpeui.ttf
  4

  0
STYLE
  2
STANDARD
 70
0
 40
0.0
 41
1.0
 42
1.0
 50
0.0
 71
0
  3
arial.ttf
  4

  0
ENDTAB
  0
TABLE
  2
VIEW
 70
0
  0
ENDTAB
  0
TABLE
  2
APPID
 70
1
  0
APPID
  2
DXFWRITE
 70
0
  0
ENDTAB
  0
TABLE
  2
VPORT
 70
0
  0
ENDTAB
  0
TABLE
  2
UCS
 70
0
  0
ENDTAB
  0
ENDSEC
  0
SECTION
  2
BLOCKS
  0
ENDSEC
  0
SECTION
  2
ENTITIES
  0
VIEWPORT
  8
VIEWPORTS
 67
1
 10
0.0
 20
0.0
 30
0.0
 40
1.0
 41
1.0
 68
1
 69
1
1001
ACAD
1000
MVIEW
1002
{
1070
16
1010
0.0
1020
0.0
1030
0.0
1010
0.0
1020
0.0
1030
0.0
1040
0.0
1040
1.0
1040
0.0
1040
0.0
1040
50.0
1040
0.0
1040
0.0
1070
0
1070
100
1070
1
1070
3
1070
0
1070
0
1070
0
1070
0
1040
0.0
1040
0.0
1040
0.0
1040
0.1
1040
0.1
1040
0.1
1040
0.1
1070
0
1002
{
1002
}
1002
}
  0
POLYLINE
  6
CONTINUOUS
  8
0
 66
1
 10
0.0
 20
0.0
 30
0.0
 70
8
  0
VERTEX
  8
0
 10
3.0
 20
0.0
 30
0.0
  0
VERTEX
  8
0
 10
2.99691808912
 20
0.00280809868332
 30
0.0
  0
VERTEX
  8
0
 10
2.98768502074
 20
0.00366902340663
 30
0.0
  0
VERTEX
  8
0
 10
2.97233873549
 20
0.00509275703898
 30
0.0
  0
VERTEX
  8
0
 10
2.95094229456
 20
0.00706292071731
 30
0.0
  0
VERTEX
  8
0
 10
2.92358362052
 20
0.00955722619272
 30
0.0
  0
VERTEX
  8
0
 10
2.89037513602
 20
0.0125480664191
 30
0.0
  0
VERTEX
  8
0
 10
2.85145330185
 20
0.0160032054773
 30
0.0
  0
VERTEX
  8
0
 10
2.80697805619
 20
0.0198865229267
 30
0.0
  0
VERTEX
  8
0
 10
2.75713215734
 20
0.0241587649994
 30
0.0
  0
VERTEX
  8
0
 10
2.7021204328
 20
0.0287782559245
 30
0.0
  0
VERTEX
  8
0
 10
2.64216893755
 20
0.0337015270608
 30
0.0
  0
VERTEX
  8
0
 10
2.57752402515
 20
0.0388838291217
 30
0.0
  0
VERTEX
  8
0
 10
2.50845133539
 20
0.0442795030983
 30
0.0
  0
VERTEX
  8
0
 10
2.43523470279
 20
0.0498421977705
 30
0.0
  0
VERTEX
  8
0
 10
2.35817499018
 20
0.055524935091
 30
0.0
  0
VERTEX
  8
0
 10
2.27758885246
 20
0.0612800382399
 30
0.0
  0
VERTEX
  8
0
 10
2.19380743536
 20
0.0670589498049
 30
0.0
  0
VERTEX
  8
0
 10
2.10717501468
 20
0.0728119783635
 30
0.0
  0
VERTEX
  8
0
 10
2.01804758163
 20
0.0784880199135
 30
0.0
  0
VERTEX
  8
0
 10
1.92679137995
 20
0.0840343054275
 30
0.0
  0
VERTEX
  8
0
 10
1.83378140093
 20
0.08939622684
 30
0.0
  0
VERTEX
  8
0
 10
1.73939984255
 20
0.0945172908321
 30
0.0
  0
VERTEX
  8
0
 10
1.64403453886
 20
0.0993392429226
 30
0.0
  0
VERTEX
  8
0
 10
1.54807736636
 20
0.103802393941
 30
0.0
  0
VERTEX
  8
0
 10
1.45192263364
 20
0.107846167593
 30
0.0
  0
VERTEX
  8
0
 10
1.35596546114
 20
0.111409872312
 30
0.0
  0
VERTEX
  8
0
 10
1.26060015745
 20
0.114433683916
 30
0.0
  0
VERTEX
  8
0
 10
1.16621859907
 20
0.116859808931
 30
0.0
  0
VERTEX
  8
0
 10
1.07320862005
 20
0.118633782769
 30
0.0
  0
VERTEX
  8
0
 10
0.981952418367
 20
0.119705843584
 30
0.0
  0
VERTEX
  8
0
 10
0.892824985317
 20
0.120032312271
 30
0.0
  0
VERTEX
  8
0
 10
0.80619256464
 20
0.119576902829
 30
0.0
  0
VERTEX
  8
0
 10
0.722411147535
 20
0.118311885446
 30
0.0
  0
VERTEX
  8
0
 10
0.641825009817
 20
0.11621902771
 30
0.0
  0
VERTEX
  8
0
 10
0.564765297213
 20
0.113290247132
 30
0.0
  0
VERTEX
  8
0
 10
0.491548664607
 20
0.109527920434
 30
0.0
  0
VERTEX
  8
0
 10
0.422475974853
 20
0.104944811244
 30
0.0
  0
VERTEX
  8
0
 10
0.357831062445
 20
0.0995635968912
 30
0.0
  0
VERTEX
  8
0
 10
0.297879567198
 20
0.0934159961478
 30
0.0
  0
VERTEX
  8
0
 10
0.242867842662
 20
0.0865415214504
 30
0.0
  0
VERTEX
  8
0
 10
0.193021943815
 20
0.0789859003533
 30
0.0
  0
VERTEX
  8
0
 10
0.148546698146
 20
0.0707992302615
 30
0.0
  0
VERTEX
  8
0
 10
0.109624863981
 20
0.0620339467719
 30
0.0
  0
VERTEX
  8
0
 10
0.0764163794841
 20
0.0527426981451
 30
0.0
  0
VERTEX
  8
0
 10
0.0490577054415
 20
0.0429762257712
 30
0.0
  0
VERTEX
  8
0
 10
0.0276612645134
 20
0.0327813524652
 30
0.0
  0
VERTEX
  8
0
 10
0.0123149792651
 20
0.0221991768238
 30
0.0
  0
VERTEX
  8
0
 10
0.00308191087449
 20
0.0112635628445
 30
0.0
  0
VERTEX
  8
0
 10
0.00173383470498
 20
0.00847761773391
 30
0.0
  0
VERTEX
  8
0
 10
0.0
 20
0.0
 30
0.0
  0
VERTEX
  8
0
 10
0.00173383470498
 20
-0.00847761773391
 30
0.0
  0
VERTEX
  8
0
 10
0.00308191087449
 20
-0.0112635628445
 30
0.0
  0
VERTEX
  8
0
 10
0.0123149792651
 20
-0.0221991768238
 30
0.0
  0
VERTEX
  8
0
 10
0.0276612645134
 20
-0.0327813524652
 30
0.0
  0
VERTEX
  8
0
 10
0.0490577054415
 20
-0.0429762257712
 30
0.0
  0
VERTEX
  8
0
 10
0.0764163794841
 20
-0.0527426981451
 30
0.0
  0
VERTEX
  8
0
 10
0.109624863981
 20
-0.0620339467719
 30
0.0
  0
VERTEX
  8
0
 10
0.148546698146
 20
-0.0707992302615
 30
0.0
  0
VERTEX
  8
0
 10
0.193021943815
 20
-0.0789859003533
 30
0.0
  0
VERTEX
  8
0
 10
0.242867842662
 20
-0.0865415214504
 30
0.0
  0
VERTEX
  8
0
 10
0.297879567198
 20
-0.0934159961478
 30
0.0
  0
VERTEX
  8
0
 10
0.357831062445
 20
-0.0995635968912
 30
0.0
  0
VERTEX
  8
0
 10
0.422475974853
 20
-0.104944811244
 30
0.0
  0
VERTEX
  8
0
 10
0.491548664607
 20
-0.109527920434
 30
0.0
  0
VERTEX
  8
0
 10
0.564765297213
 20
-0.113290247132
 30
0.0
  0
VERTEX
  8
0
 10
0.641825009817
 20
-0.11621902771
 30
0.0
  0
VERTEX
  8
0
 10
0.722411147535
 20
-0.118311885446
 30
0.0
  0
VERTEX
  8
0
 10
0.80619256464
 20
-0.119576902829
 30
0.0
  0
VERTEX
  8
0
 10
0.892824985317
 20
-0.120032312271
 30
0.0
  0
VERTEX
  8
0
 10
0.981952418367
 20
-0.119705843584
 30
0.0
  0
VERTEX
  8
0
 10
1.07320862005
 20
-0.118633782769
 30
0.0
  0
VERTEX
  8
0
 10
1.16621859907
 20
-0.116859808931
 30
0.0
  0
VERTEX
  8
0
 10
1.26060015745
 20
-0.114433683916
 30
0.0
  0
VERTEX
  8
0
 10
1.35596546114
 20
-0.111409872312
 30
0.0
  0
VERTEX
  8
0
 10
1.45192263364
 20
-0.107846167593
 30
0.0
  0
VERTEX
  8
0
 10
1.54807736636
 20
-0.103802393941
 30
0.0
  0
VERTEX
  8
0
 10
1.64403453886
 20
-0.0993392429226
 30
0.0
  0
VERTEX
  8
0
 10
1.73939984255
 20
-0.0945172908321
 30
0.0
  0
VERTEX
  8
0
 10
1.83378140093
 20
-0.08939622684
 30
0.0
  0
VERTEX
  8
0
 10
1.92679137995
 20
-0.0840343054275
 30
0.0
  0
VERTEX
  8
0
 10
2.01804758163
 20
-0.0784880199135
 30
0.0
  0
VERTEX
  8
0
 10
2.10717501468
 20
-0.0728119783635
 30
0.0
  0
VERTEX
  8
0
 10
2.19380743536
 20
-0.0670589498049
 30
0.0
  0
VERTEX
  8
0
 10
2.27758885246
 20
-0.0612800382399
 30
0.0
  0
VERTEX
  8
0
 10
2.35817499018
 20
-0.055524935091
 30
0.0
  0
VERTEX
  8
0
 10
2.43523470279
 20
-0.0498421977705
 30
0.0
  0
VERTEX
  8
0
 10
2.50845133539
 20
-0.0442795030983
 30
0.0
  0
VERTEX
  8
0
 10
2.57752402515
 20
-0.0388838291217
 30
0.0
  0
VERTEX
  8
0
 10
2.64216893755
 20
-0.0337015270608
 30
0.0
  0
VERTEX
  8
0
 10
2.7021204328
 20
-0.0287782559245
 30
0.0
  0
VERTEX
  8
0
 10
2.75713215734
 20
-0.0241587649994
 30
0.0
  0
VERTEX
  8
0
 10
2.80697805619
 20
-0.0198865229267
 30
0.0
  0
VERTEX
  8
0
 10
2.85145330185
 20
-0.0160032054773
 30
0.0
  0
VERTEX
  8
0
 10
2.89037513602
 20
-0.0125480664191
 30
0.0
  0
VERTEX
  8
0
 10
2.92358362052
 20
-0.00955722619272
 30
0.0
  0
VERTEX
  8
0
 10
2.95094229456
 20
-0.00706292071731
 30
0.0
  0
VERTEX
  8
0
 10
2.97233873549
 20
-0.00509275703898
 30
0.0
  0
VERTEX
  8
0
 10
2.98768502074
 20
-0.00366902340663
 30
0.0
  0
VERTEX
  8
0
 10
2.99691808912
 20
-0.00280809868332
 30
0.0
  0
VERTEX
  8
0
 10
3.0
 20
-0.00252
 30
0.0
  0
SEQEND
  0
ENDSEC
  0
EOF
