<?xml version="1.0" encoding="ISO-8859-1" standalone="no"?><svg xmlns="http://www.w3.org/2000/svg" version="1.1" x="test" xmlns:xlink="http://www.w3.org/1999/xlink"  >
<polyline style="stroke:blue; stroke-width:1; fill:none; " points="300.0,0.0  299.691808912,0.280809868332  298.768502074,0.366902340663  297.233873549,0.509275703898  295.094229456,0.706292071731  292.358362052,0.955722619272  289.037513602,1.25480664191  285.145330185,1.60032054773  280.697805619,1.98865229267  275.713215734,2.41587649993  270.21204328,2.87782559245  264.216893755,3.37015270608  257.752402515,3.88838291217  250.845133539,4.42795030983  243.523470279,4.98421977705  235.817499018,5.5524935091  227.758885246,6.12800382399  219.380743536,6.70589498049  210.717501468,7.28119783635  201.804758163,7.84880199135  192.679137995,8.40343054275  183.378140093,8.939622684  173.939984255,9.45172908321  164.403453886,9.93392429226  154.807736636,10.3802393941  145.192263364,10.7846167593  135.596546114,11.1409872312  126.060015745,11.4433683916  116.621859907,11.6859808931  107.320862005,11.8633782769  98.1952418367,11.9705843584  89.2824985317,12.0032312271  80.619256464,11.9576902829  72.2411147535,11.8311885446  64.1825009817,11.621902771  56.4765297213,11.3290247131  49.1548664607,10.9527920434  42.2475974853,10.4944811244  35.7831062445,9.95635968912  29.7879567198,9.34159961478  24.2867842662,8.65415214504  19.3021943815,7.89859003533  14.8546698146,7.07992302615  10.9624863981,6.20339467719  7.64163794841,5.27426981451  4.90577054415,4.29762257712  2.76612645134,3.27813524652  1.23149792651,2.21991768238  0.308191087449,1.12635628445  0.173383470498,0.847761773391  0.0,0.0  0.173383470498,-0.847761773391  0.308191087449,-1.12635628445  1.23149792651,-2.21991768238  2.76612645134,-3.27813524652  4.90577054415,-4.29762257712  7.64163794841,-5.27426981451  10.9624863981,-6.20339467719  14.8546698146,-7.07992302615  19.3021943815,-7.89859003533  24.2867842662,-8.65415214504  29.7879567198,-9.34159961478  35.7831062445,-9.95635968912  42.2475974853,-10.4944811244  49.1548664607,-10.9527920434  56.4765297213,-11.3290247131  64.1825009817,-11.621902771  72.2411147535,-11.8311885446  80.619256464,-11.9576902829  89.2824985317,-12.0032312271  98.1952418367,-11.9705843584  107.320862005,-11.8633782769  116.621859907,-11.6859808931  126.060015745,-11.4433683916  135.596546114,-11.1409872312  145.192263364,-10.7846167593  154.807736636,-10.3802393941  164.403453886,-9.93392429226  173.939984255,-9.45172908321  183.378140093,-8.939622684  192.679137995,-8.40343054275  201.804758163,-7.84880199135  210.717501468,-7.28119783635  219.380743536,-6.70589498049  227.758885246,-6.12800382399  235.817499018,-5.5524935091  243.523470279,-4.98421977705  250.845133539,-4.42795030983  257.752402515,-3.88838291217  264.216893755,-3.37015270608  270.21204328,-2.87782559245  275.713215734,-2.41587649993  280.697805619,-1.98865229267  285.145330185,-1.60032054773  289.037513602,-1.25480664191  292.358362052,-0.955722619272  295.094229456,-0.706292071731  297.233873549,-0.509275703898  298.768502074,-0.366902340663  299.691808912,-0.280809868332  300.0,-0.252  "  />
</svg>
