  0
SECTION
  2
HEADER
  9
$ACADVER
  1
AC1009
  9
$EXTMIN
 10
0.0
 20
0.0
 30
0.0
  9
$EXTMAX
 10
100.0
 20
100.0
 30
0.0
  9
$INSBASE
 10
0.0
 20
0.0
 30
0.0
  0
ENDSEC
  0
SECTION
  2
TABLES
  0
TABLE
  2
LTYPE
 70
19
  0
LTYPE
  2
PHANTOM
 70
0
  3
Phantom ______  __  __  ______  __  __  ______
 72
65
 73
6
 40
2.5
 49
1.25
 49
-0.25
 49
0.25
 49
-0.25
 49
0.25
 49
-0.25
  0
LTYPE
  2
DOT2
 70
0
  3
Dot (.5) . . . . . . . . . . . . . . . . . . . 
 72
65
 73
2
 40
0.1
 49
0.0
 49
-0.1
  0
LTYPE
  2
DIVIDE
 70
0
  3
Divide __ . . __ . . __ . . __ . . __ . . __
 72
65
 73
6
 40
1.6
 49
1.0
 49
-0.2
 49
0.0
 49
-0.2
 49
0.0
 49
-0.2
  0
LTYPE
  2
DIVIDEX2
 70
0
  3
Divide (2x) ____  . .  ____  . .  ____  . .  ____
 72
65
 73
6
 40
2.6
 49
2.0
 49
-0.2
 49
0.0
 49
-0.2
 49
0.0
 49
-0.2
  0
LTYPE
  2
CENTER
 70
0
  3
Center ____ _ ____ _ ____ _ ____ _ ____ _ ____
 72
65
 73
4
 40
2.0
 49
1.25
 49
-0.25
 49
0.25
 49
-0.25
  0
LTYPE
  2
DASHDOT
 70
0
  3
Dash dot __ . __ . __ . __ . __ . __ . __ . __
 72
65
 73
4
 40
1.4
 49
1.0
 49
-0.2
 49
0.0
 49
-0.2
  0
LTYPE
  2
CENTERX2
 70
0
  3
Center (2x) ________  __  ________  __  ________
 72
65
 73
4
 40
3.5
 49
2.5
 49
-0.25
 49
0.5
 49
-0.25
  0
LTYPE
  2
PHANTOMX2
 70
0
  3
Phantom (2x)____________    ____    ____    ____________
 72
65
 73
6
 40
4.25
 49
2.5
 49
-0.25
 49
0.5
 49
-0.25
 49
0.5
 49
-0.25
  0
LTYPE
  2
CONTINUOUS
 70
0
  3
Solid
 72
65
 73
0
 40
0.0
  0
LTYPE
  2
PHANTOM2
 70
0
  3
Phantom (.5x) ___ _ _ ___ _ _ ___ _ _ ___ _ _ ___
 72
65
 73
6
 40
1.25
 49
0.625
 49
-0.125
 49
0.125
 49
-0.125
 49
0.125
 49
-0.125
  0
LTYPE
  2
DASHED
 70
0
  3
Dashed __ __ __ __ __ __ __ __ __ __ __ __ __ _
 72
65
 73
2
 40
0.6
 49
0.5
 49
-0.1
  0
LTYPE
  2
DASHED2
 70
0
  3
Dashed (.5x) _ _ _ _ _ _ _ _ _ _ _ _ _ _
 72
65
 73
2
 40
0.3
 49
0.25
 49
-0.05
  0
LTYPE
  2
DASHDOT2
 70
0
  3
Dash dot (.5x) _ . _ . _ . _ . _ . _ . _ . _
 72
65
 73
4
 40
0.7
 49
0.5
 49
-0.1
 49
0.0
 49
-0.1
  0
LTYPE
  2
DOTX2
 70
0
  3
Dot (2x) .    .    .    .    .    .    .    . 
 72
65
 73
2
 40
0.4
 49
0.0
 49
-0.4
  0
LTYPE
  2
DIVIDE2
 70
0
  3
Divide(.5x) _ . _ . _ . _ . _ . _ . _ . _
 72
65
 73
6
 40
0.8
 49
0.5
 49
-0.1
 49
0.0
 49
-0.1
 49
0.0
 49
-0.1
  0
LTYPE
  2
CENTER2
 70
0
  3
Center (.5x) ____ _ ____ _ ____ _ ____ _ ____
 72
65
 73
4
 40
1.0
 49
0.625
 49
-0.125
 49
0.125
 49
-0.125
  0
LTYPE
  2
DASHDOTX2
 70
0
  3
Dash dot (2x) ____  .  ____  .  ____  .  ____
 72
65
 73
4
 40
2.4
 49
2.0
 49
-0.2
 49
0.0
 49
-0.2
  0
LTYPE
  2
DOT
 70
0
  3
Dot .  .  .  .  .  .  .  .  .  .  .  .  .  .  .  .
 72
65
 73
2
 40
0.2
 49
0.0
 49
-0.2
  0
LTYPE
  2
DASHEDX2
 70
0
  3
Dashed (2x) ____  ____  ____  ____  ____  ____
 72
65
 73
2
 40
1.2
 49
1.0
 49
-0.2
  0
ENDTAB
  0
TABLE
  2
LAYER
 70
5
  0
LAYER
  2
VIEWPORTS
 70
0
 62
7
  6
CONTINUOUS
  0
LAYER
  2
TABLEGRID
 70
0
 62
1
  6
CONTINUOUS
  0
LAYER
  2
TABLECONTENT
 70
0
 62
1
  6
CONTINUOUS
  0
LAYER
  2
DIMENSIONS
 70
0
 62
1
  6
CONTINUOUS
  0
LAYER
  2
TABLEBACKGROUND
 70
0
 62
1
  6
CONTINUOUS
  0
ENDTAB
  0
TABLE
  2
STYLE
 70
12
  0
STYLE
  2
TIMES
 70
0
 40
0.0
 41
1.0
 42
1.0
 50
0.0
 71
0
  3
times.ttf
  4

  0
STYLE
  2
ARIAL
 70
0
 40
0.0
 41
1.0
 42
1.0
 50
0.0
 71
0
  3
arial.ttf
  4

  0
STYLE
  2
TIMES_BOLD
 70
0
 40
0.0
 41
1.0
 42
1.0
 50
0.0
 71
0
  3
timesbd.ttf
  4

  0
STYLE
  2
ARIAL_BLACK
 70
0
 40
0.0
 41
1.0
 42
1.0
 50
0.0
 71
0
  3
ariblk.ttf
  4

  0
STYLE
  2
TIMES_ITALIC
 70
0
 40
0.0
 41
1.0
 42
1.0
 50
0.0
 71
0
  3
timesi.ttf
  4

  0
STYLE
  2
ISOCPEUR
 70
0
 40
0.0
 41
1.0
 42
1.0
 50
0.0
 71
0
  3
isocpeur.ttf
  4

  0
STYLE
  2
ARIAL_BOLD
 70
0
 40
0.0
 41
1.0
 42
1.0
 50
0.0
 71
0
  3
arialbd.ttf
  4

  0
STYLE
  2
ARIAL_ITALIC
 70
0
 40
0.0
 41
1.0
 42
1.0
 50
0.0
 71
0
  3
ariali.ttf
  4

  0
STYLE
  2
ARIAL_BOLD_ITALIC
 70
0
 40
0.0
 41
1.0
 42
1.0
 50
0.0
 71
0
  3
arialbi.ttf
  4

  0
STYLE
  2
TIMES_BOLD_ITALIC
 70
0
 40
0.0
 41
1.0
 42
1.0
 50
0.0
 71
0
  3
timesbi.ttf
  4

  0
STYLE
  2
ISOCPEUR_ITALIC
 70
0
 40
0.0
 41
1.0
 42
1.0
 50
0.0
 71
0
  3
isocpeui.ttf
  4

  0
STYLE
  2
STANDARD
 70
0
 40
0.0
 41
1.0
 42
1.0
 50
0.0
 71
0
  3
arial.ttf
  4

  0
ENDTAB
  0
TABLE
  2
VIEW
 70
0
  0
ENDTAB
  0
TABLE
  2
APPID
 70
1
  0
APPID
  2
DXFWRITE
 70
0
  0
ENDTAB
  0
TABLE
  2
VPORT
 70
0
  0
ENDTAB
  0
TABLE
  2
UCS
 70
0
  0
ENDTAB
  0
ENDSEC
  0
SECTION
  2
BLOCKS
  0
ENDSEC
  0
SECTION
  2
ENTITIES
  0
VIEWPORT
  8
VIEWPORTS
 67
1
 10
0.0
 20
0.0
 30
0.0
 40
1.0
 41
1.0
 68
1
 69
1
1001
ACAD
1000
MVIEW
1002
{
1070
16
1010
0.0
1020
0.0
1030
0.0
1010
0.0
1020
0.0
1030
0.0
1040
0.0
1040
1.0
1040
0.0
1040
0.0
1040
50.0
1040
0.0
1040
0.0
1070
0
1070
100
1070
1
1070
3
1070
0
1070
0
1070
0
1070
0
1040
0.0
1040
0.0
1040
0.0
1040
0.1
1040
0.1
1040
0.1
1040
0.1
1070
0
1002
{
1002
}
1002
}
  0
POLYLINE
  6
CONTINUOUS
  8
0
 66
1
 10
0.0
 20
0.0
 30
0.0
 70
8
  0
VERTEX
  8
0
 10
45.315
 20
300.0
 30
0.0
  0
VERTEX
  8
0
 10
45.5917581
 20
297.62142
 30
0.0
  0
VERTEX
  8
0
 10
45.9798066
 20
294.24684
 30
0.0
  0
VERTEX
  8
0
 10
46.4289771
 20
290.28213
 30
0.0
  0
VERTEX
  8
0
 10
46.9121946
 20
285.94515
 30
0.0
  0
VERTEX
  8
0
 10
47.4067785
 20
281.4273
 30
0.0
  0
VERTEX
  8
0
 10
47.9007207
 20
276.83358
 30
0.0
  0
VERTEX
  8
0
 10
48.389046
 20
272.20947
 30
0.0
  0
VERTEX
  8
0
 10
48.869961
 20
267.57285
 30
0.0
  0
VERTEX
  8
0
 10
49.342893
 20
262.93047
 30
0.0
  0
VERTEX
  8
0
 10
49.807719
 20
258.285
 30
0.0
  0
VERTEX
  8
0
 10
50.264463
 20
253.63743
 30
0.0
  0
VERTEX
  8
0
 10
50.713173
 20
248.98833
 30
0.0
  0
VERTEX
  8
0
 10
51.153909
 20
244.33797
 30
0.0
  0
VERTEX
  8
0
 10
51.58671
 20
239.68653
 30
0.0
  0
VERTEX
  8
0
 10
52.011588
 20
235.03425
 30
0.0
  0
VERTEX
  8
0
 10
52.42854
 20
230.38128
 30
0.0
  0
VERTEX
  8
0
 10
52.837527
 20
225.7278
 30
0.0
  0
VERTEX
  8
0
 10
53.238495
 20
221.07396
 30
0.0
  0
VERTEX
  8
0
 10
53.631354
 20
216.41994
 30
0.0
  0
VERTEX
  8
0
 10
54.015993
 20
211.76595
 30
0.0
  0
VERTEX
  8
0
 10
54.392274
 20
207.11211
 30
0.0
  0
VERTEX
  8
0
 10
54.760023
 20
202.45863
 30
0.0
  0
VERTEX
  8
0
 10
55.119042
 20
197.80566
 30
0.0
  0
VERTEX
  8
0
 10
55.469109
 20
193.15344
 30
0.0
  0
VERTEX
  8
0
 10
55.809963
 20
188.50209
 30
0.0
  0
VERTEX
  8
0
 10
56.141316
 20
183.85185
 30
0.0
  0
VERTEX
  8
0
 10
56.462847
 20
179.2029
 30
0.0
  0
VERTEX
  8
0
 10
56.774205
 20
174.55545
 30
0.0
  0
VERTEX
  8
0
 10
57.075
 20
169.90968
 30
0.0
  0
VERTEX
  8
0
 10
57.364815
 20
165.26586
 30
0.0
  0
VERTEX
  8
0
 10
57.643191
 20
160.6242
 30
0.0
  0
VERTEX
  8
0
 10
57.90963
 20
155.98491
 30
0.0
  0
VERTEX
  8
0
 10
58.163604
 20
151.34829
 30
0.0
  0
VERTEX
  8
0
 10
58.404534
 20
146.71458
 30
0.0
  0
VERTEX
  8
0
 10
58.631805
 20
142.08405
 30
0.0
  0
VERTEX
  8
0
 10
58.844757
 20
137.45706
 30
0.0
  0
VERTEX
  8
0
 10
59.042676
 20
132.83391
 30
0.0
  0
VERTEX
  8
0
 10
59.224809
 20
128.21499
 30
0.0
  0
VERTEX
  8
0
 10
59.39034
 20
123.60063
 30
0.0
  0
VERTEX
  8
0
 10
59.538402
 20
118.99131
 30
0.0
  0
VERTEX
  8
0
 10
59.668065
 20
114.38751
 30
0.0
  0
VERTEX
  8
0
 10
59.778333
 20
109.78971
 30
0.0
  0
VERTEX
  8
0
 10
59.868138
 20
105.19851
 30
0.0
  0
VERTEX
  8
0
 10
59.936334
 20
100.6146
 30
0.0
  0
VERTEX
  8
0
 10
59.981688
 20
96.03873
 30
0.0
  0
VERTEX
  8
0
 10
60.002871
 20
91.47171
 30
0.0
  0
VERTEX
  8
0
 10
59.998455
 20
86.91456
 30
0.0
  0
VERTEX
  8
0
 10
59.966886
 20
82.36839
 30
0.0
  0
VERTEX
  8
0
 10
59.906478
 20
77.83458
 30
0.0
  0
VERTEX
  8
0
 10
59.815398
 20
73.31466
 30
0.0
  0
VERTEX
  8
0
 10
59.691642
 20
68.81055
 30
0.0
  0
VERTEX
  8
0
 10
59.533008
 20
64.3245
 30
0.0
  0
VERTEX
  8
0
 10
59.337075
 20
59.85936
 30
0.0
  0
VERTEX
  8
0
 10
59.101164
 20
55.41858
 30
0.0
  0
VERTEX
  8
0
 10
58.82232
 20
51.00669
 30
0.0
  0
VERTEX
  8
0
 10
58.497285
 20
46.62945
 30
0.0
  0
VERTEX
  8
0
 10
58.122492
 20
42.29475
 30
0.0
  0
VERTEX
  8
0
 10
57.694155
 20
38.01369
 30
0.0
  0
VERTEX
  8
0
 10
57.208512
 20
33.80235
 30
0.0
  0
VERTEX
  8
0
 10
56.662449
 20
29.685402
 30
0.0
  0
VERTEX
  8
0
 10
56.054868
 20
25.700823
 30
0.0
  0
VERTEX
  8
0
 10
55.389219
 20
21.905946
 30
0.0
  0
VERTEX
  8
0
 10
54.676827
 20
18.379029
 30
0.0
  0
VERTEX
  8
0
 10
53.938629
 20
15.206694
 30
0.0
  0
VERTEX
  8
0
 10
53.201307
 20
12.453531
 30
0.0
  0
VERTEX
  8
0
 10
52.488228
 20
10.133964
 30
0.0
  0
VERTEX
  8
0
 10
51.812481
 20
8.212581
 30
0.0
  0
VERTEX
  8
0
 10
51.176637
 20
6.627726
 30
0.0
  0
VERTEX
  8
0
 10
50.576721
 20
5.315196
 30
0.0
  0
VERTEX
  8
0
 10
50.00598
 20
4.220298
 30
0.0
  0
VERTEX
  8
0
 10
49.457013
 20
3.30057
 30
0.0
  0
VERTEX
  8
0
 10
48.922776
 20
2.5247496
 30
0.0
  0
VERTEX
  8
0
 10
48.396933
 20
1.8707739
 30
0.0
  0
VERTEX
  8
0
 10
47.8741029
 20
1.3239474
 30
0.0
  0
VERTEX
  8
0
 10
47.3502105
 20
0.8754687
 30
0.0
  0
VERTEX
  8
0
 10
46.8231747
 20
0.5211384
 30
0.0
  0
VERTEX
  8
0
 10
46.2938433
 20
0.25967979
 30
0.0
  0
VERTEX
  8
0
 10
45.7665837
 20
0.09022998
 30
0.0
  0
VERTEX
  8
0
 10
45.25030464
 20
0.009543297
 30
0.0
  0
VERTEX
  8
0
 10
44.74969536
 20
0.009543297
 30
0.0
  0
VERTEX
  8
0
 10
44.2334163
 20
0.09022998
 30
0.0
  0
VERTEX
  8
0
 10
43.7061567
 20
0.25967979
 30
0.0
  0
VERTEX
  8
0
 10
43.1768253
 20
0.5211384
 30
0.0
  0
VERTEX
  8
0
 10
42.6497895
 20
0.8754687
 30
0.0
  0
VERTEX
  8
0
 10
42.1258971
 20
1.3239474
 30
0.0
  0
VERTEX
  8
0
 10
41.603067
 20
1.8707739
 30
0.0
  0
VERTEX
  8
0
 10
41.077224
 20
2.5247496
 30
0.0
  0
VERTEX
  8
0
 10
40.542987
 20
3.30057
 30
0.0
  0
VERTEX
  8
0
 10
39.99402
 20
4.220298
 30
0.0
  0
VERTEX
  8
0
 10
39.423279
 20
5.315196
 30
0.0
  0
VERTEX
  8
0
 10
38.823363
 20
6.627726
 30
0.0
  0
VERTEX
  8
0
 10
38.187519
 20
8.212581
 30
0.0
  0
VERTEX
  8
0
 10
37.511772
 20
10.133964
 30
0.0
  0
VERTEX
  8
0
 10
36.798693
 20
12.453531
 30
0.0
  0
VERTEX
  8
0
 10
36.061371
 20
15.206694
 30
0.0
  0
VERTEX
  8
0
 10
35.323173
 20
18.379029
 30
0.0
  0
VERTEX
  8
0
 10
34.610781
 20
21.905946
 30
0.0
  0
VERTEX
  8
0
 10
33.945132
 20
25.700823
 30
0.0
  0
VERTEX
  8
0
 10
33.337551
 20
29.685402
 30
0.0
  0
VERTEX
  8
0
 10
32.791488
 20
33.80235
 30
0.0
  0
VERTEX
  8
0
 10
32.305845
 20
38.01369
 30
0.0
  0
VERTEX
  8
0
 10
31.877508
 20
42.29475
 30
0.0
  0
VERTEX
  8
0
 10
31.502715
 20
46.62945
 30
0.0
  0
VERTEX
  8
0
 10
31.17768
 20
51.00669
 30
0.0
  0
VERTEX
  8
0
 10
30.898836
 20
55.41858
 30
0.0
  0
VERTEX
  8
0
 10
30.662925
 20
59.85936
 30
0.0
  0
VERTEX
  8
0
 10
30.466992
 20
64.3245
 30
0.0
  0
VERTEX
  8
0
 10
30.308358
 20
68.81055
 30
0.0
  0
VERTEX
  8
0
 10
30.184602
 20
73.31466
 30
0.0
  0
VERTEX
  8
0
 10
30.093522
 20
77.83458
 30
0.0
  0
VERTEX
  8
0
 10
30.033114
 20
82.36839
 30
0.0
  0
VERTEX
  8
0
 10
30.001545
 20
86.91456
 30
0.0
  0
VERTEX
  8
0
 10
29.997129
 20
91.47171
 30
0.0
  0
VERTEX
  8
0
 10
30.018312
 20
96.03873
 30
0.0
  0
VERTEX
  8
0
 10
30.063666
 20
100.6146
 30
0.0
  0
VERTEX
  8
0
 10
30.131862
 20
105.19851
 30
0.0
  0
VERTEX
  8
0
 10
30.221667
 20
109.78971
 30
0.0
  0
VERTEX
  8
0
 10
30.331935
 20
114.38751
 30
0.0
  0
VERTEX
  8
0
 10
30.461598
 20
118.99131
 30
0.0
  0
VERTEX
  8
0
 10
30.60966
 20
123.60063
 30
0.0
  0
VERTEX
  8
0
 10
30.775191
 20
128.21499
 30
0.0
  0
VERTEX
  8
0
 10
30.957324
 20
132.83391
 30
0.0
  0
VERTEX
  8
0
 10
31.155243
 20
137.45706
 30
0.0
  0
VERTEX
  8
0
 10
31.368195
 20
142.08405
 30
0.0
  0
VERTEX
  8
0
 10
31.595466
 20
146.71458
 30
0.0
  0
VERTEX
  8
0
 10
31.836396
 20
151.34829
 30
0.0
  0
VERTEX
  8
0
 10
32.09037
 20
155.98491
 30
0.0
  0
VERTEX
  8
0
 10
32.356809
 20
160.6242
 30
0.0
  0
VERTEX
  8
0
 10
32.635185
 20
165.26586
 30
0.0
  0
VERTEX
  8
0
 10
32.925
 20
169.90968
 30
0.0
  0
VERTEX
  8
0
 10
33.225795
 20
174.55545
 30
0.0
  0
VERTEX
  8
0
 10
33.537153
 20
179.2029
 30
0.0
  0
VERTEX
  8
0
 10
33.858684
 20
183.85185
 30
0.0
  0
VERTEX
  8
0
 10
34.190037
 20
188.50209
 30
0.0
  0
VERTEX
  8
0
 10
34.530891
 20
193.15344
 30
0.0
  0
VERTEX
  8
0
 10
34.880958
 20
197.80566
 30
0.0
  0
VERTEX
  8
0
 10
35.239977
 20
202.45863
 30
0.0
  0
VERTEX
  8
0
 10
35.607726
 20
207.11211
 30
0.0
  0
VERTEX
  8
0
 10
35.984007
 20
211.76595
 30
0.0
  0
VERTEX
  8
0
 10
36.368646
 20
216.41994
 30
0.0
  0
VERTEX
  8
0
 10
36.761505
 20
221.07396
 30
0.0
  0
VERTEX
  8
0
 10
37.162473
 20
225.7278
 30
0.0
  0
VERTEX
  8
0
 10
37.57146
 20
230.38128
 30
0.0
  0
VERTEX
  8
0
 10
37.988412
 20
235.03425
 30
0.0
  0
VERTEX
  8
0
 10
38.41329
 20
239.68653
 30
0.0
  0
VERTEX
  8
0
 10
38.846091
 20
244.33797
 30
0.0
  0
VERTEX
  8
0
 10
39.286827
 20
248.98833
 30
0.0
  0
VERTEX
  8
0
 10
39.735537
 20
253.63743
 30
0.0
  0
VERTEX
  8
0
 10
40.192281
 20
258.285
 30
0.0
  0
VERTEX
  8
0
 10
40.657107
 20
262.93047
 30
0.0
  0
VERTEX
  8
0
 10
41.130039
 20
267.57285
 30
0.0
  0
VERTEX
  8
0
 10
41.610954
 20
272.20947
 30
0.0
  0
VERTEX
  8
0
 10
42.0992793
 20
276.83358
 30
0.0
  0
VERTEX
  8
0
 10
42.5932215
 20
281.4273
 30
0.0
  0
VERTEX
  8
0
 10
43.0878054
 20
285.94515
 30
0.0
  0
VERTEX
  8
0
 10
43.5710229
 20
290.28213
 30
0.0
  0
VERTEX
  8
0
 10
44.0201934
 20
294.24684
 30
0.0
  0
VERTEX
  8
0
 10
44.4082419
 20
297.62142
 30
0.0
  0
VERTEX
  8
0
 10
44.685
 20
300.0
 30
0.0
  0
SEQEND
  0
POLYLINE
  6
CONTINUOUS
  8
0
 66
1
 10
0.0
 20
0.0
 30
0.0
 70
8
  0
VERTEX
  8
0
 10
90.3045
 20
290.0
 30
0.0
  0
VERTEX
  8
0
 10
90.57203283
 20
287.700706
 30
0.0
  0
VERTEX
  8
0
 10
90.94714638
 20
284.438612
 30
0.0
  0
VERTEX
  8
0
 10
91.38134453
 20
280.606059
 30
0.0
  0
VERTEX
  8
0
 10
91.84845478
 20
276.413645
 30
0.0
  0
VERTEX
  8
0
 10
92.32655255
 20
272.04639
 30
0.0
  0
VERTEX
  8
0
 10
92.80403001
 20
267.605794
 30
0.0
  0
VERTEX
  8
0
 10
93.2760778
 20
263.135821
 30
0.0
  0
VERTEX
  8
0
 10
93.7409623
 20
258.653755
 30
0.0
  0
VERTEX
  8
0
 10
94.1981299
 20
254.166121
 30
0.0
  0
VERTEX
  8
0
 10
94.6474617
 20
249.6755
 30
0.0
  0
VERTEX
  8
0
 10
95.0889809
 20
245.182849
 30
0.0
  0
VERTEX
  8
0
 10
95.5227339
 20
240.688719
 30
0.0
  0
VERTEX
  8
0
 10
95.9487787
 20
236.193371
 30
0.0
  0
VERTEX
  8
0
 10
96.367153
 20
231.696979
 30
0.0
  0
VERTEX
  8
0
 10
96.7778684
 20
227.199775
 30
0.0
  0
VERTEX
  8
0
 10
97.180922
 20
222.701904
 30
0.0
  0
VERTEX
  8
0
 10
97.5762761
 20
218.20354
 30
0.0
  0
VERTEX
  8
0
 10
97.9638785
 20
213.704828
 30
0.0
  0
VERTEX
  8
0
 10
98.3436422
 20
209.205942
 30
0.0
  0
VERTEX
  8
0
 10
98.7154599
 20
204.707085
 30
0.0
  0
VERTEX
  8
0
 10
99.0791982
 20
200.208373
 30
0.0
  0
VERTEX
  8
0
 10
99.4346889
 20
195.710009
 30
0.0
  0
VERTEX
  8
0
 10
99.7817406
 20
191.212138
 30
0.0
  0
VERTEX
  8
0
 10
100.1201387
 20
186.714992
 30
0.0
  0
VERTEX
  8
0
 10
100.4496309
 20
182.218687
 30
0.0
  0
VERTEX
  8
0
 10
100.7699388
 20
177.723455
 30
0.0
  0
VERTEX
  8
0
 10
101.0807521
 20
173.22947
 30
0.0
  0
VERTEX
  8
0
 10
101.3817315
 20
168.736935
 30
0.0
  0
VERTEX
  8
0
 10
101.6725
 20
164.246024
 30
0.0
  0
VERTEX
  8
0
 10
101.9526545
 20
159.756998
 30
0.0
  0
VERTEX
  8
0
 10
102.2217513
 20
155.27006
 30
0.0
  0
VERTEX
  8
0
 10
102.479309
 20
150.785413
 30
0.0
  0
VERTEX
  8
0
 10
102.7248172
 20
146.303347
 30
0.0
  0
VERTEX
  8
0
 10
102.9577162
 20
141.824094
 30
0.0
  0
VERTEX
  8
0
 10
103.1774115
 20
137.347915
 30
0.0
  0
VERTEX
  8
0
 10
103.3832651
 20
132.875158
 30
0.0
  0
VERTEX
  8
0
 10
103.5745868
 20
128.406113
 30
0.0
  0
VERTEX
  8
0
 10
103.7506487
 20
123.941157
 30
0.0
  0
VERTEX
  8
0
 10
103.910662
 20
119.480609
 30
0.0
  0
VERTEX
  8
0
 10
104.0537886
 20
115.024933
 30
0.0
  0
VERTEX
  8
0
 10
104.1791295
 20
110.574593
 30
0.0
  0
VERTEX
  8
0
 10
104.2857219
 20
106.130053
 30
0.0
  0
VERTEX
  8
0
 10
104.3725334
 20
101.691893
 30
0.0
  0
VERTEX
  8
0
 10
104.4384562
 20
97.26078
 30
0.0
  0
VERTEX
  8
0
 10
104.4822984
 20
92.837439
 30
0.0
  0
VERTEX
  8
0
 10
104.5027753
 20
88.422653
 30
0.0
  0
VERTEX
  8
0
 10
104.4985065
 20
84.017408
 30
0.0
  0
VERTEX
  8
0
 10
104.4679898
 20
79.622777
 30
0.0
  0
VERTEX
  8
0
 10
104.4095954
 20
75.240094
 30
0.0
  0
VERTEX
  8
0
 10
104.3215514
 20
70.870838
 30
0.0
  0
VERTEX
  8
0
 10
104.2019206
 20
66.516865
 30
0.0
  0
VERTEX
  8
0
 10
104.0485744
 20
62.18035
 30
0.0
  0
VERTEX
  8
0
 10
103.8591725
 20
57.864048
 30
0.0
  0
VERTEX
  8
0
 10
103.6311252
 20
53.571294
 30
0.0
  0
VERTEX
  8
0
 10
103.361576
 20
49.306467
 30
0.0
  0
VERTEX
  8
0
 10
103.0473755
 20
45.075135
 30
0.0
  0
VERTEX
  8
0
 10
102.6850756
 20
40.884925
 30
0.0
  0
VERTEX
  8
0
 10
102.2710165
 20
36.746567
 30
0.0
  0
VERTEX
  8
0
 10
101.8015616
 20
32.675605
 30
0.0
  0
VERTEX
  8
0
 10
101.2737007
 20
28.6958886
 30
0.0
  0
VERTEX
  8
0
 10
100.6863724
 20
24.8441289
 30
0.0
  0
VERTEX
  8
0
 10
100.0429117
 20
21.1757478
 30
0.0
  0
VERTEX
  8
0
 10
99.3542661
 20
17.7663947
 30
0.0
  0
VERTEX
  8
0
 10
98.6406747
 20
14.6998042
 30
0.0
  0
VERTEX
  8
0
 10
97.9279301
 20
12.0384133
 30
0.0
  0
VERTEX
  8
0
 10
97.2386204
 20
9.7961652
 30
0.0
  0
VERTEX
  8
0
 10
96.5853983
 20
7.9388283
 30
0.0
  0
VERTEX
  8
0
 10
95.9707491
 20
6.4068018
 30
0.0
  0
VERTEX
  8
0
 10
95.3908303
 20
5.1380228
 30
0.0
  0
VERTEX
  8
0
 10
94.839114
 20
4.0796214
 30
0.0
  0
VERTEX
  8
0
 10
94.3084459
 20
3.190551
 30
0.0
  0
VERTEX
  8
0
 10
93.7920168
 20
2.44059128
 30
0.0
  0
VERTEX
  8
0
 10
93.2837019
 20
1.80841477
 30
0.0
  0
VERTEX
  8
0
 10
92.77829947
 20
1.27981582
 30
0.0
  0
VERTEX
  8
0
 10
92.27187015
 20
0.84628641
 30
0.0
  0
VERTEX
  8
0
 10
91.76240221
 20
0.50376712
 30
0.0
  0
VERTEX
  8
0
 10
91.25071519
 20
0.251023797
 30
0.0
  0
VERTEX
  8
0
 10
90.74103091
 20
0.087222314
 30
0.0
  0
VERTEX
  8
0
 10
90.241961152
 20
0.0092251871
 30
0.0
  0
VERTEX
  8
0
 10
89.758038848
 20
0.0092251871
 30
0.0
  0
VERTEX
  8
0
 10
89.25896909
 20
0.087222314
 30
0.0
  0
VERTEX
  8
0
 10
88.74928481
 20
0.251023797
 30
0.0
  0
VERTEX
  8
0
 10
88.23759779
 20
0.50376712
 30
0.0
  0
VERTEX
  8
0
 10
87.72812985
 20
0.84628641
 30
0.0
  0
VERTEX
  8
0
 10
87.22170053
 20
1.27981582
 30
0.0
  0
VERTEX
  8
0
 10
86.7162981
 20
1.80841477
 30
0.0
  0
VERTEX
  8
0
 10
86.2079832
 20
2.44059128
 30
0.0
  0
VERTEX
  8
0
 10
85.6915541
 20
3.190551
 30
0.0
  0
VERTEX
  8
0
 10
85.160886
 20
4.0796214
 30
0.0
  0
VERTEX
  8
0
 10
84.6091697
 20
5.1380228
 30
0.0
  0
VERTEX
  8
0
 10
84.0292509
 20
6.4068018
 30
0.0
  0
VERTEX
  8
0
 10
83.4146017
 20
7.9388283
 30
0.0
  0
VERTEX
  8
0
 10
82.7613796
 20
9.7961652
 30
0.0
  0
VERTEX
  8
0
 10
82.0720699
 20
12.0384133
 30
0.0
  0
VERTEX
  8
0
 10
81.3593253
 20
14.6998042
 30
0.0
  0
VERTEX
  8
0
 10
80.6457339
 20
17.7663947
 30
0.0
  0
VERTEX
  8
0
 10
79.9570883
 20
21.1757478
 30
0.0
  0
VERTEX
  8
0
 10
79.3136276
 20
24.8441289
 30
0.0
  0
VERTEX
  8
0
 10
78.7262993
 20
28.6958886
 30
0.0
  0
VERTEX
  8
0
 10
78.1984384
 20
32.675605
 30
0.0
  0
VERTEX
  8
0
 10
77.7289835
 20
36.746567
 30
0.0
  0
VERTEX
  8
0
 10
77.3149244
 20
40.884925
 30
0.0
  0
VERTEX
  8
0
 10
76.9526245
 20
45.075135
 30
0.0
  0
VERTEX
  8
0
 10
76.638424
 20
49.306467
 30
0.0
  0
VERTEX
  8
0
 10
76.3688748
 20
53.571294
 30
0.0
  0
VERTEX
  8
0
 10
76.1408275
 20
57.864048
 30
0.0
  0
VERTEX
  8
0
 10
75.9514256
 20
62.18035
 30
0.0
  0
VERTEX
  8
0
 10
75.7980794
 20
66.516865
 30
0.0
  0
VERTEX
  8
0
 10
75.6784486
 20
70.870838
 30
0.0
  0
VERTEX
  8
0
 10
75.5904046
 20
75.240094
 30
0.0
  0
VERTEX
  8
0
 10
75.5320102
 20
79.622777
 30
0.0
  0
VERTEX
  8
0
 10
75.5014935
 20
84.017408
 30
0.0
  0
VERTEX
  8
0
 10
75.4972247
 20
88.422653
 30
0.0
  0
VERTEX
  8
0
 10
75.5177016
 20
92.837439
 30
0.0
  0
VERTEX
  8
0
 10
75.5615438
 20
97.26078
 30
0.0
  0
VERTEX
  8
0
 10
75.6274666
 20
101.691893
 30
0.0
  0
VERTEX
  8
0
 10
75.7142781
 20
106.130053
 30
0.0
  0
VERTEX
  8
0
 10
75.8208705
 20
110.574593
 30
0.0
  0
VERTEX
  8
0
 10
75.9462114
 20
115.024933
 30
0.0
  0
VERTEX
  8
0
 10
76.089338
 20
119.480609
 30
0.0
  0
VERTEX
  8
0
 10
76.2493513
 20
123.941157
 30
0.0
  0
VERTEX
  8
0
 10
76.4254132
 20
128.406113
 30
0.0
  0
VERTEX
  8
0
 10
76.6167349
 20
132.875158
 30
0.0
  0
VERTEX
  8
0
 10
76.8225885
 20
137.347915
 30
0.0
  0
VERTEX
  8
0
 10
77.0422838
 20
141.824094
 30
0.0
  0
VERTEX
  8
0
 10
77.2751828
 20
146.303347
 30
0.0
  0
VERTEX
  8
0
 10
77.520691
 20
150.785413
 30
0.0
  0
VERTEX
  8
0
 10
77.7782487
 20
155.27006
 30
0.0
  0
VERTEX
  8
0
 10
78.0473455
 20
159.756998
 30
0.0
  0
VERTEX
  8
0
 10
78.3275
 20
164.246024
 30
0.0
  0
VERTEX
  8
0
 10
78.6182685
 20
168.736935
 30
0.0
  0
VERTEX
  8
0
 10
78.9192479
 20
173.22947
 30
0.0
  0
VERTEX
  8
0
 10
79.2300612
 20
177.723455
 30
0.0
  0
VERTEX
  8
0
 10
79.5503691
 20
182.218687
 30
0.0
  0
VERTEX
  8
0
 10
79.8798613
 20
186.714992
 30
0.0
  0
VERTEX
  8
0
 10
80.2182594
 20
191.212138
 30
0.0
  0
VERTEX
  8
0
 10
80.5653111
 20
195.710009
 30
0.0
  0
VERTEX
  8
0
 10
80.9208018
 20
200.208373
 30
0.0
  0
VERTEX
  8
0
 10
81.2845401
 20
204.707085
 30
0.0
  0
VERTEX
  8
0
 10
81.6563578
 20
209.205942
 30
0.0
  0
VERTEX
  8
0
 10
82.0361215
 20
213.704828
 30
0.0
  0
VERTEX
  8
0
 10
82.4237239
 20
218.20354
 30
0.0
  0
VERTEX
  8
0
 10
82.819078
 20
222.701904
 30
0.0
  0
VERTEX
  8
0
 10
83.2221316
 20
227.199775
 30
0.0
  0
VERTEX
  8
0
 10
83.632847
 20
231.696979
 30
0.0
  0
VERTEX
  8
0
 10
84.0512213
 20
236.193371
 30
0.0
  0
VERTEX
  8
0
 10
84.4772661
 20
240.688719
 30
0.0
  0
VERTEX
  8
0
 10
84.9110191
 20
245.182849
 30
0.0
  0
VERTEX
  8
0
 10
85.3525383
 20
249.6755
 30
0.0
  0
VERTEX
  8
0
 10
85.8018701
 20
254.166121
 30
0.0
  0
VERTEX
  8
0
 10
86.2590377
 20
258.653755
 30
0.0
  0
VERTEX
  8
0
 10
86.7239222
 20
263.135821
 30
0.0
  0
VERTEX
  8
0
 10
87.19596999
 20
267.605794
 30
0.0
  0
VERTEX
  8
0
 10
87.67344745
 20
272.04639
 30
0.0
  0
VERTEX
  8
0
 10
88.15154522
 20
276.413645
 30
0.0
  0
VERTEX
  8
0
 10
88.61865547
 20
280.606059
 30
0.0
  0
VERTEX
  8
0
 10
89.05285362
 20
284.438612
 30
0.0
  0
VERTEX
  8
0
 10
89.42796717
 20
287.700706
 30
0.0
  0
VERTEX
  8
0
 10
89.6955
 20
290.0
 30
0.0
  0
SEQEND
  0
POLYLINE
  6
CONTINUOUS
  8
0
 66
1
 10
0.0
 20
0.0
 30
0.0
 70
8
  0
VERTEX
  8
0
 10
135.294
 20
280.0
 30
0.0
  0
VERTEX
  8
0
 10
135.55230756
 20
277.779992
 30
0.0
  0
VERTEX
  8
0
 10
135.91448616
 20
274.630384
 30
0.0
  0
VERTEX
  8
0
 10
136.33371196
 20
270.929988
 30
0.0
  0
VERTEX
  8
0
 10
136.78471496
 20
266.88214
 30
0.0
  0
VERTEX
  8
0
 10
137.2463266
 20
262.66548
 30
0.0
  0
VERTEX
  8
0
 10
137.70733932
 20
258.378008
 30
0.0
  0
VERTEX
  8
0
 10
138.1631096
 20
254.062172
 30
0.0
  0
VERTEX
  8
0
 10
138.6119636
 20
249.73466
 30
0.0
  0
VERTEX
  8
0
 10
139.0533668
 20
245.401772
 30
0.0
  0
VERTEX
  8
0
 10
139.4872044
 20
241.066
 30
0.0
  0
VERTEX
  8
0
 10
139.9134988
 20
236.728268
 30
0.0
  0
VERTEX
  8
0
 10
140.3322948
 20
232.389108
 30
0.0
  0
VERTEX
  8
0
 10
140.7436484
 20
228.048772
 30
0.0
  0
VERTEX
  8
0
 10
141.147596
 20
223.707428
 30
0.0
  0
VERTEX
  8
0
 10
141.5441488
 20
219.3653
 30
0.0
  0
VERTEX
  8
0
 10
141.933304
 20
215.022528
 30
0.0
  0
VERTEX
  8
0
 10
142.3150252
 20
210.67928
 30
0.0
  0
VERTEX
  8
0
 10
142.689262
 20
206.335696
 30
0.0
  0
VERTEX
  8
0
 10
143.0559304
 20
201.991944
 30
0.0
  0
VERTEX
  8
0
 10
143.4149268
 20
197.64822
 30
0.0
  0
VERTEX
  8
0
 10
143.7661224
 20
193.304636
 30
0.0
  0
VERTEX
  8
0
 10
144.1093548
 20
188.961388
 30
0.0
  0
VERTEX
  8
0
 10
144.4444392
 20
184.618616
 30
0.0
  0
VERTEX
  8
0
 10
144.7711684
 20
180.276544
 30
0.0
  0
VERTEX
  8
0
 10
145.0892988
 20
175.935284
 30
0.0
  0
VERTEX
  8
0
 10
145.3985616
 20
171.59506
 30
0.0
  0
VERTEX
  8
0
 10
145.6986572
 20
167.25604
 30
0.0
  0
VERTEX
  8
0
 10
145.989258
 20
162.91842
 30
0.0
  0
VERTEX
  8
0
 10
146.27
 20
158.582368
 30
0.0
  0
VERTEX
  8
0
 10
146.540494
 20
154.248136
 30
0.0
  0
VERTEX
  8
0
 10
146.8003116
 20
149.91592
 30
0.0
  0
VERTEX
  8
0
 10
147.048988
 20
145.585916
 30
0.0
  0
VERTEX
  8
0
 10
147.2860304
 20
141.258404
 30
0.0
  0
VERTEX
  8
0
 10
147.5108984
 20
136.933608
 30
0.0
  0
VERTEX
  8
0
 10
147.723018
 20
132.61178
 30
0.0
  0
VERTEX
  8
0
 10
147.9217732
 20
128.293256
 30
0.0
  0
VERTEX
  8
0
 10
148.1064976
 20
123.978316
 30
0.0
  0
VERTEX
  8
0
 10
148.2764884
 20
119.667324
 30
0.0
  0
VERTEX
  8
0
 10
148.430984
 20
115.360588
 30
0.0
  0
VERTEX
  8
0
 10
148.5691752
 20
111.058556
 30
0.0
  0
VERTEX
  8
0
 10
148.690194
 20
106.761676
 30
0.0
  0
VERTEX
  8
0
 10
148.7931108
 20
102.470396
 30
0.0
  0
VERTEX
  8
0
 10
148.8769288
 20
98.185276
 30
0.0
  0
VERTEX
  8
0
 10
148.9405784
 20
93.90696
 30
0.0
  0
VERTEX
  8
0
 10
148.9829088
 20
89.636148
 30
0.0
  0
VERTEX
  8
0
 10
149.0026796
 20
85.373596
 30
0.0
  0
VERTEX
  8
0
 10
148.998558
 20
81.120256
 30
0.0
  0
VERTEX
  8
0
 10
148.9690936
 20
76.877164
 30
0.0
  0
VERTEX
  8
0
 10
148.9127128
 20
72.645608
 30
0.0
  0
VERTEX
  8
0
 10
148.8277048
 20
68.427016
 30
0.0
  0
VERTEX
  8
0
 10
148.7121992
 20
64.22318
 30
0.0
  0
VERTEX
  8
0
 10
148.5641408
 20
60.0362
 30
0.0
  0
VERTEX
  8
0
 10
148.38127
 20
55.868736
 30
0.0
  0
VERTEX
  8
0
 10
148.1610864
 20
51.724008
 30
0.0
  0
VERTEX
  8
0
 10
147.900832
 20
47.606244
 30
0.0
  0
VERTEX
  8
0
 10
147.597466
 20
43.52082
 30
0.0
  0
VERTEX
  8
0
 10
147.2476592
 20
39.4751
 30
0.0
  0
VERTEX
  8
0
 10
146.847878
 20
35.479444
 30
0.0
  0
VERTEX
  8
0
 10
146.3946112
 20
31.54886
 30
0.0
  0
VERTEX
  8
0
 10
145.8849524
 20
27.7063752
 30
0.0
  0
VERTEX
  8
0
 10
145.3178768
 20
23.9874348
 30
0.0
  0
VERTEX
  8
0
 10
144.6966044
 20
20.4455496
 30
0.0
  0
VERTEX
  8
0
 10
144.0317052
 20
17.1537604
 30
0.0
  0
VERTEX
  8
0
 10
143.3427204
 20
14.1929144
 30
0.0
  0
VERTEX
  8
0
 10
142.6545532
 20
11.6232956
 30
0.0
  0
VERTEX
  8
0
 10
141.9890128
 20
9.4583664
 30
0.0
  0
VERTEX
  8
0
 10
141.3583156
 20
7.6650756
 30
0.0
  0
VERTEX
  8
0
 10
140.7648612
 20
6.1858776
 30
0.0
  0
VERTEX
  8
0
 10
140.2049396
 20
4.9608496
 30
0.0
  0
VERTEX
  8
0
 10
139.672248
 20
3.9389448
 30
0.0
  0
VERTEX
  8
0
 10
139.1598788
 20
3.080532
 30
0.0
  0
VERTEX
  8
0
 10
138.6612576
 20
2.35643296
 30
0.0
  0
VERTEX
  8
0
 10
138.1704708
 20
1.74605564
 30
0.0
  0
VERTEX
  8
0
 10
137.68249604
 20
1.23568424
 30
0.0
  0
VERTEX
  8
0
 10
137.1935298
 20
0.81710412
 30
0.0
  0
VERTEX
  8
0
 10
136.70162972
 20
0.48639584
 30
0.0
  0
VERTEX
  8
0
 10
136.20758708
 20
0.242367804
 30
0.0
  0
VERTEX
  8
0
 10
135.71547812
 20
0.084214648
 30
0.0
  0
VERTEX
  8
0
 10
135.233617664
 20
0.0089070772
 30
0.0
  0
VERTEX
  8
0
 10
134.766382336
 20
0.0089070772
 30
0.0
  0
VERTEX
  8
0
 10
134.28452188
 20
0.084214648
 30
0.0
  0
VERTEX
  8
0
 10
133.79241292
 20
0.242367804
 30
0.0
  0
VERTEX
  8
0
 10
133.29837028
 20
0.48639584
 30
0.0
  0
VERTEX
  8
0
 10
132.8064702
 20
0.81710412
 30
0.0
  0
VERTEX
  8
0
 10
132.31750396
 20
1.23568424
 30
0.0
  0
VERTEX
  8
0
 10
131.8295292
 20
1.74605564
 30
0.0
  0
VERTEX
  8
0
 10
131.3387424
 20
2.35643296
 30
0.0
  0
VERTEX
  8
0
 10
130.8401212
 20
3.080532
 30
0.0
  0
VERTEX
  8
0
 10
130.327752
 20
3.9389448
 30
0.0
  0
VERTEX
  8
0
 10
129.7950604
 20
4.9608496
 30
0.0
  0
VERTEX
  8
0
 10
129.2351388
 20
6.1858776
 30
0.0
  0
VERTEX
  8
0
 10
128.6416844
 20
7.6650756
 30
0.0
  0
VERTEX
  8
0
 10
128.0109872
 20
9.4583664
 30
0.0
  0
VERTEX
  8
0
 10
127.3454468
 20
11.6232956
 30
0.0
  0
VERTEX
  8
0
 10
126.6572796
 20
14.1929144
 30
0.0
  0
VERTEX
  8
0
 10
125.9682948
 20
17.1537604
 30
0.0
  0
VERTEX
  8
0
 10
125.3033956
 20
20.4455496
 30
0.0
  0
VERTEX
  8
0
 10
124.6821232
 20
23.9874348
 30
0.0
  0
VERTEX
  8
0
 10
124.1150476
 20
27.7063752
 30
0.0
  0
VERTEX
  8
0
 10
123.6053888
 20
31.54886
 30
0.0
  0
VERTEX
  8
0
 10
123.152122
 20
35.479444
 30
0.0
  0
VERTEX
  8
0
 10
122.7523408
 20
39.4751
 30
0.0
  0
VERTEX
  8
0
 10
122.402534
 20
43.52082
 30
0.0
  0
VERTEX
  8
0
 10
122.099168
 20
47.606244
 30
0.0
  0
VERTEX
  8
0
 10
121.8389136
 20
51.724008
 30
0.0
  0
VERTEX
  8
0
 10
121.61873
 20
55.868736
 30
0.0
  0
VERTEX
  8
0
 10
121.4358592
 20
60.0362
 30
0.0
  0
VERTEX
  8
0
 10
121.2878008
 20
64.22318
 30
0.0
  0
VERTEX
  8
0
 10
121.1722952
 20
68.427016
 30
0.0
  0
VERTEX
  8
0
 10
121.0872872
 20
72.645608
 30
0.0
  0
VERTEX
  8
0
 10
121.0309064
 20
76.877164
 30
0.0
  0
VERTEX
  8
0
 10
121.001442
 20
81.120256
 30
0.0
  0
VERTEX
  8
0
 10
120.9973204
 20
85.373596
 30
0.0
  0
VERTEX
  8
0
 10
121.0170912
 20
89.636148
 30
0.0
  0
VERTEX
  8
0
 10
121.0594216
 20
93.90696
 30
0.0
  0
VERTEX
  8
0
 10
121.1230712
 20
98.185276
 30
0.0
  0
VERTEX
  8
0
 10
121.2068892
 20
102.470396
 30
0.0
  0
VERTEX
  8
0
 10
121.309806
 20
106.761676
 30
0.0
  0
VERTEX
  8
0
 10
121.4308248
 20
111.058556
 30
0.0
  0
VERTEX
  8
0
 10
121.569016
 20
115.360588
 30
0.0
  0
VERTEX
  8
0
 10
121.7235116
 20
119.667324
 30
0.0
  0
VERTEX
  8
0
 10
121.8935024
 20
123.978316
 30
0.0
  0
VERTEX
  8
0
 10
122.0782268
 20
128.293256
 30
0.0
  0
VERTEX
  8
0
 10
122.276982
 20
132.61178
 30
0.0
  0
VERTEX
  8
0
 10
122.4891016
 20
136.933608
 30
0.0
  0
VERTEX
  8
0
 10
122.7139696
 20
141.258404
 30
0.0
  0
VERTEX
  8
0
 10
122.951012
 20
145.585916
 30
0.0
  0
VERTEX
  8
0
 10
123.1996884
 20
149.91592
 30
0.0
  0
VERTEX
  8
0
 10
123.459506
 20
154.248136
 30
0.0
  0
VERTEX
  8
0
 10
123.73
 20
158.582368
 30
0.0
  0
VERTEX
  8
0
 10
124.010742
 20
162.91842
 30
0.0
  0
VERTEX
  8
0
 10
124.3013428
 20
167.25604
 30
0.0
  0
VERTEX
  8
0
 10
124.6014384
 20
171.59506
 30
0.0
  0
VERTEX
  8
0
 10
124.9107012
 20
175.935284
 30
0.0
  0
VERTEX
  8
0
 10
125.2288316
 20
180.276544
 30
0.0
  0
VERTEX
  8
0
 10
125.5555608
 20
184.618616
 30
0.0
  0
VERTEX
  8
0
 10
125.8906452
 20
188.961388
 30
0.0
  0
VERTEX
  8
0
 10
126.2338776
 20
193.304636
 30
0.0
  0
VERTEX
  8
0
 10
126.5850732
 20
197.64822
 30
0.0
  0
VERTEX
  8
0
 10
126.9440696
 20
201.991944
 30
0.0
  0
VERTEX
  8
0
 10
127.310738
 20
206.335696
 30
0.0
  0
VERTEX
  8
0
 10
127.6849748
 20
210.67928
 30
0.0
  0
VERTEX
  8
0
 10
128.066696
 20
215.022528
 30
0.0
  0
VERTEX
  8
0
 10
128.4558512
 20
219.3653
 30
0.0
  0
VERTEX
  8
0
 10
128.852404
 20
223.707428
 30
0.0
  0
VERTEX
  8
0
 10
129.2563516
 20
228.048772
 30
0.0
  0
VERTEX
  8
0
 10
129.6677052
 20
232.389108
 30
0.0
  0
VERTEX
  8
0
 10
130.0865012
 20
236.728268
 30
0.0
  0
VERTEX
  8
0
 10
130.5127956
 20
241.066
 30
0.0
  0
VERTEX
  8
0
 10
130.9466332
 20
245.401772
 30
0.0
  0
VERTEX
  8
0
 10
131.3880364
 20
249.73466
 30
0.0
  0
VERTEX
  8
0
 10
131.8368904
 20
254.062172
 30
0.0
  0
VERTEX
  8
0
 10
132.29266068
 20
258.378008
 30
0.0
  0
VERTEX
  8
0
 10
132.7536734
 20
262.66548
 30
0.0
  0
VERTEX
  8
0
 10
133.21528504
 20
266.88214
 30
0.0
  0
VERTEX
  8
0
 10
133.66628804
 20
270.929988
 30
0.0
  0
VERTEX
  8
0
 10
134.08551384
 20
274.630384
 30
0.0
  0
VERTEX
  8
0
 10
134.44769244
 20
277.779992
 30
0.0
  0
VERTEX
  8
0
 10
134.706
 20
280.0
 30
0.0
  0
SEQEND
  0
POLYLINE
  6
CONTINUOUS
  8
0
 66
1
 10
0.0
 20
0.0
 30
0.0
 70
8
  0
VERTEX
  8
0
 10
180.2835
 20
270.0
 30
0.0
  0
VERTEX
  8
0
 10
180.53258229
 20
267.859278
 30
0.0
  0
VERTEX
  8
0
 10
180.88182594
 20
264.822156
 30
0.0
  0
VERTEX
  8
0
 10
181.28607939
 20
261.253917
 30
0.0
  0
VERTEX
  8
0
 10
181.72097514
 20
257.350635
 30
0.0
  0
VERTEX
  8
0
 10
182.16610065
 20
253.28457
 30
0.0
  0
VERTEX
  8
0
 10
182.61064863
 20
249.150222
 30
0.0
  0
VERTEX
  8
0
 10
183.0501414
 20
244.988523
 30
0.0
  0
VERTEX
  8
0
 10
183.4829649
 20
240.815565
 30
0.0
  0
VERTEX
  8
0
 10
183.9086037
 20
236.637423
 30
0.0
  0
VERTEX
  8
0
 10
184.3269471
 20
232.4565
 30
0.0
  0
VERTEX
  8
0
 10
184.7380167
 20
228.273687
 30
0.0
  0
VERTEX
  8
0
 10
185.1418557
 20
224.089497
 30
0.0
  0
VERTEX
  8
0
 10
185.5385181
 20
219.904173
 30
0.0
  0
VERTEX
  8
0
 10
185.928039
 20
215.717877
 30
0.0
  0
VERTEX
  8
0
 10
186.3104292
 20
211.530825
 30
0.0
  0
VERTEX
  8
0
 10
186.685686
 20
207.343152
 30
0.0
  0
VERTEX
  8
0
 10
187.0537743
 20
203.15502
 30
0.0
  0
VERTEX
  8
0
 10
187.4146455
 20
198.966564
 30
0.0
  0
VERTEX
  8
0
 10
187.7682186
 20
194.777946
 30
0.0
  0
VERTEX
  8
0
 10
188.1143937
 20
190.589355
 30
0.0
  0
VERTEX
  8
0
 10
188.4530466
 20
186.400899
 30
0.0
  0
VERTEX
  8
0
 10
188.7840207
 20
182.212767
 30
0.0
  0
VERTEX
  8
0
 10
189.1071378
 20
178.025094
 30
0.0
  0
VERTEX
  8
0
 10
189.4221981
 20
173.838096
 30
0.0
  0
VERTEX
  8
0
 10
189.7289667
 20
169.651881
 30
0.0
  0
VERTEX
  8
0
 10
190.0271844
 20
165.466665
 30
0.0
  0
VERTEX
  8
0
 10
190.3165623
 20
161.28261
 30
0.0
  0
VERTEX
  8
0
 10
190.5967845
 20
157.099905
 30
0.0
  0
VERTEX
  8
0
 10
190.8675
 20
152.918712
 30
0.0
  0
VERTEX
  8
0
 10
191.1283335
 20
148.739274
 30
0.0
  0
VERTEX
  8
0
 10
191.3788719
 20
144.56178
 30
0.0
  0
VERTEX
  8
0
 10
191.618667
 20
140.386419
 30
0.0
  0
VERTEX
  8
0
 10
191.8472436
 20
136.213461
 30
0.0
  0
VERTEX
  8
0
 10
192.0640806
 20
132.043122
 30
0.0
  0
VERTEX
  8
0
 10
192.2686245
 20
127.875645
 30
0.0
  0
VERTEX
  8
0
 10
192.4602813
 20
123.711354
 30
0.0
  0
VERTEX
  8
0
 10
192.6384084
 20
119.550519
 30
0.0
  0
VERTEX
  8
0
 10
192.8023281
 20
115.393491
 30
0.0
  0
VERTEX
  8
0
 10
192.951306
 20
111.240567
 30
0.0
  0
VERTEX
  8
0
 10
193.0845618
 20
107.092179
 30
0.0
  0
VERTEX
  8
0
 10
193.2012585
 20
102.948759
 30
0.0
  0
VERTEX
  8
0
 10
193.3004997
 20
98.810739
 30
0.0
  0
VERTEX
  8
0
 10
193.3813242
 20
94.678659
 30
0.0
  0
VERTEX
  8
0
 10
193.4427006
 20
90.55314
 30
0.0
  0
VERTEX
  8
0
 10
193.4835192
 20
86.434857
 30
0.0
  0
VERTEX
  8
0
 10
193.5025839
 20
82.324539
 30
0.0
  0
VERTEX
  8
0
 10
193.4986095
 20
78.223104
 30
0.0
  0
VERTEX
  8
0
 10
193.4701974
 20
74.131551
 30
0.0
  0
VERTEX
  8
0
 10
193.4158302
 20
70.051122
 30
0.0
  0
VERTEX
  8
0
 10
193.3338582
 20
65.983194
 30
0.0
  0
VERTEX
  8
0
 10
193.2224778
 20
61.929495
 30
0.0
  0
VERTEX
  8
0
 10
193.0797072
 20
57.89205
 30
0.0
  0
VERTEX
  8
0
 10
192.9033675
 20
53.873424
 30
0.0
  0
VERTEX
  8
0
 10
192.6910476
 20
49.876722
 30
0.0
  0
VERTEX
  8
0
 10
192.440088
 20
45.906021
 30
0.0
  0
VERTEX
  8
0
 10
192.1475565
 20
41.966505
 30
0.0
  0
VERTEX
  8
0
 10
191.8102428
 20
38.065275
 30
0.0
  0
VERTEX
  8
0
 10
191.4247395
 20
34.212321
 30
0.0
  0
VERTEX
  8
0
 10
190.9876608
 20
30.422115
 30
0.0
  0
VERTEX
  8
0
 10
190.4962041
 20
26.7168618
 30
0.0
  0
VERTEX
  8
0
 10
189.9493812
 20
23.1307407
 30
0.0
  0
VERTEX
  8
0
 10
189.3502971
 20
19.7153514
 30
0.0
  0
VERTEX
  8
0
 10
188.7091443
 20
16.5411261
 30
0.0
  0
VERTEX
  8
0
 10
188.0447661
 20
13.6860246
 30
0.0
  0
VERTEX
  8
0
 10
187.3811763
 20
11.2081779
 30
0.0
  0
VERTEX
  8
0
 10
186.7394052
 20
9.1205676
 30
0.0
  0
VERTEX
  8
0
 10
186.1312329
 20
7.3913229
 30
0.0
  0
VERTEX
  8
0
 10
185.5589733
 20
5.9649534
 30
0.0
  0
VERTEX
  8
0
 10
185.0190489
 20
4.7836764
 30
0.0
  0
VERTEX
  8
0
 10
184.505382
 20
3.7982682
 30
0.0
  0
VERTEX
  8
0
 10
184.0113117
 20
2.970513
 30
0.0
  0
VERTEX
  8
0
 10
183.5304984
 20
2.27227464
 30
0.0
  0
VERTEX
  8
0
 10
183.0572397
 20
1.68369651
 30
0.0
  0
VERTEX
  8
0
 10
182.58669261
 20
1.19155266
 30
0.0
  0
VERTEX
  8
0
 10
182.11518945
 20
0.78792183
 30
0.0
  0
VERTEX
  8
0
 10
181.64085723
 20
0.46902456
 30
0.0
  0
VERTEX
  8
0
 10
181.16445897
 20
0.233711811
 30
0.0
  0
VERTEX
  8
0
 10
180.68992533
 20
0.081206982
 30
0.0
  0
VERTEX
  8
0
 10
180.225274176
 20
0.0085889673
 30
0.0
  0
VERTEX
  8
0
 10
179.774725824
 20
0.0085889673
 30
0.0
  0
VERTEX
  8
0
 10
179.31007467
 20
0.081206982
 30
0.0
  0
VERTEX
  8
0
 10
178.83554103
 20
0.233711811
 30
0.0
  0
VERTEX
  8
0
 10
178.35914277
 20
0.46902456
 30
0.0
  0
VERTEX
  8
0
 10
177.88481055
 20
0.78792183
 30
0.0
  0
VERTEX
  8
0
 10
177.41330739
 20
1.19155266
 30
0.0
  0
VERTEX
  8
0
 10
176.9427603
 20
1.68369651
 30
0.0
  0
VERTEX
  8
0
 10
176.4695016
 20
2.27227464
 30
0.0
  0
VERTEX
  8
0
 10
175.9886883
 20
2.970513
 30
0.0
  0
VERTEX
  8
0
 10
175.494618
 20
3.7982682
 30
0.0
  0
VERTEX
  8
0
 10
174.9809511
 20
4.7836764
 30
0.0
  0
VERTEX
  8
0
 10
174.4410267
 20
5.9649534
 30
0.0
  0
VERTEX
  8
0
 10
173.8687671
 20
7.3913229
 30
0.0
  0
VERTEX
  8
0
 10
173.2605948
 20
9.1205676
 30
0.0
  0
VERTEX
  8
0
 10
172.6188237
 20
11.2081779
 30
0.0
  0
VERTEX
  8
0
 10
171.9552339
 20
13.6860246
 30
0.0
  0
VERTEX
  8
0
 10
171.2908557
 20
16.5411261
 30
0.0
  0
VERTEX
  8
0
 10
170.6497029
 20
19.7153514
 30
0.0
  0
VERTEX
  8
0
 10
170.0506188
 20
23.1307407
 30
0.0
  0
VERTEX
  8
0
 10
169.5037959
 20
26.7168618
 30
0.0
  0
VERTEX
  8
0
 10
169.0123392
 20
30.422115
 30
0.0
  0
VERTEX
  8
0
 10
168.5752605
 20
34.212321
 30
0.0
  0
VERTEX
  8
0
 10
168.1897572
 20
38.065275
 30
0.0
  0
VERTEX
  8
0
 10
167.8524435
 20
41.966505
 30
0.0
  0
VERTEX
  8
0
 10
167.559912
 20
45.906021
 30
0.0
  0
VERTEX
  8
0
 10
167.3089524
 20
49.876722
 30
0.0
  0
VERTEX
  8
0
 10
167.0966325
 20
53.873424
 30
0.0
  0
VERTEX
  8
0
 10
166.9202928
 20
57.89205
 30
0.0
  0
VERTEX
  8
0
 10
166.7775222
 20
61.929495
 30
0.0
  0
VERTEX
  8
0
 10
166.6661418
 20
65.983194
 30
0.0
  0
VERTEX
  8
0
 10
166.5841698
 20
70.051122
 30
0.0
  0
VERTEX
  8
0
 10
166.5298026
 20
74.131551
 30
0.0
  0
VERTEX
  8
0
 10
166.5013905
 20
78.223104
 30
0.0
  0
VERTEX
  8
0
 10
166.4974161
 20
82.324539
 30
0.0
  0
VERTEX
  8
0
 10
166.5164808
 20
86.434857
 30
0.0
  0
VERTEX
  8
0
 10
166.5572994
 20
90.55314
 30
0.0
  0
VERTEX
  8
0
 10
166.6186758
 20
94.678659
 30
0.0
  0
VERTEX
  8
0
 10
166.6995003
 20
98.810739
 30
0.0
  0
VERTEX
  8
0
 10
166.7987415
 20
102.948759
 30
0.0
  0
VERTEX
  8
0
 10
166.9154382
 20
107.092179
 30
0.0
  0
VERTEX
  8
0
 10
167.048694
 20
111.240567
 30
0.0
  0
VERTEX
  8
0
 10
167.1976719
 20
115.393491
 30
0.0
  0
VERTEX
  8
0
 10
167.3615916
 20
119.550519
 30
0.0
  0
VERTEX
  8
0
 10
167.5397187
 20
123.711354
 30
0.0
  0
VERTEX
  8
0
 10
167.7313755
 20
127.875645
 30
0.0
  0
VERTEX
  8
0
 10
167.9359194
 20
132.043122
 30
0.0
  0
VERTEX
  8
0
 10
168.1527564
 20
136.213461
 30
0.0
  0
VERTEX
  8
0
 10
168.381333
 20
140.386419
 30
0.0
  0
VERTEX
  8
0
 10
168.6211281
 20
144.56178
 30
0.0
  0
VERTEX
  8
0
 10
168.8716665
 20
148.739274
 30
0.0
  0
VERTEX
  8
0
 10
169.1325
 20
152.918712
 30
0.0
  0
VERTEX
  8
0
 10
169.4032155
 20
157.099905
 30
0.0
  0
VERTEX
  8
0
 10
169.6834377
 20
161.28261
 30
0.0
  0
VERTEX
  8
0
 10
169.9728156
 20
165.466665
 30
0.0
  0
VERTEX
  8
0
 10
170.2710333
 20
169.651881
 30
0.0
  0
VERTEX
  8
0
 10
170.5778019
 20
173.838096
 30
0.0
  0
VERTEX
  8
0
 10
170.8928622
 20
178.025094
 30
0.0
  0
VERTEX
  8
0
 10
171.2159793
 20
182.212767
 30
0.0
  0
VERTEX
  8
0
 10
171.5469534
 20
186.400899
 30
0.0
  0
VERTEX
  8
0
 10
171.8856063
 20
190.589355
 30
0.0
  0
VERTEX
  8
0
 10
172.2317814
 20
194.777946
 30
0.0
  0
VERTEX
  8
0
 10
172.5853545
 20
198.966564
 30
0.0
  0
VERTEX
  8
0
 10
172.9462257
 20
203.15502
 30
0.0
  0
VERTEX
  8
0
 10
173.314314
 20
207.343152
 30
0.0
  0
VERTEX
  8
0
 10
173.6895708
 20
211.530825
 30
0.0
  0
VERTEX
  8
0
 10
174.071961
 20
215.717877
 30
0.0
  0
VERTEX
  8
0
 10
174.4614819
 20
219.904173
 30
0.0
  0
VERTEX
  8
0
 10
174.8581443
 20
224.089497
 30
0.0
  0
VERTEX
  8
0
 10
175.2619833
 20
228.273687
 30
0.0
  0
VERTEX
  8
0
 10
175.6730529
 20
232.4565
 30
0.0
  0
VERTEX
  8
0
 10
176.0913963
 20
236.637423
 30
0.0
  0
VERTEX
  8
0
 10
176.5170351
 20
240.815565
 30
0.0
  0
VERTEX
  8
0
 10
176.9498586
 20
244.988523
 30
0.0
  0
VERTEX
  8
0
 10
177.38935137
 20
249.150222
 30
0.0
  0
VERTEX
  8
0
 10
177.83389935
 20
253.28457
 30
0.0
  0
VERTEX
  8
0
 10
178.27902486
 20
257.350635
 30
0.0
  0
VERTEX
  8
0
 10
178.71392061
 20
261.253917
 30
0.0
  0
VERTEX
  8
0
 10
179.11817406
 20
264.822156
 30
0.0
  0
VERTEX
  8
0
 10
179.46741771
 20
267.859278
 30
0.0
  0
VERTEX
  8
0
 10
179.7165
 20
270.0
 30
0.0
  0
SEQEND
  0
POLYLINE
  6
CONTINUOUS
  8
0
 66
1
 10
0.0
 20
0.0
 30
0.0
 70
8
  0
VERTEX
  8
0
 10
225.273
 20
260.0
 30
0.0
  0
VERTEX
  8
0
 10
225.51285702
 20
257.938564
 30
0.0
  0
VERTEX
  8
0
 10
225.84916572
 20
255.013928
 30
0.0
  0
VERTEX
  8
0
 10
226.23844682
 20
251.577846
 30
0.0
  0
VERTEX
  8
0
 10
226.65723532
 20
247.81913
 30
0.0
  0
VERTEX
  8
0
 10
227.0858747
 20
243.90366
 30
0.0
  0
VERTEX
  8
0
 10
227.51395794
 20
239.922436
 30
0.0
  0
VERTEX
  8
0
 10
227.9371732
 20
235.914874
 30
0.0
  0
VERTEX
  8
0
 10
228.3539662
 20
231.89647
 30
0.0
  0
VERTEX
  8
0
 10
228.7638406
 20
227.873074
 30
0.0
  0
VERTEX
  8
0
 10
229.1666898
 20
223.847
 30
0.0
  0
VERTEX
  8
0
 10
229.5625346
 20
219.819106
 30
0.0
  0
VERTEX
  8
0
 10
229.9514166
 20
215.789886
 30
0.0
  0
VERTEX
  8
0
 10
230.3333878
 20
211.759574
 30
0.0
  0
VERTEX
  8
0
 10
230.708482
 20
207.728326
 30
0.0
  0
VERTEX
  8
0
 10
231.0767096
 20
203.69635
 30
0.0
  0
VERTEX
  8
0
 10
231.438068
 20
199.663776
 30
0.0
  0
VERTEX
  8
0
 10
231.7925234
 20
195.63076
 30
0.0
  0
VERTEX
  8
0
 10
232.140029
 20
191.597432
 30
0.0
  0
VERTEX
  8
0
 10
232.4805068
 20
187.563948
 30
0.0
  0
VERTEX
  8
0
 10
232.8138606
 20
183.53049
 30
0.0
  0
VERTEX
  8
0
 10
233.1399708
 20
179.497162
 30
0.0
  0
VERTEX
  8
0
 10
233.4586866
 20
175.464146
 30
0.0
  0
VERTEX
  8
0
 10
233.7698364
 20
171.431572
 30
0.0
  0
VERTEX
  8
0
 10
234.0732278
 20
167.399648
 30
0.0
  0
VERTEX
  8
0
 10
234.3686346
 20
163.368478
 30
0.0
  0
VERTEX
  8
0
 10
234.6558072
 20
159.33827
 30
0.0
  0
VERTEX
  8
0
 10
234.9344674
 20
155.30918
 30
0.0
  0
VERTEX
  8
0
 10
235.204311
 20
151.28139
 30
0.0
  0
VERTEX
  8
0
 10
235.465
 20
147.255056
 30
0.0
  0
VERTEX
  8
0
 10
235.716173
 20
143.230412
 30
0.0
  0
VERTEX
  8
0
 10
235.9574322
 20
139.20764
 30
0.0
  0
VERTEX
  8
0
 10
236.188346
 20
135.186922
 30
0.0
  0
VERTEX
  8
0
 10
236.4084568
 20
131.168518
 30
0.0
  0
VERTEX
  8
0
 10
236.6172628
 20
127.152636
 30
0.0
  0
VERTEX
  8
0
 10
236.814231
 20
123.13951
 30
0.0
  0
VERTEX
  8
0
 10
236.9987894
 20
119.129452
 30
0.0
  0
VERTEX
  8
0
 10
237.1703192
 20
115.122722
 30
0.0
  0
VERTEX
  8
0
 10
237.3281678
 20
111.119658
 30
0.0
  0
VERTEX
  8
0
 10
237.471628
 20
107.120546
 30
0.0
  0
VERTEX
  8
0
 10
237.5999484
 20
103.125802
 30
0.0
  0
VERTEX
  8
0
 10
237.712323
 20
99.135842
 30
0.0
  0
VERTEX
  8
0
 10
237.8078886
 20
95.151082
 30
0.0
  0
VERTEX
  8
0
 10
237.8857196
 20
91.172042
 30
0.0
  0
VERTEX
  8
0
 10
237.9448228
 20
87.19932
 30
0.0
  0
VERTEX
  8
0
 10
237.9841296
 20
83.233566
 30
0.0
  0
VERTEX
  8
0
 10
238.0024882
 20
79.275482
 30
0.0
  0
VERTEX
  8
0
 10
237.998661
 20
75.325952
 30
0.0
  0
VERTEX
  8
0
 10
237.9713012
 20
71.385938
 30
0.0
  0
VERTEX
  8
0
 10
237.9189476
 20
67.456636
 30
0.0
  0
VERTEX
  8
0
 10
237.8400116
 20
63.539372
 30
0.0
  0
VERTEX
  8
0
 10
237.7327564
 20
59.63581
 30
0.0
  0
VERTEX
  8
0
 10
237.5952736
 20
55.7479
 30
0.0
  0
VERTEX
  8
0
 10
237.425465
 20
51.878112
 30
0.0
  0
VERTEX
  8
0
 10
237.2210088
 20
48.029436
 30
0.0
  0
VERTEX
  8
0
 10
236.979344
 20
44.205798
 30
0.0
  0
VERTEX
  8
0
 10
236.697647
 20
40.41219
 30
0.0
  0
VERTEX
  8
0
 10
236.3728264
 20
36.65545
 30
0.0
  0
VERTEX
  8
0
 10
236.001601
 20
32.945198
 30
0.0
  0
VERTEX
  8
0
 10
235.5807104
 20
29.29537
 30
0.0
  0
VERTEX
  8
0
 10
235.1074558
 20
25.7273484
 30
0.0
  0
VERTEX
  8
0
 10
234.5808856
 20
22.2740466
 30
0.0
  0
VERTEX
  8
0
 10
234.0039898
 20
18.9851532
 30
0.0
  0
VERTEX
  8
0
 10
233.3865834
 20
15.9284918
 30
0.0
  0
VERTEX
  8
0
 10
232.7468118
 20
13.1791348
 30
0.0
  0
VERTEX
  8
0
 10
232.1077994
 20
10.7930602
 30
0.0
  0
VERTEX
  8
0
 10
231.4897976
 20
8.7827688
 30
0.0
  0
VERTEX
  8
0
 10
230.9041502
 20
7.1175702
 30
0.0
  0
VERTEX
  8
0
 10
230.3530854
 20
5.7440292
 30
0.0
  0
VERTEX
  8
0
 10
229.8331582
 20
4.6065032
 30
0.0
  0
VERTEX
  8
0
 10
229.338516
 20
3.6575916
 30
0.0
  0
VERTEX
  8
0
 10
228.8627446
 20
2.860494
 30
0.0
  0
VERTEX
  8
0
 10
228.3997392
 20
2.18811632
 30
0.0
  0
VERTEX
  8
0
 10
227.9440086
 20
1.62133738
 30
0.0
  0
VERTEX
  8
0
 10
227.49088918
 20
1.14742108
 30
0.0
  0
VERTEX
  8
0
 10
227.0368491
 20
0.75873954
 30
0.0
  0
VERTEX
  8
0
 10
226.58008474
 20
0.45165328
 30
0.0
  0
VERTEX
  8
0
 10
226.12133086
 20
0.225055818
 30
0.0
  0
VERTEX
  8
0
 10
225.66437254
 20
0.078199316
 30
0.0
  0
VERTEX
  8
0
 10
225.216930688
 20
0.0082708574
 30
0.0
  0
VERTEX
  8
0
 10
224.783069312
 20
0.0082708574
 30
0.0
  0
VERTEX
  8
0
 10
224.33562746
 20
0.078199316
 30
0.0
  0
VERTEX
  8
0
 10
223.87866914
 20
0.225055818
 30
0.0
  0
VERTEX
  8
0
 10
223.41991526
 20
0.45165328
 30
0.0
  0
VERTEX
  8
0
 10
222.9631509
 20
0.75873954
 30
0.0
  0
VERTEX
  8
0
 10
222.50911082
 20
1.14742108
 30
0.0
  0
VERTEX
  8
0
 10
222.0559914
 20
1.62133738
 30
0.0
  0
VERTEX
  8
0
 10
221.6002608
 20
2.18811632
 30
0.0
  0
VERTEX
  8
0
 10
221.1372554
 20
2.860494
 30
0.0
  0
VERTEX
  8
0
 10
220.661484
 20
3.6575916
 30
0.0
  0
VERTEX
  8
0
 10
220.1668418
 20
4.6065032
 30
0.0
  0
VERTEX
  8
0
 10
219.6469146
 20
5.7440292
 30
0.0
  0
VERTEX
  8
0
 10
219.0958498
 20
7.1175702
 30
0.0
  0
VERTEX
  8
0
 10
218.5102024
 20
8.7827688
 30
0.0
  0
VERTEX
  8
0
 10
217.8922006
 20
10.7930602
 30
0.0
  0
VERTEX
  8
0
 10
217.2531882
 20
13.1791348
 30
0.0
  0
VERTEX
  8
0
 10
216.6134166
 20
15.9284918
 30
0.0
  0
VERTEX
  8
0
 10
215.9960102
 20
18.9851532
 30
0.0
  0
VERTEX
  8
0
 10
215.4191144
 20
22.2740466
 30
0.0
  0
VERTEX
  8
0
 10
214.8925442
 20
25.7273484
 30
0.0
  0
VERTEX
  8
0
 10
214.4192896
 20
29.29537
 30
0.0
  0
VERTEX
  8
0
 10
213.998399
 20
32.945198
 30
0.0
  0
VERTEX
  8
0
 10
213.6271736
 20
36.65545
 30
0.0
  0
VERTEX
  8
0
 10
213.302353
 20
40.41219
 30
0.0
  0
VERTEX
  8
0
 10
213.020656
 20
44.205798
 30
0.0
  0
VERTEX
  8
0
 10
212.7789912
 20
48.029436
 30
0.0
  0
VERTEX
  8
0
 10
212.574535
 20
51.878112
 30
0.0
  0
VERTEX
  8
0
 10
212.4047264
 20
55.7479
 30
0.0
  0
VERTEX
  8
0
 10
212.2672436
 20
59.63581
 30
0.0
  0
VERTEX
  8
0
 10
212.1599884
 20
63.539372
 30
0.0
  0
VERTEX
  8
0
 10
212.0810524
 20
67.456636
 30
0.0
  0
VERTEX
  8
0
 10
212.0286988
 20
71.385938
 30
0.0
  0
VERTEX
  8
0
 10
212.001339
 20
75.325952
 30
0.0
  0
VERTEX
  8
0
 10
211.9975118
 20
79.275482
 30
0.0
  0
VERTEX
  8
0
 10
212.0158704
 20
83.233566
 30
0.0
  0
VERTEX
  8
0
 10
212.0551772
 20
87.19932
 30
0.0
  0
VERTEX
  8
0
 10
212.1142804
 20
91.172042
 30
0.0
  0
VERTEX
  8
0
 10
212.1921114
 20
95.151082
 30
0.0
  0
VERTEX
  8
0
 10
212.287677
 20
99.135842
 30
0.0
  0
VERTEX
  8
0
 10
212.4000516
 20
103.125802
 30
0.0
  0
VERTEX
  8
0
 10
212.528372
 20
107.120546
 30
0.0
  0
VERTEX
  8
0
 10
212.6718322
 20
111.119658
 30
0.0
  0
VERTEX
  8
0
 10
212.8296808
 20
115.122722
 30
0.0
  0
VERTEX
  8
0
 10
213.0012106
 20
119.129452
 30
0.0
  0
VERTEX
  8
0
 10
213.185769
 20
123.13951
 30
0.0
  0
VERTEX
  8
0
 10
213.3827372
 20
127.152636
 30
0.0
  0
VERTEX
  8
0
 10
213.5915432
 20
131.168518
 30
0.0
  0
VERTEX
  8
0
 10
213.811654
 20
135.186922
 30
0.0
  0
VERTEX
  8
0
 10
214.0425678
 20
139.20764
 30
0.0
  0
VERTEX
  8
0
 10
214.283827
 20
143.230412
 30
0.0
  0
VERTEX
  8
0
 10
214.535
 20
147.255056
 30
0.0
  0
VERTEX
  8
0
 10
214.795689
 20
151.28139
 30
0.0
  0
VERTEX
  8
0
 10
215.0655326
 20
155.30918
 30
0.0
  0
VERTEX
  8
0
 10
215.3441928
 20
159.33827
 30
0.0
  0
VERTEX
  8
0
 10
215.6313654
 20
163.368478
 30
0.0
  0
VERTEX
  8
0
 10
215.9267722
 20
167.399648
 30
0.0
  0
VERTEX
  8
0
 10
216.2301636
 20
171.431572
 30
0.0
  0
VERTEX
  8
0
 10
216.5413134
 20
175.464146
 30
0.0
  0
VERTEX
  8
0
 10
216.8600292
 20
179.497162
 30
0.0
  0
VERTEX
  8
0
 10
217.1861394
 20
183.53049
 30
0.0
  0
VERTEX
  8
0
 10
217.5194932
 20
187.563948
 30
0.0
  0
VERTEX
  8
0
 10
217.859971
 20
191.597432
 30
0.0
  0
VERTEX
  8
0
 10
218.2074766
 20
195.63076
 30
0.0
  0
VERTEX
  8
0
 10
218.561932
 20
199.663776
 30
0.0
  0
VERTEX
  8
0
 10
218.9232904
 20
203.69635
 30
0.0
  0
VERTEX
  8
0
 10
219.291518
 20
207.728326
 30
0.0
  0
VERTEX
  8
0
 10
219.6666122
 20
211.759574
 30
0.0
  0
VERTEX
  8
0
 10
220.0485834
 20
215.789886
 30
0.0
  0
VERTEX
  8
0
 10
220.4374654
 20
219.819106
 30
0.0
  0
VERTEX
  8
0
 10
220.8333102
 20
223.847
 30
0.0
  0
VERTEX
  8
0
 10
221.2361594
 20
227.873074
 30
0.0
  0
VERTEX
  8
0
 10
221.6460338
 20
231.89647
 30
0.0
  0
VERTEX
  8
0
 10
222.0628268
 20
235.914874
 30
0.0
  0
VERTEX
  8
0
 10
222.48604206
 20
239.922436
 30
0.0
  0
VERTEX
  8
0
 10
222.9141253
 20
243.90366
 30
0.0
  0
VERTEX
  8
0
 10
223.34276468
 20
247.81913
 30
0.0
  0
VERTEX
  8
0
 10
223.76155318
 20
251.577846
 30
0.0
  0
VERTEX
  8
0
 10
224.15083428
 20
255.013928
 30
0.0
  0
VERTEX
  8
0
 10
224.48714298
 20
257.938564
 30
0.0
  0
VERTEX
  8
0
 10
224.727
 20
260.0
 30
0.0
  0
SEQEND
  0
POLYLINE
  6
CONTINUOUS
  8
0
 66
1
 10
0.0
 20
0.0
 30
0.0
 70
8
  0
VERTEX
  8
0
 10
270.2625
 20
250.0
 30
0.0
  0
VERTEX
  8
0
 10
270.49313175
 20
248.01785
 30
0.0
  0
VERTEX
  8
0
 10
270.8165055
 20
245.2057
 30
0.0
  0
VERTEX
  8
0
 10
271.19081425
 20
241.901775
 30
0.0
  0
VERTEX
  8
0
 10
271.5934955
 20
238.287625
 30
0.0
  0
VERTEX
  8
0
 10
272.00564875
 20
234.52275
 30
0.0
  0
VERTEX
  8
0
 10
272.41726725
 20
230.69465
 30
0.0
  0
VERTEX
  8
0
 10
272.824205
 20
226.841225
 30
0.0
  0
VERTEX
  8
0
 10
273.2249675
 20
222.977375
 30
0.0
  0
VERTEX
  8
0
 10
273.6190775
 20
219.108725
 30
0.0
  0
VERTEX
  8
0
 10
274.0064325
 20
215.2375
 30
0.0
  0
VERTEX
  8
0
 10
274.3870525
 20
211.364525
 30
0.0
  0
VERTEX
  8
0
 10
274.7609775
 20
207.490275
 30
0.0
  0
VERTEX
  8
0
 10
275.1282575
 20
203.614975
 30
0.0
  0
VERTEX
  8
0
 10
275.488925
 20
199.738775
 30
0.0
  0
VERTEX
  8
0
 10
275.84299
 20
195.861875
 30
0.0
  0
VERTEX
  8
0
 10
276.19045
 20
191.9844
 30
0.0
  0
VERTEX
  8
0
 10
276.5312725
 20
188.1065
 30
0.0
  0
VERTEX
  8
0
 10
276.8654125
 20
184.2283
 30
0.0
  0
VERTEX
  8
0
 10
277.192795
 20
180.34995
 30
0.0
  0
VERTEX
  8
0
 10
277.5133275
 20
176.471625
 30
0.0
  0
VERTEX
  8
0
 10
277.826895
 20
172.593425
 30
0.0
  0
VERTEX
  8
0
 10
278.1333525
 20
168.715525
 30
0.0
  0
VERTEX
  8
0
 10
278.432535
 20
164.83805
 30
0.0
  0
VERTEX
  8
0
 10
278.7242575
 20
160.9612
 30
0.0
  0
VERTEX
  8
0
 10
279.0083025
 20
157.085075
 30
0.0
  0
VERTEX
  8
0
 10
279.28443
 20
153.209875
 30
0.0
  0
VERTEX
  8
0
 10
279.5523725
 20
149.33575
 30
0.0
  0
VERTEX
  8
0
 10
279.8118375
 20
145.462875
 30
0.0
  0
VERTEX
  8
0
 10
280.0625
 20
141.5914
 30
0.0
  0
VERTEX
  8
0
 10
280.3040125
 20
137.72155
 30
0.0
  0
VERTEX
  8
0
 10
280.5359925
 20
133.8535
 30
0.0
  0
VERTEX
  8
0
 10
280.758025
 20
129.987425
 30
0.0
  0
VERTEX
  8
0
 10
280.96967
 20
126.123575
 30
0.0
  0
VERTEX
  8
0
 10
281.170445
 20
122.26215
 30
0.0
  0
VERTEX
  8
0
 10
281.3598375
 20
118.403375
 30
0.0
  0
VERTEX
  8
0
 10
281.5372975
 20
114.54755
 30
0.0
  0
VERTEX
  8
0
 10
281.70223
 20
110.694925
 30
0.0
  0
VERTEX
  8
0
 10
281.8540075
 20
106.845825
 30
0.0
  0
VERTEX
  8
0
 10
281.99195
 20
103.000525
 30
0.0
  0
VERTEX
  8
0
 10
282.115335
 20
99.159425
 30
0.0
  0
VERTEX
  8
0
 10
282.2233875
 20
95.322925
 30
0.0
  0
VERTEX
  8
0
 10
282.3152775
 20
91.491425
 30
0.0
  0
VERTEX
  8
0
 10
282.390115
 20
87.665425
 30
0.0
  0
VERTEX
  8
0
 10
282.446945
 20
83.8455
 30
0.0
  0
VERTEX
  8
0
 10
282.48474
 20
80.032275
 30
0.0
  0
VERTEX
  8
0
 10
282.5023925
 20
76.226425
 30
0.0
  0
VERTEX
  8
0
 10
282.4987125
 20
72.4288
 30
0.0
  0
VERTEX
  8
0
 10
282.472405
 20
68.640325
 30
0.0
  0
VERTEX
  8
0
 10
282.422065
 20
64.86215
 30
0.0
  0
VERTEX
  8
0
 10
282.346165
 20
61.09555
 30
0.0
  0
VERTEX
  8
0
 10
282.243035
 20
57.342125
 30
0.0
  0
VERTEX
  8
0
 10
282.11084
 20
53.60375
 30
0.0
  0
VERTEX
  8
0
 10
281.9475625
 20
49.8828
 30
0.0
  0
VERTEX
  8
0
 10
281.75097
 20
46.18215
 30
0.0
  0
VERTEX
  8
0
 10
281.5186
 20
42.505575
 30
0.0
  0
VERTEX
  8
0
 10
281.2477375
 20
38.857875
 30
0.0
  0
VERTEX
  8
0
 10
280.93541
 20
35.245625
 30
0.0
  0
VERTEX
  8
0
 10
280.5784625
 20
31.678075
 30
0.0
  0
VERTEX
  8
0
 10
280.17376
 20
28.168625
 30
0.0
  0
VERTEX
  8
0
 10
279.7187075
 20
24.737835
 30
0.0
  0
VERTEX
  8
0
 10
279.21239
 20
21.4173525
 30
0.0
  0
VERTEX
  8
0
 10
278.6576825
 20
18.254955
 30
0.0
  0
VERTEX
  8
0
 10
278.0640225
 20
15.3158575
 30
0.0
  0
VERTEX
  8
0
 10
277.4488575
 20
12.672245
 30
0.0
  0
VERTEX
  8
0
 10
276.8344225
 20
10.3779425
 30
0.0
  0
VERTEX
  8
0
 10
276.24019
 20
8.44497
 30
0.0
  0
VERTEX
  8
0
 10
275.6770675
 20
6.8438175
 30
0.0
  0
VERTEX
  8
0
 10
275.1471975
 20
5.523105
 30
0.0
  0
VERTEX
  8
0
 10
274.6472675
 20
4.42933
 30
0.0
  0
VERTEX
  8
0
 10
274.17165
 20
3.516915
 30
0.0
  0
VERTEX
  8
0
 10
273.7141775
 20
2.750475
 30
0.0
  0
VERTEX
  8
0
 10
273.26898
 20
2.103958
 30
0.0
  0
VERTEX
  8
0
 10
272.8307775
 20
1.55897825
 30
0.0
  0
VERTEX
  8
0
 10
272.39508575
 20
1.1032895
 30
0.0
  0
VERTEX
  8
0
 10
271.95850875
 20
0.72955725
 30
0.0
  0
VERTEX
  8
0
 10
271.51931225
 20
0.434282
 30
0.0
  0
VERTEX
  8
0
 10
271.07820275
 20
0.216399825
 30
0.0
  0
VERTEX
  8
0
 10
270.63881975
 20
0.07519165
 30
0.0
  0
VERTEX
  8
0
 10
270.2085872
 20
0.0079527475
 30
0.0
  0
VERTEX
  8
0
 10
269.7914128
 20
0.0079527475
 30
0.0
  0
VERTEX
  8
0
 10
269.36118025
 20
0.07519165
 30
0.0
  0
VERTEX
  8
0
 10
268.92179725
 20
0.216399825
 30
0.0
  0
VERTEX
  8
0
 10
268.48068775
 20
0.434282
 30
0.0
  0
VERTEX
  8
0
 10
268.04149125
 20
0.72955725
 30
0.0
  0
VERTEX
  8
0
 10
267.60491425
 20
1.1032895
 30
0.0
  0
VERTEX
  8
0
 10
267.1692225
 20
1.55897825
 30
0.0
  0
VERTEX
  8
0
 10
266.73102
 20
2.103958
 30
0.0
  0
VERTEX
  8
0
 10
266.2858225
 20
2.750475
 30
0.0
  0
VERTEX
  8
0
 10
265.82835
 20
3.516915
 30
0.0
  0
VERTEX
  8
0
 10
265.3527325
 20
4.42933
 30
0.0
  0
VERTEX
  8
0
 10
264.8528025
 20
5.523105
 30
0.0
  0
VERTEX
  8
0
 10
264.3229325
 20
6.8438175
 30
0.0
  0
VERTEX
  8
0
 10
263.75981
 20
8.44497
 30
0.0
  0
VERTEX
  8
0
 10
263.1655775
 20
10.3779425
 30
0.0
  0
VERTEX
  8
0
 10
262.5511425
 20
12.672245
 30
0.0
  0
VERTEX
  8
0
 10
261.9359775
 20
15.3158575
 30
0.0
  0
VERTEX
  8
0
 10
261.3423175
 20
18.254955
 30
0.0
  0
VERTEX
  8
0
 10
260.78761
 20
21.4173525
 30
0.0
  0
VERTEX
  8
0
 10
260.2812925
 20
24.737835
 30
0.0
  0
VERTEX
  8
0
 10
259.82624
 20
28.168625
 30
0.0
  0
VERTEX
  8
0
 10
259.4215375
 20
31.678075
 30
0.0
  0
VERTEX
  8
0
 10
259.06459
 20
35.245625
 30
0.0
  0
VERTEX
  8
0
 10
258.7522625
 20
38.857875
 30
0.0
  0
VERTEX
  8
0
 10
258.4814
 20
42.505575
 30
0.0
  0
VERTEX
  8
0
 10
258.24903
 20
46.18215
 30
0.0
  0
VERTEX
  8
0
 10
258.0524375
 20
49.8828
 30
0.0
  0
VERTEX
  8
0
 10
257.88916
 20
53.60375
 30
0.0
  0
VERTEX
  8
0
 10
257.756965
 20
57.342125
 30
0.0
  0
VERTEX
  8
0
 10
257.653835
 20
61.09555
 30
0.0
  0
VERTEX
  8
0
 10
257.577935
 20
64.86215
 30
0.0
  0
VERTEX
  8
0
 10
257.527595
 20
68.640325
 30
0.0
  0
VERTEX
  8
0
 10
257.5012875
 20
72.4288
 30
0.0
  0
VERTEX
  8
0
 10
257.4976075
 20
76.226425
 30
0.0
  0
VERTEX
  8
0
 10
257.51526
 20
80.032275
 30
0.0
  0
VERTEX
  8
0
 10
257.553055
 20
83.8455
 30
0.0
  0
VERTEX
  8
0
 10
257.609885
 20
87.665425
 30
0.0
  0
VERTEX
  8
0
 10
257.6847225
 20
91.491425
 30
0.0
  0
VERTEX
  8
0
 10
257.7766125
 20
95.322925
 30
0.0
  0
VERTEX
  8
0
 10
257.884665
 20
99.159425
 30
0.0
  0
VERTEX
  8
0
 10
258.00805
 20
103.000525
 30
0.0
  0
VERTEX
  8
0
 10
258.1459925
 20
106.845825
 30
0.0
  0
VERTEX
  8
0
 10
258.29777
 20
110.694925
 30
0.0
  0
VERTEX
  8
0
 10
258.4627025
 20
114.54755
 30
0.0
  0
VERTEX
  8
0
 10
258.6401625
 20
118.403375
 30
0.0
  0
VERTEX
  8
0
 10
258.829555
 20
122.26215
 30
0.0
  0
VERTEX
  8
0
 10
259.03033
 20
126.123575
 30
0.0
  0
VERTEX
  8
0
 10
259.241975
 20
129.987425
 30
0.0
  0
VERTEX
  8
0
 10
259.4640075
 20
133.8535
 30
0.0
  0
VERTEX
  8
0
 10
259.6959875
 20
137.72155
 30
0.0
  0
VERTEX
  8
0
 10
259.9375
 20
141.5914
 30
0.0
  0
VERTEX
  8
0
 10
260.1881625
 20
145.462875
 30
0.0
  0
VERTEX
  8
0
 10
260.4476275
 20
149.33575
 30
0.0
  0
VERTEX
  8
0
 10
260.71557
 20
153.209875
 30
0.0
  0
VERTEX
  8
0
 10
260.9916975
 20
157.085075
 30
0.0
  0
VERTEX
  8
0
 10
261.2757425
 20
160.9612
 30
0.0
  0
VERTEX
  8
0
 10
261.567465
 20
164.83805
 30
0.0
  0
VERTEX
  8
0
 10
261.8666475
 20
168.715525
 30
0.0
  0
VERTEX
  8
0
 10
262.173105
 20
172.593425
 30
0.0
  0
VERTEX
  8
0
 10
262.4866725
 20
176.471625
 30
0.0
  0
VERTEX
  8
0
 10
262.807205
 20
180.34995
 30
0.0
  0
VERTEX
  8
0
 10
263.1345875
 20
184.2283
 30
0.0
  0
VERTEX
  8
0
 10
263.4687275
 20
188.1065
 30
0.0
  0
VERTEX
  8
0
 10
263.80955
 20
191.9844
 30
0.0
  0
VERTEX
  8
0
 10
264.15701
 20
195.861875
 30
0.0
  0
VERTEX
  8
0
 10
264.511075
 20
199.738775
 30
0.0
  0
VERTEX
  8
0
 10
264.8717425
 20
203.614975
 30
0.0
  0
VERTEX
  8
0
 10
265.2390225
 20
207.490275
 30
0.0
  0
VERTEX
  8
0
 10
265.6129475
 20
211.364525
 30
0.0
  0
VERTEX
  8
0
 10
265.9935675
 20
215.2375
 30
0.0
  0
VERTEX
  8
0
 10
266.3809225
 20
219.108725
 30
0.0
  0
VERTEX
  8
0
 10
266.7750325
 20
222.977375
 30
0.0
  0
VERTEX
  8
0
 10
267.175795
 20
226.841225
 30
0.0
  0
VERTEX
  8
0
 10
267.58273275
 20
230.69465
 30
0.0
  0
VERTEX
  8
0
 10
267.99435125
 20
234.52275
 30
0.0
  0
VERTEX
  8
0
 10
268.4065045
 20
238.287625
 30
0.0
  0
VERTEX
  8
0
 10
268.80918575
 20
241.901775
 30
0.0
  0
VERTEX
  8
0
 10
269.1834945
 20
245.2057
 30
0.0
  0
VERTEX
  8
0
 10
269.50686825
 20
248.01785
 30
0.0
  0
VERTEX
  8
0
 10
269.7375
 20
250.0
 30
0.0
  0
SEQEND
  0
ENDSEC
  0
EOF
